<svg width="80" height="80" viewBox="0 0 80 80" fill="none" xmlns="http://www.w3.org/2000/svg">
<g clip-path="url(#clip0_423_3382)">
<path d="M47.5 32.5C44.5174 32.4964 41.6581 31.3099 39.5491 29.2009C37.4401 27.0919 36.2536 24.2326 36.25 21.25V12.5C36.2504 12.2532 36.3234 12.0119 36.46 11.8062L38.96 8.05625C39.0742 7.8851 39.2289 7.74479 39.4103 7.64776C39.5917 7.55072 39.7943 7.49997 40 7.5H55C55.2057 7.49997 55.4083 7.55072 55.5897 7.64776C55.7711 7.74479 55.9258 7.8851 56.04 8.05625L58.54 11.8062C58.6766 12.0119 58.7496 12.2532 58.75 12.5V21.25C58.7464 24.2326 57.5599 27.0919 55.4509 29.2009C53.3419 31.3099 50.4826 32.4964 47.5 32.5ZM38.75 12.875V21.25C38.75 23.5706 39.6719 25.7962 41.3128 27.4372C42.9538 29.0781 45.1794 30 47.5 30C49.8206 30 52.0462 29.0781 53.6872 27.4372C55.3281 25.7962 56.25 23.5706 56.25 21.25V12.875L54.3312 10H40.6687L38.75 12.875Z" fill="#141615"/>
<path d="M57.5 23.75V21.25C58.163 21.25 58.7989 20.9866 59.2678 20.5178C59.7366 20.0489 60 19.413 60 18.75V17.5C60 17.1685 59.8683 16.8505 59.6339 16.6161C59.3995 16.3817 59.0815 16.25 58.75 16.25H57.5V13.75H58.75C59.7446 13.75 60.6984 14.1451 61.4016 14.8483C62.1049 15.5516 62.5 16.5054 62.5 17.5V18.75C62.5 20.0761 61.9732 21.3479 61.0355 22.2855C60.0979 23.2232 58.8261 23.75 57.5 23.75Z" fill="#141615"/>
<path d="M37.5 23.75C36.1739 23.75 34.9021 23.2232 33.9645 22.2855C33.0268 21.3479 32.5 20.0761 32.5 18.75V17.5C32.5 16.5054 32.8951 15.5516 33.5983 14.8483C34.3016 14.1451 35.2554 13.75 36.25 13.75H37.5V16.25H36.25C35.9185 16.25 35.6005 16.3817 35.3661 16.6161C35.1317 16.8505 35 17.1685 35 17.5V18.75C35 19.413 35.2634 20.0489 35.7322 20.5178C36.2011 20.9866 36.837 21.25 37.5 21.25V23.75Z" fill="#141615"/>
<path d="M59.986 15.1825L57.5135 14.8175L58.7498 6.4825C58.7843 5.95655 58.7121 5.42906 58.5374 4.93175C58.3628 4.43445 58.0893 3.97762 57.7335 3.58875C57.4273 3.24783 57.0531 2.97483 56.635 2.78731C56.217 2.59979 55.7642 2.50192 55.306 2.5H39.6935C39.2357 2.50227 38.7835 2.60031 38.3658 2.78781C37.9482 2.97532 37.5744 3.24815 37.2685 3.58875C36.9063 3.99002 36.6305 4.46158 36.4585 4.97405C36.2865 5.48653 36.2218 6.02894 36.2685 6.5675L37.4923 14.8175L35.0198 15.1825L33.786 6.84875C33.7021 5.95287 33.8059 5.04934 34.0906 4.19578C34.3754 3.34222 34.8348 2.55736 35.4398 1.89125C35.9781 1.29731 36.6345 0.822308 37.367 0.496642C38.0995 0.170975 38.8919 0.00181945 39.6935 0L55.306 0C56.1087 0.000949338 56.9023 0.169685 57.6359 0.495379C58.3695 0.821073 59.0269 1.29653 59.566 1.89125C60.1639 2.54556 60.6203 3.31627 60.9066 4.15512C61.1929 4.99398 61.3029 5.88291 61.2298 6.76625L59.986 15.1825Z" fill="#141615"/>
<path d="M45 42.5C44.919 42.5002 44.8382 42.4922 44.7587 42.4762C44.5798 42.4405 44.4109 42.366 44.2639 42.2581C44.1168 42.1501 43.9952 42.0112 43.9075 41.8512L37.6575 30.6013C37.5552 30.4173 37.501 30.2105 37.5 30V26.25H40V29.6762L45.375 39.35L55.3862 31.3412L53.0575 29.79L54.445 27.71L58.195 30.21C58.3586 30.3191 58.4942 30.4652 58.5907 30.6365C58.6872 30.8078 58.742 30.9995 58.7505 31.1959C58.759 31.3924 58.7211 31.5881 58.6398 31.7671C58.5585 31.9461 58.4361 32.1034 58.2825 32.2263L45.7825 42.2262C45.5604 42.4039 45.2844 42.5004 45 42.5Z" fill="#141615"/>
<path d="M40.4525 64.3388C36.9173 57.2768 33.7395 50.0414 30.9313 42.6601C30.3138 41.0746 29.998 39.3878 30 37.6863V25.0001C30.0001 24.7044 30.105 24.4183 30.2961 24.1926C30.4872 23.967 30.7521 23.8164 31.0438 23.7676L38.5438 22.5176L38.9563 24.9826L32.5 26.0588V37.6838C32.4988 39.0756 32.7569 40.4554 33.2613 41.7526C36.0343 49.0417 39.1707 56.1873 42.6588 63.1626L40.4525 64.3388Z" fill="#141615"/>
<path d="M61.25 60V57.5C65.5963 57.5 68.75 55.3975 68.75 52.5C68.75 42.5862 64.9588 41.25 61.25 41.25C56.6138 41.25 53.8213 44.8938 53.75 51.0125L56.16 57.035L53.8375 57.965L51.3375 51.715C51.2793 51.5669 51.2497 51.4091 51.25 51.25C51.25 42.0237 56.6375 38.75 61.25 38.75C71.25 38.75 71.25 49.0988 71.25 52.5C71.25 56.8463 67.045 60 61.25 60Z" fill="#141615"/>
<path d="M48.7234 69.0001L46.2734 68.5001L48.6234 56.7501C48.7675 56.0242 49.1243 55.3576 49.6484 54.8351L52.8634 51.6201L54.6309 53.3876L51.4159 56.6026C51.2419 56.7769 51.1231 56.9986 51.0747 57.2401L48.7234 69.0001Z" fill="#141615"/>
<path d="M51.603 80H47.103C46.4822 79.9997 45.865 79.9066 45.2717 79.7238L32.6142 76.275L24.1717 77.4875C24.0312 77.5076 23.8883 77.5033 23.7492 77.475L14.268 75.5675C13.728 75.46 13.2184 75.235 12.7752 74.9084C12.332 74.5817 11.9662 74.1615 11.7037 73.6776C11.4412 73.1937 11.2885 72.6579 11.2564 72.1082C11.2243 71.5586 11.3136 71.0087 11.518 70.4975L14.5542 62.8613C14.8939 62.0046 15.5393 61.3043 16.3654 60.8958C17.1915 60.4874 18.1398 60.3998 19.0267 60.65L27.4592 63.025C27.5597 63.0446 27.6633 63.0392 27.7612 63.0093C27.8591 62.9795 27.9481 62.9261 28.0205 62.8538C28.2473 62.6522 28.4293 62.4053 28.5548 62.1291C28.6803 61.8529 28.7466 61.5534 28.7492 61.25V58.7575C28.7472 57.7629 29.1404 56.8083 29.8423 56.1037C30.5441 55.399 31.4972 55.002 32.4917 55C33.4863 54.998 34.4409 55.3912 35.1456 56.0931C35.8502 56.7949 36.2472 57.7479 36.2492 58.7425V65.1663L52.6767 67.5125L52.3217 69.9875L34.8217 67.4875C34.524 67.4448 34.2516 67.2961 34.0546 67.0688C33.8576 66.8415 33.7492 66.5508 33.7492 66.25V58.7425C33.7473 58.4136 33.6157 58.0987 33.3831 57.8661C33.1505 57.6335 32.8357 57.502 32.5067 57.5C32.1733 57.5003 31.8537 57.6329 31.6179 57.8687C31.3822 58.1044 31.2496 58.4241 31.2492 58.7575V61.25C31.2455 61.9328 31.0919 62.6064 30.7992 63.2233C30.5066 63.8402 30.082 64.3853 29.5555 64.82C29.178 65.1284 28.7338 65.3447 28.2583 65.4517C27.7827 65.5586 27.2887 65.5534 26.8155 65.4363L18.3492 63.0613C18.0571 62.9777 17.7443 63.0059 17.4719 63.1404C17.1994 63.2749 16.9868 63.506 16.8755 63.7888L13.8392 71.425C13.7714 71.596 13.7419 71.7798 13.7529 71.9634C13.7639 72.147 13.815 72.326 13.9028 72.4877C13.9905 72.6494 14.1127 72.7898 14.2607 72.8991C14.4087 73.0083 14.5789 73.0837 14.7592 73.12L24.0305 74.9863L32.5155 73.7663C32.6826 73.7441 32.8524 73.7547 33.0155 73.7975L45.9742 77.3225C46.3409 77.4392 46.7232 77.499 47.108 77.5H51.608C52.1285 77.4999 52.6432 77.39 53.1184 77.1774C53.5935 76.9648 54.0185 76.6543 54.3655 76.2663L62.7992 66.84C63.4142 66.1525 63.7542 65.2624 63.7542 64.34V57.5H66.2542V64.34C66.2552 65.878 65.6881 67.3621 64.6617 68.5075L56.228 77.9338C55.6457 78.584 54.9328 79.1041 54.1358 79.4601C53.3389 79.8162 52.4758 80.0001 51.603 80Z" fill="#141615"/>
<path d="M30.5543 41.0399L29.3981 40.2686C28.3766 39.4989 27.5567 38.4934 27.0082 37.338C26.4596 36.1826 26.1988 34.9117 26.2481 33.6336C26.2481 30.2286 28.0606 27.2449 30.6556 26.3836L30.8543 26.3174L31.6418 28.6924L31.4456 28.7499C29.8831 29.2711 28.7481 31.3249 28.7481 33.6324C28.7044 34.4984 28.8661 35.3625 29.22 36.1541C29.5738 36.9457 30.1099 37.6424 30.7843 38.1874L31.9418 38.9586L30.5543 41.0399Z" fill="#141615"/>
<path d="M27.8668 45.3661L25.3672 47.8657L27.135 49.6335L29.6346 47.1339L27.8668 45.3661Z" fill="#141615"/>
<path d="M31.6175 41.6159L27.8672 45.3662L29.635 47.134L33.3853 43.3837L31.6175 41.6159Z" fill="#141615"/>
<path d="M35.3673 50.3651L30.3672 55.3652L32.135 57.133L37.1351 52.1329L35.3673 50.3651Z" fill="#141615"/>
<path d="M16.25 76.2502C11.9402 76.2502 7.80698 74.5382 4.75951 71.4907C1.71205 68.4432 0 64.31 0 60.0002C0 55.6904 1.71205 51.5572 4.75951 48.5097C7.80698 45.4623 11.9402 43.7502 16.25 43.7502C19.9123 43.7321 23.4798 44.9138 26.407 47.1147C29.3343 49.3155 31.4603 52.4145 32.46 55.9377L30.04 56.5627C29.1833 53.5736 27.3713 50.9472 24.8811 49.0849C22.3909 47.2227 19.3594 46.2271 16.25 46.2502C12.6033 46.2502 9.10591 47.6989 6.52728 50.2775C3.94866 52.8561 2.5 56.3535 2.5 60.0002C2.5 63.6469 3.94866 67.1443 6.52728 69.7229C9.10591 72.3015 12.6033 73.7502 16.25 73.7502C16.6358 73.7502 17.0179 73.7344 17.3962 73.7027L17.6025 76.1952C17.1558 76.2319 16.705 76.2502 16.25 76.2502Z" fill="#141615"/>
<path d="M73.75 80.0002H51.25V77.5002H73.0812L77.4062 71.0127L71.1987 45.2952L73.6287 44.709L79.965 70.959C80.0056 71.1267 80.011 71.3011 79.9809 71.4711C79.9508 71.641 79.8858 71.8029 79.79 71.9465L74.79 79.4465C74.6755 79.6172 74.5207 79.757 74.3393 79.8536C74.1579 79.9502 73.9555 80.0005 73.75 80.0002Z" fill="#141615"/>
<path d="M72.4224 39.707L69.9922 40.2935L70.5957 42.7942L73.0259 42.2077L72.4224 39.707Z" fill="#141615"/>
<path d="M69.3881 37.7936L68.9031 35.7836L55.5781 27.3048L56.9206 25.1948L70.6706 33.9448C70.9436 34.1186 71.1385 34.3915 71.2144 34.7061L71.8181 37.2061L69.3881 37.7936Z" fill="#141615"/>
<path d="M30 58.75H1.25V61.25H30V58.75Z" fill="#141615"/>
<path d="M9.5725 68.6712C4.29375 66.73 0 62.84 0 60C0 56.2325 7.8875 50 16.875 50C19.7474 50.0067 22.5882 50.5987 25.2242 51.7399C27.8601 52.8811 30.2358 54.5476 32.2062 56.6375L30.2913 58.25C28.5527 56.4436 26.4697 55.0041 24.1654 54.0165C21.861 53.0288 19.382 52.5132 16.875 52.5C8.625 52.5 2.5 58.2425 2.5 60C2.5 61.2012 5.5125 64.515 10.435 66.325L9.5725 68.6712Z" fill="#141615"/>
</g>
<defs>
<clipPath id="clip0_423_3382">
<rect width="80" height="80" fill="white"/>
</clipPath>
</defs>
</svg>
