<svg width="80" height="80" viewBox="0 0 80 80" fill="none" xmlns="http://www.w3.org/2000/svg">
<path d="M4.21016 51.6075C5.34936 54.4262 7.53608 56.694 10.3114 57.935L9.94766 62.9575C9.88827 63.7875 9.88326 64.6206 9.93266 65.4513L10.5314 75.4163C10.5625 75.9807 10.8091 76.5116 11.2204 76.8993C11.6317 77.2871 12.1762 77.5021 12.7414 77.5H12.7952L19.3427 77.3413C19.3908 77.3402 19.4388 77.336 19.4864 77.3288L29.5427 75.91L36.5839 77.1413C36.6974 77.161 36.813 77.1652 36.9277 77.1538L39.5377 76.8838C40.0818 76.8287 40.5869 76.5763 40.9577 76.1743C41.3285 75.7723 41.5393 75.2485 41.5504 74.7017C41.5614 74.155 41.372 73.623 41.0178 73.2064C40.6636 72.7897 40.1691 72.5171 39.6277 72.44L35.1814 71.7975L32.4664 70.78C31.6715 70.4906 30.8335 70.3368 29.9877 70.325L17.8952 69.7L17.7927 66.2138C17.8268 64.3258 18.1884 62.4581 18.8614 60.6938C18.957 61.6599 19.2577 62.5946 19.7433 63.4352C20.229 64.2759 20.8884 65.0033 21.6777 65.5688C23.4398 66.4013 25.4483 66.5501 27.3139 65.9863L28.4452 66.635C28.7113 66.7865 29.0237 66.8351 29.3233 66.7715C29.6228 66.7079 29.8886 66.5366 30.0702 66.29L31.4327 64.4325C32.8629 63.5634 34.2147 62.5713 35.4727 61.4675C36.0524 60.8799 36.504 60.1785 36.7989 59.4075C36.8102 59.3788 36.8302 59.355 36.8389 59.325C36.8389 59.3175 36.8389 59.31 36.8389 59.3025C37.239 58.3052 37.3808 57.223 37.2514 56.1563C37.0567 54.822 36.5848 53.5432 35.8662 52.4022C35.1476 51.2612 34.1982 50.2833 33.0789 49.5313C33.0864 49.4275 33.1014 49.325 33.1014 49.2213C33.0617 48.0046 32.5504 46.851 31.6757 46.0043C30.8009 45.1577 29.6313 44.6844 28.4139 44.6844C27.1966 44.6844 26.0269 45.1577 25.1522 46.0043C24.2774 46.851 23.7661 48.0046 23.7264 49.2213C23.7318 49.4075 23.7485 49.5933 23.7764 49.7775C23.3351 50.0507 22.9141 50.3552 22.5164 50.6888L22.4989 49.9063C22.6467 48.5509 22.4107 47.1814 21.8177 45.9538L18.9077 39.9263C18.444 38.9673 18.3135 37.8811 18.5367 36.8396C18.7599 35.7982 19.3242 34.8609 20.1402 34.1763L23.0939 31.695C25.1535 29.9621 26.5275 27.5514 26.9689 24.8963C27.1735 23.6792 27.7773 22.5648 28.6852 21.7288L36.6852 14.3688L38.2239 15.4438C42.7231 18.5818 47.9377 20.5408 53.3902 21.1413L54.5764 21.2663L55.6789 23.0438C56.0955 23.7167 56.7241 24.2319 57.4656 24.5085C58.2072 24.785 59.0197 24.8071 59.7752 24.5713L63.8239 23.3088L69.9427 22.7163C70.6129 22.6505 71.2374 22.3466 71.7027 21.8597C72.1681 21.3728 72.4434 20.7352 72.4788 20.0626C72.5142 19.3901 72.3073 18.7271 71.8956 18.1941C71.4839 17.661 70.8948 17.2933 70.2352 17.1575L61.1277 15.3L50.1239 10.4375L39.4177 3.32376C38.7034 2.85057 37.8782 2.57163 37.0234 2.51443C36.1686 2.45722 35.3136 2.62371 34.5427 2.99751C32.3202 4.08126 28.1539 6.14251 25.2177 7.76751C22.3527 9.35376 16.8214 14.575 12.6839 18.6763C12.2689 19.0875 11.8889 19.525 11.5114 19.9625C11.5039 19.97 11.4989 19.9788 11.4902 19.9863C9.90342 21.8216 8.63583 23.9102 7.74016 26.165L6.82766 28.4788C6.81141 28.5238 5.20891 33.1038 3.55391 37.3863C2.17891 40.9638 2.97141 46.5025 3.57016 49.4838C3.71665 50.2101 3.93092 50.9211 4.21016 51.6075ZM15.4989 73.0875C15.5014 73.2523 15.537 73.4149 15.6034 73.5657C15.6699 73.7165 15.7659 73.8525 15.8858 73.9655C16.0058 74.0786 16.1471 74.1664 16.3016 74.2239C16.4561 74.2813 16.6205 74.3072 16.7852 74.3C17.1163 74.2902 17.43 74.1494 17.6573 73.9084C17.8847 73.6675 18.0071 73.3461 17.9977 73.015L17.9739 72.2113L29.9339 72.8238C30.4994 72.8352 31.0596 72.9356 31.5939 73.1213L34.4352 74.1863C34.5193 74.2174 34.6064 74.2396 34.6952 74.2525L37.1952 74.6138L36.8502 74.65L29.7864 73.4125C29.6573 73.3913 29.5255 73.3913 29.3964 73.4125L19.2164 74.85L13.0102 75L12.4277 65.3088C12.3853 64.5876 12.3899 63.8644 12.4414 63.1438L13.0539 54.68C13.0777 54.3467 13.0706 54.012 13.0327 53.68L12.7827 51.4675C12.7274 50.9917 12.7939 50.5096 12.9758 50.0665C13.1576 49.6234 13.449 49.2337 13.8227 48.9339C14.1963 48.6341 14.6398 48.4341 15.1119 48.3525C15.5839 48.2709 16.0689 48.3105 16.5214 48.4675L17.3552 48.7563C17.9699 48.9704 18.4923 49.3892 18.8352 49.9425C19.1322 50.4246 19.3131 50.9693 19.3634 51.5333C19.4137 52.0974 19.3322 52.6654 19.1252 53.1925L16.6089 59.585C15.7743 61.7049 15.33 63.9582 15.2977 66.2363L15.4989 73.0875ZM29.9239 62.4275C29.7846 62.5125 29.6632 62.6237 29.5664 62.755L28.7202 63.9088L28.1027 63.555C27.9523 63.4692 27.7858 63.4156 27.6137 63.3975C27.4415 63.3795 27.2675 63.3973 27.1027 63.45C26.4052 63.6725 24.1489 64.1513 22.9914 63.4375C22.4152 62.9901 21.9565 62.4092 21.6546 61.7451C21.3528 61.0809 21.217 60.3533 21.2589 59.625L21.2377 59.0188C21.2128 58.6601 21.2103 58.3002 21.2302 57.9413C21.2829 57.4396 21.3893 56.9451 21.5477 56.4663C24.2177 57.0438 30.1364 58.695 33.6914 59.7163C32.5093 60.7183 31.2495 61.6249 29.9239 62.4275ZM28.4239 47.0313C28.8696 47.0325 29.3043 47.1699 29.6698 47.425C30.0352 47.6801 30.3141 48.0408 30.4689 48.4588C29.0923 48.176 27.6671 48.24 26.3214 48.645C26.4467 48.1838 26.7197 47.7764 27.0984 47.485C27.4772 47.1936 27.941 47.0342 28.4189 47.0313H28.4239ZM31.7239 51.62C32.5464 52.1807 33.2436 52.9059 33.7716 53.7497C34.2996 54.5935 34.6468 55.5377 34.7914 56.5225C34.8291 56.8212 34.8245 57.1238 34.7777 57.4213C32.1752 56.6713 26.0789 54.945 22.7139 54.1713C22.8764 53.9438 23.0327 53.7125 23.2139 53.4975C25.2239 51.1788 28.7914 49.7925 31.7189 51.625L31.7239 51.62ZM26.4264 9.95501C29.3127 8.35751 33.4364 6.31751 35.6364 5.25001C36.0154 5.06561 36.4359 4.98337 36.8564 5.01143C37.2769 5.03949 37.6828 5.17688 38.0339 5.41001L48.8264 12.5838C48.8861 12.6228 48.9488 12.657 49.0139 12.6863L60.2489 17.65C60.3293 17.6858 60.413 17.7134 60.4989 17.7325L69.7489 19.6175C69.7962 19.6272 69.8405 19.6476 69.8787 19.6772C69.9168 19.7068 69.9476 19.7447 69.9687 19.788C69.9898 19.8314 70.0007 19.879 70.0006 19.9273C70.0004 19.9755 69.9891 20.0231 69.9677 20.0663C69.9439 20.1138 69.9085 20.1545 69.8648 20.1846C69.8211 20.2148 69.7705 20.2334 69.7177 20.2388L63.4677 20.8438C63.3828 20.8518 63.2991 20.8686 63.2177 20.8938L59.0464 22.1938C58.8199 22.2648 58.5761 22.2584 58.3536 22.1756C58.1311 22.0927 57.9426 21.9382 57.8177 21.7363L56.3952 19.4413C56.2952 19.2801 56.1598 19.1437 55.9993 19.0426C55.8389 18.9414 55.6575 18.8782 55.4689 18.8575L53.6777 18.6613C48.6444 18.1059 43.8309 16.297 39.6777 13.4L35.8627 10.7425C35.7282 10.6466 35.5761 10.5783 35.4151 10.5415C35.2541 10.5047 35.0874 10.5002 34.9246 10.5282C34.7619 10.5562 34.6063 10.6162 34.4668 10.7047C34.3274 10.7932 34.2069 10.9084 34.1122 11.0438C34.0176 11.1791 33.9507 11.3319 33.9155 11.4932C33.8802 11.6546 33.8773 11.8213 33.9068 11.9838C33.9364 12.1463 33.9979 12.3013 34.0877 12.4399C34.1775 12.5785 34.2939 12.6979 34.4302 12.7913L34.5977 12.9075L26.9989 19.8925C26.67 20.1952 26.3673 20.5251 26.0939 20.8788L14.9989 19.9025C20.4027 14.58 24.4564 11.0463 26.4264 9.95501ZM5.88641 38.285C7.55641 33.96 9.17141 29.35 9.17016 29.3513L10.0664 27.0838C10.759 25.3353 11.7049 23.6982 12.8739 22.225L24.8152 23.2763C24.6804 23.6725 24.5771 24.0788 24.5064 24.4913C24.1611 26.5597 23.0894 28.4372 21.4839 29.7863L18.5314 32.2663C17.2904 33.3086 16.4323 34.7349 16.0927 36.3196C15.7531 37.9043 15.9515 39.5569 16.6564 41.0163L19.5639 47.0425C19.5864 47.0888 19.6002 47.1388 19.6214 47.1863C19.1809 46.8492 18.6904 46.5831 18.1677 46.3975L17.3327 46.1075C16.4811 45.8129 15.5688 45.7389 14.6809 45.8925C13.793 46.0461 12.9585 46.4222 12.2554 46.9858C11.5522 47.5493 11.0034 48.2819 10.6602 49.115C10.317 49.9482 10.1905 50.8547 10.2927 51.75L10.5489 53.9625C10.5689 54.138 10.5727 54.315 10.5602 54.4913L10.5064 55.2288C8.70547 54.196 7.30347 52.5884 6.52516 50.6638C6.30672 50.1226 6.13933 49.5623 6.02516 48.99C5.67891 47.2863 4.65766 41.4713 5.88641 38.285Z" fill="#141615"/>
<path d="M58.75 40C55.0416 40 51.4165 41.0997 48.3331 43.1599C45.2496 45.2202 42.8464 48.1486 41.4273 51.5747C40.0081 55.0008 39.6368 58.7708 40.3603 62.4079C41.0838 66.0451 42.8695 69.386 45.4918 72.0082C48.114 74.6305 51.4549 76.4162 55.0921 77.1397C58.7292 77.8632 62.4992 77.4919 65.9253 76.0727C69.3514 74.6536 72.2798 72.2504 74.3401 69.1669C76.4003 66.0835 77.5 62.4584 77.5 58.75C77.4944 53.7789 75.5171 49.013 72.002 45.498C68.487 41.9829 63.7211 40.0056 58.75 40ZM58.75 43.6875C61.2929 48.3006 62.6266 53.4824 62.6266 58.75C62.6266 64.0176 61.2929 69.1994 58.75 73.8125C56.2071 69.1994 54.8735 64.0176 54.8735 58.75C54.8735 53.4824 56.2071 48.3006 58.75 43.6875ZM55.11 45.4838C53.3167 49.6767 52.3922 54.1897 52.3922 58.75C52.3922 63.3103 53.3167 67.8233 55.11 72.0162L54.86 71.8325C52.8102 70.3222 51.144 68.3514 49.9956 66.079C48.8473 63.8066 48.249 61.2961 48.249 58.75C48.249 56.2039 48.8473 53.6934 49.9956 51.421C51.144 49.1486 52.8102 47.1778 54.86 45.6675L55.11 45.4838ZM62.39 72.0162C64.1833 67.8233 65.1079 63.3103 65.1079 58.75C65.1079 54.1897 64.1833 49.6767 62.39 45.4838L62.64 45.6675C64.6898 47.1778 66.356 49.1486 67.5044 51.421C68.6527 53.6934 69.251 56.2039 69.251 58.75C69.251 61.2961 68.6527 63.8066 67.5044 66.079C66.356 68.3514 64.6898 70.3222 62.64 71.8325L62.39 72.0162ZM42.5 58.75C42.5045 55.2764 43.62 51.8954 45.6835 49.1012C47.747 46.307 50.6502 44.2462 53.9688 43.22L53.3788 43.655C51.0137 45.3976 49.0912 47.6716 47.7662 50.2936C46.4413 52.9156 45.751 55.8123 45.751 58.75C45.751 61.6877 46.4413 64.5844 47.7662 67.2064C49.0912 69.8284 51.0137 72.1024 53.3788 73.845L53.9688 74.28C50.6502 73.2538 47.747 71.193 45.6835 68.3988C43.62 65.6046 42.5045 62.2236 42.5 58.75ZM63.5313 74.28L64.1213 73.845C66.4863 72.1024 68.4089 69.8284 69.7338 67.2064C71.0588 64.5844 71.7491 61.6877 71.7491 58.75C71.7491 55.8123 71.0588 52.9156 69.7338 50.2936C68.4089 47.6716 66.4863 45.3976 64.1213 43.655L63.5313 43.22C66.8517 44.2427 69.7568 46.3027 71.8205 49.0978C73.8842 51.8928 74.9978 55.2757 74.9978 58.75C74.9978 62.2243 73.8842 65.6072 71.8205 68.4022C69.7568 71.1972 66.8517 73.2573 63.5313 74.28Z" fill="#141615"/>
</svg>
