<svg width="18" height="18" viewBox="0 0 18 18" fill="none" xmlns="http://www.w3.org/2000/svg">
<path d="M8.9575 17.9175C7.7475 17.9175 6.575 17.68 5.47 17.2125C4.4025 16.7625 3.445 16.115 2.6225 15.2925C1.8 14.47 1.155 13.5125 0.7025 12.445C0.235 11.3425 0 10.17 0 8.96C0 7.75 0.2375 6.5775 0.705 5.4725C1.155 4.405 1.8025 3.4475 2.625 2.625C3.4475 1.8025 4.405 1.1575 5.4725 0.705C6.5775 0.2375 7.75 0 8.96 0C10.17 0 11.3425 0.2375 12.4475 0.705C13.515 1.155 14.4725 1.8025 15.295 2.625C16.1175 3.4475 16.7625 4.405 17.215 5.4725C17.6825 6.5775 17.92 7.75 17.92 8.96C17.92 10.17 17.6825 11.3425 17.215 12.4475C16.765 13.515 16.1175 14.4725 15.295 15.295C14.4725 16.1175 13.515 16.7625 12.4475 17.215C11.34 17.6825 10.1675 17.9175 8.9575 17.9175ZM8.9575 1.2525C4.7075 1.2525 1.25 4.71 1.25 8.96C1.25 13.21 4.7075 16.6675 8.9575 16.6675C13.2075 16.6675 16.665 13.21 16.665 8.96C16.665 4.71 13.2075 1.2525 8.9575 1.2525Z" fill="#EFE1C1"/>
<path d="M7.70781 11.6673C7.54781 11.6673 7.38781 11.6073 7.26531 11.4848L5.59781 9.81728C5.35281 9.57228 5.35281 9.17728 5.59781 8.93228C5.84281 8.68728 6.23781 8.68728 6.48281 8.93228L7.70781 10.1573L11.4328 6.43229C11.6778 6.18729 12.0728 6.18729 12.3178 6.43229C12.5628 6.67729 12.5628 7.07228 12.3178 7.31728L8.15031 11.4848C8.02781 11.6073 7.86781 11.6673 7.70781 11.6673Z" fill="#141615"/>
</svg>
