<svg width="38" height="24" viewBox="0 0 38 24" fill="none" xmlns="http://www.w3.org/2000/svg">
<g clip-path="url(#clip0_112_968)">
<path d="M35 0H3C1.3 0 0 1.3 0 3V21C0 22.7 1.4 24 3 24H35C36.7 24 38 22.7 38 21V3C38 1.3 36.6 0 35 0Z" fill="white"/>
<g clip-path="url(#clip1_112_968)">
<path d="M11.2034 4.00018H17.5812C18.4715 4.00018 19.0252 4.72585 18.8176 5.61909L15.8482 18.3677C15.6387 19.2578 14.7473 19.9841 13.8564 19.9841H7.47912C6.59007 19.9841 6.0351 19.2578 6.24279 18.3677L9.21338 5.61909C9.42107 4.72585 10.312 4.00018 11.2034 4.00018Z" fill="#E21836"/>
<path d="M17.0506 4.00018H24.385C25.2751 4.00018 24.8737 4.72585 24.6643 5.61909L21.6955 18.3677C21.4872 19.2578 21.5521 19.9841 20.6601 19.9841H13.3258C12.4338 19.9841 11.8817 19.2578 12.0913 18.3677L15.06 5.61909C15.2708 4.72585 16.1599 4.00018 17.0506 4.00018Z" fill="#00447C"/>
<path d="M24.0933 4.00018H30.4711C31.3627 4.00018 31.9164 4.72585 31.707 5.61909L28.7381 18.3677C28.5286 19.2578 27.6366 19.9841 26.7452 19.9841H20.3703C19.4783 19.9841 18.925 19.2578 19.134 18.3677L22.1033 5.61909C22.311 4.72585 23.2013 4.00018 24.0933 4.00018Z" fill="#007B84"/>
<path d="M12.8692 8.08577C12.2133 8.09246 12.0196 8.08577 11.9577 8.07116C11.934 8.18418 11.4914 10.2258 11.4901 10.2275C11.3948 10.6405 11.3255 10.935 11.09 11.1251C10.9563 11.2356 10.8002 11.2889 10.6193 11.2889C10.3284 11.2889 10.159 11.1445 10.1305 10.8706L10.1251 10.7765C10.1251 10.7765 10.2137 10.2233 10.2137 10.2202C10.2137 10.2202 10.6782 8.35968 10.7614 8.11375C10.7657 8.09976 10.7669 8.09246 10.768 8.08577C9.86391 8.0937 9.70364 8.08577 9.6926 8.07116C9.68654 8.09121 9.66415 8.20656 9.66415 8.20656L9.18986 10.3035L9.14913 10.4813L9.07031 11.063C9.07031 11.2356 9.1042 11.3764 9.17167 11.4955C9.38775 11.8731 10.0041 11.9297 10.3528 11.9297C10.8021 11.9297 11.2235 11.8343 11.5083 11.66C12.0027 11.3679 12.132 10.9113 12.2473 10.5056L12.3008 10.2974C12.3008 10.2974 12.7793 8.36513 12.8606 8.11375C12.8637 8.09976 12.865 8.09246 12.8692 8.08577ZM14.4972 9.64458C14.3819 9.64458 14.1711 9.67257 13.9817 9.76537C13.913 9.80066 13.848 9.84139 13.7795 9.88196L13.8413 9.65857L13.8075 9.62095C13.4059 9.70226 13.3161 9.71314 12.9451 9.76537L12.914 9.78605C12.871 10.1431 12.8327 10.4116 12.6731 11.1135C12.6123 11.3722 12.5492 11.6333 12.4859 11.8914L12.503 11.9242C12.8831 11.9041 12.9985 11.9041 13.3288 11.9096L13.3555 11.8805C13.3975 11.6655 13.403 11.6151 13.4959 11.1797C13.5396 10.9733 13.6307 10.5196 13.6756 10.3581C13.7582 10.3199 13.8396 10.2823 13.9174 10.2823C14.1025 10.2823 14.08 10.4438 14.0728 10.5081C14.0649 10.6162 13.9974 10.9691 13.9282 11.272L13.8821 11.4676C13.8499 11.612 13.8146 11.7524 13.7824 11.8956L13.7964 11.9242C14.1711 11.9041 14.2853 11.9041 14.6052 11.9096L14.6429 11.8805C14.7007 11.5447 14.7176 11.4549 14.8202 10.966L14.8719 10.7413C14.9721 10.3017 15.0225 10.0788 14.9466 9.8972C14.8664 9.69371 14.674 9.64458 14.4972 9.64458ZM16.3159 10.1049C16.1168 10.1431 15.9898 10.1686 15.8635 10.1851C15.7384 10.2051 15.6164 10.2233 15.4239 10.2501L15.4087 10.2639L15.3947 10.2749C15.3746 10.4183 15.3606 10.5422 15.3341 10.6878C15.3115 10.8385 15.2768 11.0096 15.2204 11.2555C15.1767 11.4438 15.1542 11.5094 15.1293 11.5756C15.1051 11.6419 15.0783 11.7062 15.0292 11.8914L15.0407 11.9085L15.0503 11.9242C15.2302 11.9156 15.3479 11.9095 15.4688 11.9085C15.5896 11.9041 15.7148 11.9085 15.9085 11.9095L15.9254 11.8957L15.9436 11.8805C15.9716 11.7135 15.9758 11.6686 15.9929 11.5871C16.0098 11.4998 16.039 11.3788 16.1107 11.0558C16.1446 10.9041 16.1824 10.7528 16.2175 10.598C16.254 10.4438 16.2923 10.2919 16.3287 10.1402L16.3232 10.1218L16.3159 10.1049ZM16.3201 9.48426C16.1392 9.37746 15.8216 9.41135 15.6079 9.55888C15.3947 9.70345 15.3705 9.90866 15.5508 10.0169C15.7286 10.1207 16.0475 10.0898 16.2594 9.94099C16.472 9.79331 16.4986 9.58997 16.3201 9.48426ZM17.4145 11.9576C17.7806 11.9576 18.1558 11.8567 18.4383 11.5573C18.6556 11.3145 18.7553 10.9532 18.7898 10.8045C18.9022 10.3114 18.8147 10.0811 18.7048 9.94091C18.5378 9.72716 18.2427 9.65861 17.9366 9.65861C17.7526 9.65861 17.3142 9.67679 16.9717 9.99252C16.7258 10.2203 16.6122 10.5293 16.5436 10.8256C16.4744 11.1275 16.3948 11.671 16.8946 11.8732C17.0488 11.9394 17.2711 11.9576 17.4145 11.9576ZM17.3859 10.8481C17.4703 10.4747 17.5699 10.1613 17.8243 10.1613C18.0235 10.1613 18.038 10.3945 17.9494 10.7692C17.9335 10.8523 17.8608 11.1615 17.7624 11.2932C17.6937 11.3904 17.6124 11.4493 17.5225 11.4493C17.4958 11.4493 17.3367 11.4493 17.3343 11.2132C17.333 11.0966 17.3568 10.9775 17.3859 10.8481ZM19.705 11.9096L19.7336 11.8805C19.7741 11.6655 19.7808 11.615 19.8707 11.1797C19.9156 10.9733 20.0086 10.5197 20.0522 10.3582C20.1349 10.3198 20.215 10.2822 20.2952 10.2822C20.4791 10.2822 20.4567 10.4437 20.4494 10.508C20.4427 10.6162 20.3753 10.969 20.3049 11.2719L20.2612 11.4675C20.2277 11.6121 20.1914 11.7523 20.1592 11.8956L20.1732 11.9242C20.5491 11.9042 20.659 11.9042 20.9808 11.9096L21.0196 11.8805C21.0761 11.5446 21.0913 11.4547 21.197 10.966L21.2474 10.7412C21.3481 10.3016 21.3991 10.0788 21.3245 9.89724C21.2419 9.69375 21.0482 9.64463 20.874 9.64463C20.7585 9.64463 20.5466 9.67246 20.3583 9.76542C20.291 9.80071 20.2236 9.84128 20.1573 9.88201L20.215 9.65862L20.1841 9.62085C19.7827 9.7023 19.691 9.71319 19.3205 9.76542L19.2921 9.78609C19.2471 10.1432 19.2106 10.4115 19.051 11.1135C18.9902 11.3722 18.9271 11.6334 18.8639 11.8914L18.8809 11.9242C19.2616 11.9042 19.3752 11.9042 19.705 11.9096ZM22.4667 11.9241C22.4903 11.8088 22.6307 11.1251 22.6319 11.1251C22.6319 11.1251 22.7515 10.6235 22.7588 10.6053C22.7588 10.6053 22.7964 10.553 22.834 10.5324H22.8894C23.4115 10.5324 24.0012 10.5324 24.4634 10.1924C24.7778 9.95919 24.9928 9.61486 25.0888 9.19638C25.1136 9.09377 25.132 8.97174 25.132 8.84971C25.132 8.68944 25.0998 8.53087 25.0068 8.40697C24.7712 8.07725 24.3018 8.07119 23.7601 8.0687C23.7584 8.0687 23.493 8.07119 23.493 8.07119C22.7995 8.07974 22.5214 8.07725 22.4072 8.06326C22.3975 8.11379 22.3793 8.20364 22.3793 8.20364C22.3793 8.20364 22.1309 9.35494 22.1309 9.35681C22.1309 9.35681 21.5364 11.8046 21.5085 11.9199C22.114 11.9126 22.3622 11.9126 22.4667 11.9241ZM22.927 9.87898C22.927 9.87898 23.1911 8.73001 23.1899 8.73436L23.1984 8.67545L23.2021 8.63052L23.3077 8.6414C23.3077 8.6414 23.8524 8.68819 23.8652 8.68944C24.0802 8.7726 24.1688 8.98698 24.1069 9.2668C24.0505 9.52252 23.8846 9.73751 23.6715 9.84136C23.496 9.92935 23.281 9.93665 23.0594 9.93665H22.9161L22.927 9.87898ZM24.5715 10.8694C24.5017 11.167 24.4214 11.7104 24.9187 11.9041C25.0773 11.9716 25.2194 11.9917 25.3638 11.9844C25.5163 11.9761 25.6576 11.8996 25.7885 11.7896C25.7767 11.8348 25.7649 11.88 25.7531 11.9254L25.7756 11.9545C26.1333 11.9394 26.2443 11.9394 26.6319 11.9424L26.667 11.9156C26.7236 11.583 26.7769 11.2599 26.924 10.6235C26.9956 10.3187 27.0671 10.0168 27.1407 9.71315L27.1292 9.67973C26.729 9.75388 26.6221 9.76974 26.2372 9.82431L26.2079 9.84809C26.204 9.87903 26.2 9.90872 26.1963 9.93841C26.1364 9.84172 26.0497 9.75917 25.9158 9.70771C25.7447 9.6404 25.3427 9.72715 24.9971 10.0418C24.7543 10.2664 24.6377 10.5742 24.5715 10.8694ZM25.4118 10.8876C25.4975 10.5209 25.5959 10.2106 25.8509 10.2106C26.0121 10.2106 26.0969 10.3594 26.0797 10.6131C26.066 10.6764 26.0512 10.743 26.0337 10.8184C26.0082 10.9274 25.9805 11.0355 25.9536 11.1437C25.9263 11.2176 25.8944 11.2874 25.8594 11.3339C25.7938 11.4269 25.6377 11.4846 25.5479 11.4846C25.5224 11.4846 25.3651 11.4846 25.3596 11.2526C25.3584 11.1371 25.3822 11.0182 25.4118 10.8876ZM29.8004 9.67676L29.7695 9.64147C29.3735 9.72169 29.3019 9.73444 28.9381 9.78356L28.9114 9.8103C28.9101 9.81465 28.909 9.82134 28.9072 9.8274L28.9059 9.82134C28.6351 10.4461 28.6431 10.3113 28.4226 10.8032C28.4214 10.7808 28.4214 10.7668 28.4201 10.743L28.365 9.67676L28.3303 9.64147C27.9155 9.72169 27.9057 9.73444 27.5227 9.78356L27.4928 9.8103C27.4887 9.82305 27.4887 9.83704 27.4862 9.85227L27.4887 9.85771C27.5365 10.1024 27.525 10.0478 27.5731 10.434C27.5954 10.6235 27.6253 10.8141 27.6477 11.0012C27.6855 11.3145 27.7066 11.4687 27.7528 11.9467C27.4941 12.3736 27.4328 12.5351 27.1838 12.9098L27.1855 12.9135L27.0102 13.1908C26.9901 13.2201 26.9719 13.2401 26.9464 13.2487C26.9184 13.2625 26.8821 13.265 26.8315 13.265H26.7344L26.59 13.7453L27.0854 13.7539C27.3763 13.7526 27.5591 13.6166 27.6575 13.4338L27.969 12.9H27.964L27.9968 12.8623C28.2064 12.4112 29.8004 9.67676 29.8004 9.67676ZM24.5714 15.9855H24.3613L25.1392 13.4126H25.3972L25.4791 13.1475L25.4871 13.4423C25.4774 13.6245 25.6208 13.786 25.9973 13.7592H26.4327L26.5826 13.2638H26.4187C26.3245 13.2638 26.2808 13.24 26.2863 13.189L26.2783 12.8892H25.472V12.8907C25.2113 12.8962 24.4328 12.9157 24.2751 12.9577C24.0844 13.0068 23.8834 13.1514 23.8834 13.1514L23.9624 12.8861H23.2081L23.0509 13.4126L22.2626 16.0249H22.1097L21.9596 16.5167H23.462L23.4116 16.6807H24.1519L24.201 16.5167H24.4087L24.5714 15.9855ZM23.9551 13.9354C23.8343 13.9688 23.6095 14.0702 23.6095 14.0702L23.8094 13.4126H24.4087L24.2641 13.8917C24.2641 13.8917 24.079 13.9026 23.9551 13.9354ZM23.9666 14.8748C23.9666 14.8748 23.7783 14.8984 23.6544 14.9264C23.5324 14.9634 23.3036 15.08 23.3036 15.08L23.51 14.3957H24.1124L23.9666 14.8748ZM23.6308 15.9916H23.0296L23.2039 15.4141H23.8032L23.6308 15.9916ZM25.0785 14.3957H25.945L25.8205 14.7989H24.9425L24.8106 15.2398H25.5789L24.9972 16.0589C24.9564 16.1191 24.9199 16.1404 24.8793 16.1573C24.8386 16.178 24.7851 16.2022 24.7233 16.2022H24.5101L24.3637 16.6851H24.9212C25.2109 16.6851 25.3821 16.5532 25.5085 16.3802L25.9074 15.8343L25.993 16.3886C26.0112 16.4925 26.0858 16.5532 26.1363 16.5769C26.1922 16.6049 26.2498 16.6529 26.3313 16.66C26.4187 16.6638 26.4818 16.6667 26.5237 16.6667H26.7977L26.9621 16.1264H26.8541C26.7921 16.1264 26.6853 16.1159 26.6671 16.0965C26.6489 16.0729 26.6489 16.0365 26.6391 15.9812L26.5522 15.4256H26.1964L26.3524 15.2398H27.2287L27.3635 14.7989H26.5522L26.6786 14.3957H27.4874L27.6374 13.8984H25.226L25.0785 14.3957ZM17.7599 16.1039L17.9622 15.4311H18.7934L18.9453 14.9306H18.1133L18.2403 14.5165H19.0533L19.204 14.032H17.1697L17.0221 14.5165H17.4843L17.361 14.9306H16.8976L16.744 15.4396H17.206L16.9365 16.3297C16.9001 16.4476 16.9536 16.4925 16.9875 16.5472C17.0221 16.6005 17.0573 16.6358 17.1362 16.6559C17.2177 16.6741 17.2735 16.685 17.3494 16.685H18.2865L18.4534 16.1306L18.038 16.1877C17.9578 16.1877 17.7357 16.178 17.7599 16.1039ZM17.8553 12.883L17.6446 13.2637C17.5995 13.3469 17.559 13.3985 17.5224 13.4223C17.4903 13.4424 17.4265 13.4507 17.3342 13.4507H17.2243L17.0774 13.9378H17.4424C17.6179 13.9378 17.7527 13.8734 17.817 13.8413C17.8862 13.8043 17.9044 13.8254 17.9579 13.7738L18.0811 13.667H19.2209L19.3722 13.1599H18.5379L18.6835 12.883H17.8553ZM19.538 16.1136C19.5185 16.0857 19.5325 16.0364 19.5622 15.9338L19.8738 14.9027H20.982C21.1435 14.9003 21.2601 14.8985 21.336 14.893C21.4174 14.8845 21.506 14.8554 21.6026 14.8032C21.7022 14.7484 21.7532 14.6908 21.7963 14.6245C21.8443 14.5585 21.9214 14.4139 21.9876 14.191L22.3792 12.8861L21.2292 12.8928C21.2292 12.8928 20.875 12.945 20.7191 13.0027C20.5618 13.067 20.337 13.2467 20.337 13.2467L20.4409 12.889H19.7304L18.7358 16.1876C18.7005 16.3157 18.6769 16.4087 18.6715 16.4645C18.6696 16.5247 18.7473 16.5842 18.7977 16.6291C18.8572 16.6741 18.9452 16.6668 19.0296 16.6741C19.1184 16.6807 19.2446 16.6849 19.4189 16.6849H19.9649L20.1324 16.1191L19.6437 16.1653C19.5915 16.1653 19.5537 16.1373 19.538 16.1136ZM20.0748 14.2062H21.2388L21.1648 14.4382C21.1544 14.4436 21.1295 14.4266 21.0111 14.4406H20.0031L20.0748 14.2062ZM20.3079 13.4283H21.4818L21.3974 13.7077C21.3974 13.7077 20.8441 13.7022 20.7555 13.7185C20.3656 13.786 20.1379 13.9943 20.1379 13.9943L20.3079 13.4283ZM21.1909 15.2149C21.1812 15.2495 21.166 15.2707 21.1447 15.2865C21.1211 15.3018 21.0828 15.3072 21.0258 15.3072H20.8599L20.8697 15.0247H20.1798L20.1518 16.4056C20.1507 16.5053 20.1604 16.563 20.2333 16.6091C20.3062 16.6668 20.5308 16.6741 20.8332 16.6741H21.2655L21.4216 16.1572L21.0452 16.1779L20.9201 16.1852C20.903 16.1779 20.8866 16.1712 20.8685 16.153C20.8526 16.1373 20.8259 16.147 20.8302 16.0473L20.8332 15.6933L21.2279 15.677C21.441 15.677 21.5321 15.6077 21.6098 15.5416C21.684 15.4783 21.7082 15.4056 21.7362 15.3072L21.8024 14.9938H21.26L21.1909 15.2149Z" fill="#FEFEFE"/>
</g>
</g>
<defs>
<clipPath id="clip0_112_968">
<rect width="38" height="24" fill="white"/>
</clipPath>
<clipPath id="clip1_112_968">
<rect width="25.6" height="16" fill="white" transform="translate(6.19922 4)"/>
</clipPath>
</defs>
</svg>
