<svg width="36" height="28" viewBox="0 0 36 28" fill="none" xmlns="http://www.w3.org/2000/svg">
<path d="M3.166 25.642C1.106 23.454 0 21 0 17.022C0 10.022 4.914 3.748 12.06 0.645996L13.846 3.402C7.176 7.01 5.872 11.692 5.352 14.644C6.426 14.088 7.832 13.894 9.21 14.022C12.818 14.356 15.662 17.318 15.662 21C15.662 22.8565 14.9245 24.637 13.6117 25.9497C12.299 27.2625 10.5185 28 8.662 28C7.6353 27.9911 6.62062 27.7781 5.67706 27.3733C4.73349 26.9684 3.8799 26.3799 3.166 25.642ZM23.166 25.642C21.106 23.454 20 21 20 17.022C20 10.022 24.914 3.748 32.06 0.645996L33.846 3.402C27.176 7.01 25.872 11.692 25.352 14.644C26.426 14.088 27.832 13.894 29.21 14.022C32.818 14.356 35.662 17.318 35.662 21C35.662 22.8565 34.9245 24.637 33.6117 25.9497C32.299 27.2625 30.5185 28 28.662 28C27.6353 27.9911 26.6206 27.7781 25.6771 27.3733C24.7335 26.9684 23.8799 26.3799 23.166 25.642Z" fill="black"/>
</svg>
