<svg width="80" height="80" viewBox="0 0 80 80" fill="none" xmlns="http://www.w3.org/2000/svg">
<path d="M15.7975 50.7184C17.0944 51.9528 18.9225 52.6716 20.735 52.6716C26.4537 52.7184 30.0162 46.0622 26.6569 41.3278C23.0319 36.0778 14.735 37.9059 13.6256 44.2028C13.1881 46.5778 14.0319 49.0622 15.7975 50.7184ZM15.4694 44.5153C15.985 41.6091 18.7662 39.6716 21.6725 40.1872C24.5475 40.6403 26.61 43.6559 25.9694 46.4997C25.9069 46.4684 25.8287 46.4684 25.7506 46.4841L23.5006 47.1872C23.4225 47.2184 23.36 47.2653 23.3131 47.3434L22.1256 49.5622C22.0475 49.7028 22.11 49.9059 22.2662 49.9841L22.9069 50.3278C21.86 50.7966 20.61 50.9372 19.4381 50.6247L19.7819 50.0934C19.86 49.9841 19.8444 49.8278 19.7506 49.7341L18.11 47.7653C18.0631 47.7028 17.985 47.6716 17.9069 47.6559L15.9069 47.4216C15.86 47.4216 15.8287 47.4216 15.7819 47.4372C15.3912 46.4997 15.2975 45.4997 15.4694 44.5153Z" fill="#141615"/>
<path d="M18.735 45.7344C18.7819 45.8594 18.9225 45.9219 19.0475 45.9219L21.9694 45.625C22.11 45.6094 22.2194 45.5156 22.2506 45.3906L22.7975 42.6719C22.8287 42.5469 22.7662 42.4219 22.6725 42.3437C22.6256 42.3125 21.7975 41.8594 20.2194 41C20.11 40.9375 19.9694 40.9531 19.8756 41.0312L17.7037 42.8594C17.5944 42.9531 17.5631 43.0937 17.6256 43.2187L18.735 45.7344Z" fill="#141615"/>
<path d="M68.1558 10.953C67.7808 10.6092 67.2964 10.3748 66.7964 10.2967C64.8121 9.82797 63.1089 10.0311 61.8746 10.8748C61.0933 11.4217 60.8746 12.0311 60.8277 12.453C60.7652 13.1405 61.1246 13.703 61.3121 14.0155C61.6558 14.5623 61.8277 14.9373 62.1558 15.4686C62.0308 15.8748 61.9683 16.2811 61.8746 16.6873C59.6558 16.5311 57.4527 16.6092 55.3121 15.8123C54.5152 15.5155 53.7964 15.1561 52.8902 15.0311C52.0621 14.9217 51.2183 14.8592 50.3902 14.828C50.8746 14.0311 51.0777 13.078 51.1558 12.1561C51.2496 11.3905 51.2964 10.5936 51.2652 9.81235C51.0464 4.51547 47.0777 2.35922 41.7496 4.48422C39.4839 5.17172 39.0777 7.10922 39.0933 8.5936C39.1089 10.6717 39.6558 12.7186 40.4058 14.6405C37.6246 14.0311 36.4683 14.9061 34.6871 16.6092C32.8433 18.1561 30.5464 19.2967 28.6714 20.8592C27.4996 21.7967 26.4527 22.7186 25.2808 23.7498C25.1089 23.7967 24.9214 23.7967 24.7496 23.7967C23.5464 23.828 22.4058 24.2186 21.4214 24.9061C19.1871 26.453 20.0621 28.6092 21.1871 29.953C22.0621 31.2186 23.3746 31.4373 24.5777 30.4842C24.6871 30.4061 24.8433 30.2967 24.9058 30.2655C24.9683 30.2811 25.0308 30.3436 25.0933 30.3905C26.2183 31.3123 27.2964 30.703 27.7496 29.6092C28.1402 28.7498 29.5152 28.0936 31.4996 27.5623C33.1871 27.1405 34.7964 26.4686 36.2964 25.578C36.1714 28.3123 35.5933 30.9686 34.5933 33.5311C34.5152 33.7342 34.5152 33.953 34.5777 34.1561C33.3433 36.1717 33.2027 39.6405 33.9371 42.5311C33.7964 45.1248 33.9839 50.1717 34.7652 53.1248C34.8433 53.453 35.0933 53.6873 35.3902 53.7811C35.5152 54.2186 35.6714 54.6561 35.8121 55.078C34.2339 54.8123 32.6246 54.9842 31.1402 55.578C30.3433 55.8905 29.6089 56.3436 28.8589 56.6561C27.4371 57.2186 25.8277 57.2655 24.3902 56.7655C24.2496 56.7186 24.2183 56.6717 24.0933 56.5311C23.0777 55.2186 20.3433 55.4061 19.4214 56.703C18.2027 56.3436 17.5621 57.953 18.7183 58.4686C18.5933 59.2967 18.7496 60.2186 18.6558 61.0155C18.4839 62.2186 17.6871 63.4217 17.3746 64.6405C16.5308 64.578 16.0621 65.6561 16.6714 66.2498C16.7808 66.3592 16.9058 66.4686 17.0621 66.5311C17.0308 67.0467 17.0464 67.578 17.0933 68.0936C16.9996 68.1405 16.9214 68.2342 16.8433 68.3123C16.2496 68.8905 16.7027 69.953 17.5308 69.9061C18.0308 70.9842 19.4371 71.0936 20.3121 70.4998C20.9058 70.078 21.3121 69.3748 21.7027 68.7655C21.9839 68.1248 22.1871 67.828 22.4683 67.4061C22.8277 66.8748 23.1558 66.2811 23.6246 65.6561C24.2808 64.7342 24.6558 64.203 24.7964 63.6405C28.8589 64.0311 32.9683 64.3123 37.0308 64.4842C38.5464 64.5467 40.1246 64.578 41.5621 64.2342C40.1089 65.453 39.8746 67.6092 40.8277 68.9842C40.6402 69.1717 40.5464 69.4373 40.5621 69.7186C40.5621 70.6405 41.7808 70.9998 42.2808 70.2342C42.9371 70.578 43.5777 70.7498 44.2339 70.9842C45.6714 71.4998 47.0777 72.2967 48.5464 72.8592C48.1871 74.0936 49.8589 74.703 50.3277 73.5155C50.7339 73.6248 51.1714 73.7186 51.6089 73.7342C52.0464 74.703 53.4058 74.3436 53.4683 73.3436C55.4996 72.0936 54.7964 70.4686 53.6402 69.3905C52.7027 68.4842 51.8121 67.5311 50.9683 66.5467C50.6714 66.2186 50.4058 65.8592 50.1714 65.4686C49.7339 64.6873 49.8433 63.9061 49.9683 62.8905C50.1402 61.578 50.3433 60.2967 50.8277 59.1405C51.1089 58.4373 51.5152 57.7655 51.9371 57.0623C54.0308 53.6561 55.6089 49.9686 56.6089 46.1092C56.7496 45.6873 56.7808 45.2342 56.7027 44.7967C56.6089 44.4217 56.4214 44.0623 56.1558 43.7655C54.4527 41.5936 52.4214 39.7186 50.0933 38.2186C49.9996 37.8905 49.6871 37.703 49.4214 37.5155C50.3121 33.1561 51.0308 29.1092 54.5621 26.328C55.4058 25.5623 56.2808 24.7655 56.9839 23.7811C59.7808 24.2811 62.9214 24.3436 65.5152 23.2655C66.0152 23.0936 66.4683 22.8123 66.8589 22.453C67.9683 21.3748 67.8589 19.2967 67.8589 17.8436C67.8433 16.4998 67.8121 15.2967 68.3277 14.1405C68.8589 13.0936 68.9996 11.7655 68.1558 10.953ZM47.2183 10.4998C47.4214 11.0311 47.5308 11.578 48.1402 11.7186C48.6714 11.8436 49.0308 11.453 49.3746 11.1092C49.3121 11.9373 49.2652 12.7655 48.9527 13.5467C48.3121 14.9217 46.2027 16.7342 44.4214 16.6561C43.2027 16.5311 42.4683 15.078 42.1871 14.0155C41.7027 12.8123 41.3433 11.578 41.1402 10.3123C41.4527 9.56235 42.2183 8.81235 42.9527 8.95297C43.5621 9.10922 44.0777 9.45297 44.8433 9.42172C45.5152 9.4061 45.9839 9.07797 46.5152 8.93735C46.7652 9.2186 47.0777 10.0936 47.2183 10.4998ZM47.6246 17.5467C47.4058 18.453 47.0777 19.2186 46.6871 19.7655C46.6246 19.8748 46.5308 19.9686 46.4214 20.0467C45.8277 19.9217 45.3589 19.1405 44.9683 18.4998C45.8589 18.4217 46.7496 18.0936 47.6246 17.5467ZM42.3433 6.26547C46.0152 4.87485 48.5621 5.35922 49.2964 8.8436C49.0933 8.92172 48.9058 9.0311 48.7339 9.17172C48.0464 7.32797 47.1089 6.54672 45.3277 7.35922C45.1089 7.45297 44.9058 7.5311 44.7808 7.5311C44.6089 7.5311 44.3902 7.45297 44.1402 7.35922C43.1402 6.9061 42.0152 6.95297 41.0933 7.56235C41.2339 6.79672 41.7027 6.48422 42.3433 6.26547ZM31.0464 25.7342C29.5308 26.1248 26.8433 27.0155 26.0621 28.7655C25.0308 28.0155 23.9839 28.5155 23.4683 28.9373C23.1089 29.203 23.0777 29.1873 22.9996 29.1717C22.9214 29.1405 22.7339 28.9061 22.6558 28.7967C22.2339 28.2498 21.7496 27.5467 21.9058 27.0623C21.9527 26.9217 22.0777 26.703 22.4839 26.4217C23.1558 25.953 23.9371 25.6873 24.7496 25.6561C25.5152 25.703 26.2964 25.4686 26.8121 24.8905C28.1246 23.6717 29.4371 22.5936 30.8589 21.5311C31.0308 22.1717 31.3433 22.7498 31.6871 23.2967C32.0464 23.8905 32.4214 24.5311 32.9058 25.1248C32.2964 25.3748 31.6714 25.578 31.0464 25.7342ZM48.0308 38.7967C45.4058 40.3436 42.8902 42.9686 41.0152 45.9998C39.7339 46.1561 37.9058 45.578 37.0777 44.7498C36.2027 43.9217 35.7027 42.2186 35.5308 40.8748C35.1402 38.3436 35.4214 36.3123 36.3433 34.8592C36.4527 34.703 36.5464 34.5467 36.7027 34.4373C36.9371 34.3123 37.4371 34.4061 37.6871 34.453C41.3746 35.1405 44.9371 36.6405 48.0308 38.7967ZM36.3589 51.6405C36.0777 50.1092 35.8902 48.0467 35.8121 46.1248C36.9214 47.203 38.8589 47.9061 40.5621 47.9061C40.9996 47.9061 41.4214 47.8592 41.8121 47.7655C42.2183 47.6873 42.4214 47.3123 42.6089 46.9842C42.9058 47.1092 43.2183 47.2342 43.5152 47.3592C43.5933 48.2186 43.7339 49.078 43.9527 49.9217C41.3433 50.1561 38.8746 50.9061 36.3589 51.6405ZM46.0308 48.7811C45.9214 48.953 45.8277 49.1405 45.7339 49.328C45.6402 48.9217 45.5621 48.5155 45.4996 48.1092C45.7496 48.1873 46.0152 48.2655 46.2808 48.3436C46.1871 48.4842 46.1089 48.6248 46.0308 48.7811ZM24.9683 58.8592C26.4996 59.1405 28.0933 58.9842 29.5464 58.4061C30.3433 58.0936 31.0777 57.6405 31.8433 57.328C32.7964 56.953 33.8121 56.7811 34.8121 56.8436C34.4996 58.1717 34.2964 59.8436 34.7027 61.4998C34.7652 61.7811 34.8121 62.1873 34.8746 62.4998C31.5308 62.328 28.1714 62.078 24.8433 61.7655C24.7652 60.7811 24.6402 59.7342 24.9683 58.8592ZM22.9527 61.6717C22.9839 62.2342 23.0621 62.6873 22.9527 63.203C22.8746 63.453 22.3746 64.1561 22.0621 64.578C21.5933 65.203 21.2339 65.828 20.8746 66.3905C20.5933 66.828 20.3277 67.203 19.9996 67.9217C19.7964 68.203 19.4527 68.7655 19.2339 68.953C19.2027 68.9686 19.1714 68.9842 19.1402 68.9998C18.6558 67.203 18.9214 65.3436 19.7183 63.6873C20.0464 62.9373 20.3746 62.1561 20.4839 61.2811C20.5464 60.7811 20.5308 60.3123 20.5152 59.8592C20.4371 58.4373 20.6089 57.203 22.3746 57.6092C22.4996 57.6405 22.5152 57.6561 22.6402 57.7967C22.7652 57.9373 22.9214 58.1092 23.1558 58.2655C22.7808 59.4373 22.8746 60.6561 22.9527 61.6717ZM37.1089 62.6092L36.8433 62.5936C36.6714 62.1873 36.6402 61.4842 36.5308 61.0467C36.2652 59.9842 36.3121 58.7498 36.6558 57.2342C36.7808 57.2811 36.9214 57.328 37.0464 57.3905C37.4058 57.5467 37.8121 57.4686 38.0933 57.1873C38.3589 56.9061 38.4371 56.4998 38.2808 56.1405C37.8746 55.2342 37.5152 54.2967 37.2183 53.328C38.8277 52.8436 40.4527 52.4373 42.0777 52.0936C42.7808 51.9373 43.5152 51.7967 44.2339 51.7811C44.2183 52.2811 44.2183 52.8748 44.2964 53.2967C43.6558 56.0311 43.3121 58.9998 42.7496 61.7655C41.2183 62.703 39.2027 62.703 37.1089 62.6092ZM52.3433 70.7342C52.7027 71.078 52.8277 71.3123 52.8746 71.4217C52.7652 71.5467 52.5152 71.7342 52.4058 71.7811C51.4527 71.9998 50.5152 71.6092 49.4214 71.1717C47.8746 70.5936 46.4371 69.7655 44.8589 69.203C44.1871 68.9686 43.3902 68.7655 42.8746 68.3905C42.2027 67.9061 42.0152 67.4217 42.2027 66.5623C42.2808 66.1717 42.6871 65.578 43.0933 65.5467C43.9683 66.4217 45.3277 66.578 46.4996 66.453C47.2496 66.4061 48.0933 66.3592 48.5308 66.6561C48.6089 66.7186 48.7027 66.7498 48.7964 66.7811C49.8277 68.2186 51.0933 69.4842 52.3433 70.7342ZM50.6558 55.5936C50.1089 56.5155 49.5308 57.3905 49.1089 58.4061C48.5464 59.7655 48.3277 61.1717 48.1246 62.6092C48.0464 63.1561 47.9527 63.8436 48.0152 64.5623C47.2652 64.4842 46.5933 64.5623 45.8902 64.5936C45.1089 64.6092 44.4371 64.4061 44.3121 64.0311C44.2496 63.6717 44.4214 63.0936 44.4839 62.703L45.0308 59.703C45.6246 56.5311 45.8433 53.3123 47.2652 50.4217C48.7964 51.453 50.8589 51.7967 52.7027 51.6092C52.0933 52.9998 51.4058 54.3123 50.6558 55.5936ZM54.7183 44.9373C54.7808 45.0155 54.8433 45.0936 54.8902 45.1873C54.9058 45.328 54.8746 45.4686 54.8277 45.5936C54.4683 46.953 54.0464 48.2811 53.5621 49.578C51.7808 50.078 49.4839 49.7498 48.2027 48.8123C48.4058 48.453 48.7652 48.1561 48.8121 47.7342C48.8746 47.2186 48.4371 46.7342 47.9371 46.7186C46.8746 46.6561 46.0777 46.3592 45.1714 45.9998C44.6871 45.8123 44.2183 45.6248 43.7027 45.4061C45.4371 43.0467 47.4058 41.2655 49.5464 40.1092C51.5152 41.4373 53.2496 43.0623 54.7183 44.9373ZM53.3277 24.9373C49.6558 27.8748 48.6558 31.9373 47.7652 36.3905C44.7808 34.5467 41.4527 33.2498 38.0152 32.6092C37.7496 32.5623 37.3589 32.4842 36.9371 32.4998C37.7964 29.7967 38.2183 26.9842 38.1871 24.1248C38.6246 23.2498 37.5777 22.3748 36.7808 22.953C36.1089 23.4686 35.4058 23.9217 34.6714 24.3123C34.1402 23.7498 33.7027 23.0311 33.2808 22.328C32.9058 21.7342 32.5933 21.0936 32.5464 20.3905C33.8746 19.5311 35.2652 18.6405 36.4214 17.5467C36.9058 17.0936 37.3746 16.6717 37.8902 16.4686C38.7339 16.1405 40.0308 16.328 41.6089 16.9998C41.8746 17.3123 42.1714 17.5936 42.4996 17.8436C43.3121 19.453 44.4214 21.8592 46.4058 21.9061C48.5464 21.8905 49.4371 18.2967 49.6714 16.6717C50.6402 16.6717 51.6246 16.7342 52.5933 16.8592C53.2339 16.953 53.9527 17.2967 54.6089 17.5467C56.0621 18.0936 57.5777 18.2967 58.9527 18.3905C59.3433 19.6092 59.4214 20.9373 58.9058 22.1248C58.1402 22.0467 57.3902 21.9373 56.6402 21.7811C56.1246 21.6873 55.6246 22.0155 55.5464 22.5311C54.9683 23.4373 54.1871 24.1717 53.3277 24.9373ZM66.8589 12.7498C66.7652 13.1561 66.5308 13.578 66.3902 14.0155C65.7183 16.0623 66.2027 18.1873 65.9214 20.2186C65.8277 20.953 65.5152 21.2811 64.9058 21.4842C63.6558 21.9842 62.3589 22.2342 60.8902 22.2498C61.2496 21.0467 61.2808 19.7498 60.9527 18.5311C61.4527 18.5623 61.9527 18.578 62.4527 18.6248C63.8121 18.6873 63.6246 16.5936 64.0308 15.7655C64.1714 15.4686 64.1558 15.1092 63.9683 14.8436C63.7339 14.4842 63.5777 14.2186 63.4214 13.9217C63.2808 13.6248 62.8277 12.9686 62.7027 12.6405C63.6089 11.703 65.3121 11.8748 66.4058 12.1248C66.5621 12.1561 66.7339 12.203 66.8589 12.2967C66.8902 12.3592 66.9058 12.5311 66.8589 12.7498Z" fill="#141615"/>
</svg>
