<svg width="80" height="80" viewBox="0 0 80 80" fill="none" xmlns="http://www.w3.org/2000/svg">
<path d="M73.6005 53.175C72.1471 53.3681 70.6688 53.2314 69.2755 52.775C68.0941 52.3783 67.0174 51.7203 66.1255 50.85C65.2532 49.946 64.1221 49.3346 62.888 49.1C62.7923 49.0938 62.6962 49.0938 62.6005 49.1L61.4505 47.3625C62.1073 47.508 62.7777 47.5834 63.4505 47.5875C65.231 47.622 66.984 47.1438 68.5004 46.21C70.0168 45.2761 71.2328 43.926 72.0034 42.3204C72.7739 40.7149 73.0667 38.9216 72.8467 37.1544C72.6267 35.3871 71.9032 33.7204 70.7625 32.3528C69.6217 30.9852 68.1119 29.9744 66.4128 29.4408C64.7137 28.9073 62.897 28.8735 61.1792 29.3435C59.4615 29.8135 57.9151 30.7675 56.7243 32.0917C55.5335 33.416 54.7486 35.0546 54.463 36.8125L47.988 27.0125C47.9321 26.927 47.9023 26.8271 47.9023 26.725C47.9023 26.6229 47.9321 26.523 47.988 26.4375C48.0257 26.3563 48.0856 26.2873 48.1608 26.2387C48.236 26.19 48.3234 26.1636 48.413 26.1625H59.263C60.7349 26.1625 62.1466 25.5778 63.1874 24.5369C64.2283 23.4961 64.813 22.0845 64.813 20.6125C64.813 19.1405 64.2283 17.7289 63.1874 16.6881C62.1466 15.6472 60.7349 15.0625 59.263 15.0625H37.7505C36.9786 15.0635 36.2187 15.253 35.5368 15.6147C34.855 15.9763 34.2718 16.4991 33.838 17.1375C33.3906 17.7981 33.1122 18.5584 33.0272 19.3517C32.9422 20.1451 33.0532 20.9471 33.3505 21.6875L39.3505 36.7625C39.548 37.2423 39.5803 37.7742 39.4422 38.2743C39.3042 38.7745 39.0037 39.2145 38.588 39.525L25.3005 49.525C24.9222 49.4879 24.5412 49.4879 24.163 49.525C23.2358 49.6418 22.3492 49.9759 21.5755 50.5C20.8018 50.9808 19.9909 51.3988 19.1505 51.75C17.1125 52.582 14.9576 53.0922 12.763 53.2625C12.4333 53.2911 12.1284 53.4493 11.9152 53.7024C11.702 53.9554 11.5978 54.2827 11.6255 54.6125C11.6381 54.7768 11.6831 54.9371 11.7579 55.0839C11.8327 55.2308 11.9358 55.3615 12.0612 55.4684C12.1867 55.5752 12.3321 55.6563 12.489 55.7067C12.6459 55.7572 12.8112 55.7762 12.9755 55.7625C15.4231 55.5616 17.8258 54.9883 20.1005 54.0625C21.0474 53.681 21.9627 53.2254 22.838 52.7C23.3177 52.3525 23.876 52.1292 24.463 52.05C25.9505 51.8625 26.863 52.575 28.1255 53.55C29.481 54.7739 31.1605 55.5811 32.963 55.875C34.0232 55.9511 35.0874 55.801 36.0852 55.4347C37.083 55.0683 37.9915 54.4941 38.7505 53.75C39.9708 52.6005 41.5528 51.9111 43.2255 51.8C45.0732 51.8237 46.8496 52.5165 48.2255 53.75C49.6928 55.0204 51.538 55.7717 53.4755 55.8875C53.8439 55.888 54.2118 55.8587 54.5755 55.8C56.4918 55.4373 58.243 54.4741 59.5755 53.05C60.7505 51.975 61.413 51.425 62.4755 51.5875C63.2342 51.7698 63.919 52.1798 64.438 52.7625C65.5854 53.8472 66.9544 54.6702 68.4505 55.175C70.1944 55.7445 72.0431 55.9196 73.863 55.6875C74.0321 55.6737 74.1967 55.6257 74.3466 55.5463C74.4966 55.4669 74.6288 55.3578 74.7352 55.2256C74.8416 55.0935 74.92 54.941 74.9656 54.7776C75.0112 54.6142 75.0231 54.4432 75.0005 54.275C74.9819 54.1104 74.9308 53.9511 74.8502 53.8064C74.7695 53.6617 74.6609 53.5344 74.5306 53.4321C74.4004 53.3297 74.251 53.2543 74.0914 53.2102C73.9317 53.166 73.7648 53.1541 73.6005 53.175ZM63.4505 31.5C64.7998 31.4652 66.1289 31.8335 67.2679 32.5579C68.4069 33.2822 69.304 34.3297 69.8447 35.5665C70.3854 36.8033 70.545 38.1732 70.3032 39.5011C70.0614 40.8291 69.4291 42.0548 68.4872 43.0216C67.5453 43.9885 66.3365 44.6525 65.0154 44.9289C63.6942 45.2053 62.3205 45.0815 61.0701 44.5733C59.8196 44.0651 58.749 43.1957 57.9952 42.076C57.2413 40.9563 56.8384 39.6373 56.838 38.2875C56.8264 37.4076 56.9883 36.5341 57.3144 35.7168C57.6404 34.8995 58.1243 34.1544 58.7383 33.5241C59.3524 32.8938 60.0846 32.3906 60.8931 32.0433C61.7016 31.696 62.5706 31.5114 63.4505 31.5ZM57.9255 51.25C56.9662 52.3266 55.6869 53.0671 54.2755 53.3625C52.4255 53.65 51.238 52.8125 49.738 51.75C47.9153 50.1852 45.5902 49.3288 43.188 49.3375C40.9859 49.4719 38.8957 50.3538 37.263 51.8375C35.938 52.8625 34.9755 53.6125 33.263 53.4C31.9096 53.1558 30.6553 52.5265 29.6505 51.5875C29.1788 51.2064 28.6863 50.8517 28.1755 50.525L40.088 41.6C40.94 40.9575 41.557 40.0526 41.8439 39.0248C42.1308 37.997 42.0716 36.9034 41.6755 35.9125L35.6755 20.8375C35.527 20.4783 35.4709 20.0875 35.5124 19.701C35.5539 19.3145 35.6916 18.9445 35.913 18.625C36.0942 18.2932 36.3592 18.0148 36.6817 17.8174C37.0041 17.62 37.3726 17.5105 37.7505 17.5H59.238C60.0469 17.5 60.8227 17.8213 61.3947 18.3933C61.9666 18.9653 62.288 19.7411 62.288 20.55C62.288 21.3589 61.9666 22.1347 61.3947 22.7067C60.8227 23.2787 60.0469 23.6 59.238 23.6H48.388C47.846 23.6017 47.3145 23.7501 46.8501 24.0297C46.3857 24.3092 46.0057 24.7093 45.7505 25.1875C45.4912 25.6757 45.3683 26.2247 45.3947 26.7768C45.4211 27.329 45.5958 27.8638 45.9005 28.325L60.0005 49.6125C59.2436 50.0702 58.5466 50.6202 57.9255 51.25Z" fill="#141615"/>
<path d="M68.2142 62.2876C66.7605 62.4688 65.2849 62.3323 63.8892 61.8876C62.7135 61.497 61.6381 60.8526 60.7392 60.0001C59.8732 59.0784 58.7416 58.4493 57.5017 58.2001C55.2142 57.8501 53.7517 59.1501 52.5017 60.2876C51.5353 61.3643 50.2535 62.1081 48.8392 62.4126C46.9892 62.6876 45.8142 61.8501 44.3142 60.8001C42.4881 59.2395 40.1662 58.3799 37.7642 58.3751C35.5607 58.5035 33.4686 59.3863 31.8392 60.8751C30.5142 61.9001 29.5392 62.6376 27.8392 62.4251C26.4857 62.181 25.2314 61.5517 24.2267 60.6126C23.5122 59.9021 22.654 59.3527 21.7097 59.0013C20.7654 58.6499 19.7568 58.5046 18.7517 58.5751C17.8244 58.692 16.9379 59.026 16.1642 59.5501C15.3934 60.036 14.582 60.4542 13.7392 60.8001C11.707 61.6167 9.56082 62.1143 7.37665 62.2751C7.04513 62.3017 6.73773 62.4588 6.52206 62.712C6.30639 62.9651 6.20013 63.2936 6.22665 63.6251C6.25317 63.9567 6.41031 64.2641 6.66348 64.4797C6.91665 64.6954 7.24513 64.8017 7.57665 64.7751C10.0291 64.5788 12.4365 64.0054 14.7142 63.0751C15.6781 62.6959 16.6102 62.2403 17.5017 61.7126C17.977 61.3657 18.5311 61.1423 19.1142 61.0626C20.6142 60.8751 21.5267 61.5876 22.7892 62.5626C24.1398 63.7938 25.8216 64.6021 27.6267 64.8876C28.6889 64.9848 29.7596 64.8507 30.7652 64.4947C31.7707 64.1387 32.6872 63.5691 33.4517 62.8251C34.66 61.6879 36.222 60.9996 37.8767 60.8751C39.7266 60.8989 41.5044 61.5967 42.8767 62.8376C44.3536 64.1199 46.2119 64.8799 48.1642 65.0001C48.5326 65.0006 48.9004 64.9713 49.2642 64.9126C51.1792 64.5542 52.9304 63.5954 54.2642 62.1751C55.4392 61.1001 56.0892 60.5376 57.1642 60.7126C57.9232 60.887 58.6091 61.2933 59.1267 61.8751C60.2729 62.9643 61.6419 63.7917 63.1392 64.3001C64.8809 64.86 66.7243 65.0307 68.5392 64.8001C68.7033 64.7813 68.8621 64.7302 69.0066 64.65C69.151 64.5697 69.2782 64.4618 69.3809 64.3324C69.4837 64.203 69.5599 64.0546 69.6053 63.8957C69.6506 63.7368 69.6643 63.5705 69.6454 63.4064C69.6265 63.2422 69.5755 63.0834 69.4952 62.939C69.415 62.7946 69.3071 62.6673 69.1776 62.5646C69.0482 62.4619 68.8998 62.3857 68.7409 62.3403C68.5821 62.2949 68.4158 62.2813 68.2517 62.3001L68.2142 62.2876Z" fill="#141615"/>
<path d="M16.0391 26.5249H25.8891C26.2206 26.5249 26.5385 26.3932 26.7729 26.1588C27.0074 25.9244 27.1391 25.6064 27.1391 25.2749C27.1391 24.9434 27.0074 24.6254 26.7729 24.391C26.5385 24.1566 26.2206 24.0249 25.8891 24.0249H16.0391C15.7075 24.0249 15.3896 24.1566 15.1552 24.391C14.9208 24.6254 14.7891 24.9434 14.7891 25.2749C14.7891 25.6064 14.9208 25.9244 15.1552 26.1588C15.3896 26.3932 15.7075 26.5249 16.0391 26.5249Z" fill="#141615"/>
<path d="M11.1641 31.4375H20.9641C21.2956 31.4375 21.6135 31.3058 21.8479 31.0714C22.0824 30.837 22.2141 30.519 22.2141 30.1875C22.2141 29.856 22.0824 29.538 21.8479 29.3036C21.6135 29.0692 21.2956 28.9375 20.9641 28.9375H11.1641C10.8325 28.9375 10.5146 29.0692 10.2802 29.3036C10.0458 29.538 9.91406 29.856 9.91406 30.1875C9.91406 30.519 10.0458 30.837 10.2802 31.0714C10.5146 31.3058 10.8325 31.4375 11.1641 31.4375Z" fill="#141615"/>
<path d="M24.6367 30.1875C24.6367 30.519 24.7684 30.837 25.0028 31.0714C25.2373 31.3058 25.5552 31.4375 25.8867 31.4375H29.8992C30.2307 31.4375 30.5487 31.3058 30.7831 31.0714C31.0175 30.837 31.1492 30.519 31.1492 30.1875C31.1492 29.856 31.0175 29.538 30.7831 29.3036C30.5487 29.0692 30.2307 28.9375 29.8992 28.9375H25.8867C25.5552 28.9375 25.2373 29.0692 25.0028 29.3036C24.7684 29.538 24.6367 29.856 24.6367 30.1875Z" fill="#141615"/>
<path d="M23.575 36.3374C23.9065 36.3374 24.2245 36.2057 24.4589 35.9713C24.6933 35.7369 24.825 35.4189 24.825 35.0874C24.825 34.7559 24.6933 34.4379 24.4589 34.2035C24.2245 33.9691 23.9065 33.8374 23.575 33.8374H6.25C5.91848 33.8374 5.60054 33.9691 5.36612 34.2035C5.1317 34.4379 5 34.7559 5 35.0874C5 35.4189 5.1317 35.7369 5.36612 35.9713C5.60054 36.2057 5.91848 36.3374 6.25 36.3374H23.575Z" fill="#141615"/>
</svg>
