<svg width="158" height="34" viewBox="0 0 158 34" fill="none" xmlns="http://www.w3.org/2000/svg">
<path d="M140.301 10.7314C140.414 10.7805 140.527 10.8295 140.644 10.8801C142.335 11.6606 143.404 12.9712 144.112 14.6846C144.724 16.5376 144.394 18.3965 143.583 20.1252C142.683 21.8184 141.378 22.8573 139.567 23.4585C139.433 23.4975 139.3 23.5364 139.163 23.5766C139.057 23.6078 138.95 23.6391 138.841 23.6713C137.226 24.0061 135.488 23.6883 134.066 22.8684C133.739 22.6335 133.444 22.384 133.147 22.1132C133.049 22.0336 132.951 21.9539 132.85 21.8719C131.713 20.8735 131.044 19.3764 130.871 17.8857C130.734 15.6607 131.052 14.0843 132.497 12.3574C134.422 10.2651 137.69 9.50696 140.301 10.7314Z" fill="#743444"/>
<path d="M56.7621 10.6679C58.6799 11.6269 59.8954 12.9581 60.6288 14.959C61.1459 16.6033 60.8144 18.4566 60.141 19.9995C59.1159 21.8341 57.6295 23.0266 55.6086 23.6274C53.6057 24.0474 51.8105 23.6367 50.1108 22.5426C48.7027 21.5436 47.728 20.0678 47.3479 18.3665C47.1085 16.1556 47.4104 14.3234 48.7592 12.52C50.7806 10.2701 53.9503 9.57105 56.7621 10.6679Z" fill="#743444"/>
<path d="M90.5467 10.4063C97.9579 10.4063 97.9579 10.4063 99.8369 12.0411C101.331 13.6013 101.703 15.2924 101.692 17.3921C101.643 19.1217 101.13 20.4926 99.957 21.7982C97.3723 24.1587 93.7982 23.414 90.5467 23.414C90.5467 19.1215 90.5467 14.8289 90.5467 10.4063Z" fill="#743444"/>
<path d="M76.5633 10.4063C77.3682 10.4063 78.173 10.4063 79.0023 10.4063C79.5429 10.9739 79.7868 11.3561 80.1405 12.0322C80.4271 12.4915 80.7268 12.942 81.0246 13.394C81.1798 13.6347 81.3348 13.8757 81.4895 14.1168C81.8566 14.6864 82.2312 15.2506 82.6099 15.8126C83.4116 17.0093 84.2112 18.2226 84.8558 19.5117C84.8558 16.5069 84.8558 13.5021 84.8558 10.4063C85.6606 10.4063 86.4655 10.4063 87.2947 10.4063C87.2947 14.6988 87.2947 18.9914 87.2947 23.414C84.8558 23.414 84.8558 23.414 84.3007 22.9593C84.1129 22.6544 84.1129 22.6544 83.9412 22.3165C83.7988 22.0768 83.6563 21.8371 83.5137 21.5975C83.442 21.4698 83.3703 21.342 83.2964 21.2104C82.9779 20.6574 82.6256 20.1294 82.2729 19.5978C79.7267 15.7575 79.7267 15.7575 79.1649 14.6338C79.1112 17.5849 79.0576 20.5361 79.0023 23.5766C78.1974 23.5766 77.3926 23.5766 76.5633 23.5766C76.5633 19.2304 76.5633 14.8842 76.5633 10.4063Z" fill="#743444"/>
<path d="M146.805 10.5689C149.244 10.5689 149.244 10.5689 149.954 11.2739C150.153 11.5959 150.343 11.9237 150.525 12.2558C150.74 12.6122 150.955 12.9685 151.17 13.3247C151.28 13.5136 151.39 13.7025 151.5 13.8915C151.852 14.4887 152.229 15.0667 152.613 15.643C152.677 15.7384 152.74 15.8338 152.805 15.932C152.932 16.1214 153.058 16.3107 153.184 16.4999C153.48 16.9426 153.773 17.3865 154.065 17.8317C154.162 17.9797 154.26 18.1278 154.361 18.2803C154.61 18.6987 154.61 18.6987 154.935 19.5117C154.989 16.5606 155.042 13.6094 155.098 10.5689C155.849 10.5689 156.6 10.5689 157.374 10.5689C157.374 14.8078 157.374 19.0467 157.374 23.414C154.935 23.414 154.935 23.414 154.403 22.9748C154.233 22.6833 154.233 22.6833 154.08 22.3622C153.953 22.1368 153.825 21.9116 153.696 21.6864C153.634 21.5689 153.571 21.4515 153.506 21.3304C153.181 20.7435 152.801 20.1944 152.426 19.6387C152.279 19.4149 152.131 19.1909 151.984 18.9667C151.761 18.6266 151.537 18.2866 151.313 17.9469C151.091 17.61 150.869 17.2728 150.648 16.9355C150.582 16.8353 150.515 16.735 150.447 16.6316C150.384 16.5354 150.321 16.4392 150.256 16.3401C150.202 16.2575 150.147 16.175 150.091 16.0899C149.796 15.6125 149.523 15.1214 149.244 14.6338C149.191 17.5313 149.137 20.4287 149.082 23.414C148.33 23.414 147.579 23.414 146.805 23.414C146.805 19.1751 146.805 14.9362 146.805 10.5689Z" fill="#743444"/>
<path d="M106.969 10.4063C107.827 10.4063 108.686 10.4063 109.571 10.4063C110.662 13.4096 111.75 16.4135 112.782 19.4378C112.843 19.615 112.903 19.7922 112.965 19.9747C113.022 20.1422 113.079 20.3097 113.138 20.4823C113.361 21.1205 113.6 21.7522 113.844 22.3828C113.961 22.7636 113.961 22.7636 113.961 23.414C113.209 23.414 112.458 23.414 111.684 23.414C111.234 22.3269 110.888 21.3026 110.546 20.1621C108.99 20.1621 107.434 20.1621 105.831 20.1621C105.777 20.5913 105.723 21.0206 105.668 21.4629C105.551 21.8516 105.551 21.8516 105.424 22.1539C105.247 22.5826 105.132 22.9553 105.018 23.414C104.213 23.414 103.408 23.414 102.579 23.414C102.697 22.5879 102.8 22.0344 103.083 21.2837C103.155 21.0856 103.228 20.8875 103.304 20.6834C103.344 20.5746 103.384 20.4658 103.425 20.3537C103.669 19.6849 103.9 19.0118 104.133 18.3392C104.237 18.0398 104.341 17.7405 104.445 17.4411C104.604 16.9829 104.764 16.5246 104.922 16.0662C105.58 14.1695 106.256 12.2827 106.969 10.4063Z" fill="#743444"/>
<path d="M62.9052 10.4063C63.71 10.4063 64.5149 10.4063 65.3441 10.4063C65.3464 10.8098 65.3464 10.8098 65.3487 11.2215C65.3552 12.2227 65.3659 13.2239 65.3779 14.2251C65.3828 14.6578 65.3859 15.0905 65.3882 15.5233C65.3917 16.1466 65.3993 16.7696 65.4077 17.3928C65.4079 17.5853 65.4081 17.7778 65.4083 17.976C65.4281 19.1025 65.548 19.8557 66.1571 20.8125C66.7746 21.3393 67.3011 21.3664 68.0981 21.3612C68.3871 21.3631 68.3871 21.3631 68.6818 21.365C69.4174 21.2807 69.9321 21.1332 70.4414 20.5698C71.1504 19.5608 71.1541 18.6334 71.15 17.4284C71.1525 17.2318 71.1549 17.0351 71.1574 16.8325C71.1644 16.208 71.1659 15.5835 71.1671 14.959C71.1709 14.5341 71.175 14.1091 71.1795 13.6842C71.1897 12.6458 71.195 11.6074 71.1976 10.5689C71.9488 10.5689 72.7 10.5689 73.474 10.5689C73.4887 11.7732 73.5007 12.9774 73.5077 14.1818C73.5111 14.7412 73.5156 15.3005 73.5231 15.8599C73.5315 16.5045 73.5346 17.149 73.5375 17.7936C73.5425 18.0917 73.5425 18.0917 73.5477 18.3958C73.5481 20.077 73.147 21.2485 71.9979 22.4835C71.5077 22.9229 70.996 23.1808 70.3846 23.414C70.217 23.4811 70.0493 23.5482 69.8765 23.6173C68.1343 23.9545 66.559 23.8534 65.0189 22.9262C63.8558 21.9942 63.1538 20.9942 62.9052 19.5117C62.8624 18.805 62.8673 18.1006 62.8734 17.3928C62.8741 17.0925 62.8741 17.0925 62.8748 16.786C62.8766 16.1499 62.8807 15.5138 62.8849 14.8777C62.8867 14.4449 62.888 14.0122 62.8893 13.5794C62.8929 12.5217 62.8985 11.464 62.9052 10.4063Z" fill="#743444"/>
<path d="M56.9399 13.3635C58.0266 14.5007 58.4175 15.6876 58.3969 17.2341C58.2812 18.5071 57.7844 19.6241 56.8942 20.5425C55.834 21.409 54.6595 21.5742 53.3196 21.5238C52.1237 21.3766 51.3825 20.8045 50.6361 19.8788C49.7964 18.6501 49.5423 17.4082 49.7348 15.9346C50.0364 14.7896 50.5387 13.7679 51.5526 13.0993C53.444 12.0079 55.1163 12.1592 56.9399 13.3635Z" fill="white"/>
<path d="M139.976 13.0078C141.144 13.9026 141.61 14.8434 141.927 16.2597C142.091 17.6386 141.635 18.6956 140.982 19.8877C140.547 20.4219 140.075 20.7826 139.488 21.1377C139.392 21.1978 139.296 21.258 139.197 21.3199C138.271 21.6887 136.866 21.6414 135.932 21.2901C134.52 20.415 133.744 19.5247 133.31 17.8857C133.135 16.5405 133.27 15.2544 134.038 14.1149C135.55 12.2405 137.883 11.8098 139.976 13.0078Z" fill="white"/>
<path d="M38.5156 10.4063C40.9838 10.4063 43.4521 10.4063 45.9951 10.4063C45.9951 11.1038 45.9951 11.8013 45.9951 12.52C44.3317 12.52 42.6684 12.52 40.9546 12.52C40.9546 13.7005 40.9546 14.8809 40.9546 16.0972C42.3497 16.0972 43.7447 16.0972 45.1821 16.0972C45.1821 16.7947 45.1821 17.4922 45.1821 18.2109C43.7334 18.2109 42.2846 18.2109 40.792 18.2109C40.792 19.9279 40.792 21.645 40.792 23.414C40.0408 23.414 39.2896 23.414 38.5156 23.414C38.5156 19.1215 38.5156 14.8289 38.5156 10.4063Z" fill="#743444"/>
<path d="M113.473 10.4063C117.068 10.4063 120.663 10.4063 124.367 10.4063C124.367 11.1038 124.367 11.8013 124.367 12.52C122.972 12.52 121.577 12.52 120.139 12.52C120.139 16.1687 120.139 19.8174 120.139 23.5766C119.334 23.5766 118.53 23.5766 117.7 23.5766C117.7 19.9279 117.7 16.2793 117.7 12.52C116.305 12.52 114.91 12.52 113.473 12.52C113.473 11.8225 113.473 11.1249 113.473 10.4063Z" fill="#743444"/>
<path d="M92.9856 12.52C96.4286 12.52 96.4286 12.52 97.5383 13.1704C97.6893 13.2576 97.8402 13.3448 97.9957 13.4346C99.0368 14.5651 99.2779 15.6979 99.2487 17.1925C99.1826 18.5256 98.8922 19.5378 97.9042 20.4771C96.4288 21.7386 94.8942 21.4629 92.9856 21.4629C92.9856 18.5117 92.9856 15.5606 92.9856 12.52Z" fill="white"/>
<path d="M126.155 10.5689C126.907 10.5689 127.658 10.5689 128.432 10.5689C128.432 14.8078 128.432 19.0467 128.432 23.414C127.681 23.414 126.929 23.414 126.155 23.414C126.155 19.1751 126.155 14.9362 126.155 10.5689Z" fill="#743444"/>
<path d="M108.107 12.8452C108.214 12.8452 108.322 12.8452 108.432 12.8452C108.483 13.0494 108.535 13.2535 108.587 13.4638C109.07 15.3948 109.07 15.3948 109.782 17.2499C109.896 17.5605 109.896 17.5605 109.896 18.2109C108.823 18.2109 107.749 18.2109 106.644 18.2109C106.826 16.9323 106.826 16.9323 107.024 16.4084C107.066 16.2947 107.108 16.1809 107.151 16.0638C107.195 15.9474 107.239 15.8309 107.284 15.711C107.631 14.7623 107.926 13.8418 108.107 12.8452Z" fill="white"/>
<path d="M84.368 22.4384C84.529 22.4921 84.6899 22.5458 84.8558 22.601C84.9094 22.762 84.9631 22.923 85.0184 23.0888C85.7159 23.1425 86.4135 23.1961 87.1321 23.2514C87.1321 23.3051 87.1321 23.3587 87.1321 23.414C86.7631 23.4316 86.3938 23.4442 86.0244 23.4547C85.8188 23.4622 85.6132 23.4698 85.4014 23.4775C84.8558 23.414 84.8558 23.414 84.5388 23.1066C84.368 22.7636 84.368 22.7636 84.368 22.4384Z" fill="#743444"/>
<g clip-path="url(#clip0_112_351)">
<path d="M31.1952 1.10278V1.10061C26.1354 0.353387 21.0267 -0.0143653 15.912 0.000429135C10.7973 -0.0143638 5.68872 0.353389 0.628906 1.10061L0.628906 1.1257L0.629313 13.8544C0.632297 24.6342 6.88272 30.6966 15.6635 33.9197L15.913 33.9997L15.9138 34.0001L16.163 33.9197C24.944 30.6966 31.1938 24.6342 31.1971 13.8545V1.10271L31.1952 1.10278ZM15.9132 16.41L15.9099 16.4068L15.9297 16.4265L15.9132 16.41Z" fill="#2DAFE5"/>
<path d="M30.1386 2.15788V2.15585C25.4282 1.46028 20.6724 1.11793 15.911 1.13168C11.1496 1.11796 6.3939 1.46033 1.68359 2.15592V2.17931L1.68393 14.242C1.68665 24.2772 7.50545 29.921 15.6797 32.9214L15.9122 32.9959L15.9128 32.9963L16.1448 32.9215C24.3194 29.9211 30.1374 24.2772 30.1405 14.242V2.15795L30.1386 2.15788Z" fill="#7C2C3B"/>
<path d="M22.9367 27.4591C23.1618 27.6847 23.5225 27.4459 23.8922 27.0765C24.2616 26.7069 24.5002 26.3463 24.2749 26.1207L10.166 12.3668C9.94055 12.1411 9.53761 12.1788 9.26609 12.4503C8.99458 12.7218 8.95708 13.1246 9.18235 13.35L22.9367 27.4591Z" fill="#D6A93A"/>
<path d="M10.6025 12.157L11.7565 10.7997C11.7565 10.7997 11.8655 10.6545 11.6959 10.4482C11.2771 9.97779 10.8305 9.53296 10.3583 9.1161C10.2295 9.0194 10.1418 9.04293 9.99895 9.18019C9.29235 9.85756 7.49465 11.595 7.38643 11.7076C7.31651 11.7625 7.26447 11.8368 7.23691 11.9213C7.20935 12.0058 7.2075 12.0966 7.23161 12.1821C7.27528 12.4242 7.40419 12.8266 7.18163 13.2171L5.96678 15.1291C5.81461 15.3624 5.77026 15.5687 5.88507 15.6808C5.94651 15.7409 6.10085 15.8106 6.41455 15.5928C6.56468 15.4889 8.21651 14.3768 8.74287 13.9438C9.05121 13.6902 9.28652 13.4594 9.28652 13.4594L10.2834 12.4818C10.2834 12.4818 10.4932 12.2757 10.6025 12.1571" fill="#F8D742"/>
<path d="M6.42023 15.4703C6.07527 15.704 6.07622 15.7383 6.12436 15.7318C6.22844 15.7045 6.32624 15.6573 6.41236 15.5928C6.56236 15.4888 8.21426 14.3769 8.74061 13.9438C8.90741 13.8063 9.06946 13.6631 9.22649 13.5145C8.92705 13.5742 8.64439 13.6989 8.3985 13.8799C8.11661 14.1155 6.91383 15.1357 6.42023 15.4703ZM10.6002 12.1571L11.7543 10.7997C11.775 10.7655 11.787 10.7267 11.7892 10.6867C11.7915 10.6467 11.784 10.6068 11.7673 10.5705C11.7673 10.5705 11.6722 10.463 11.3396 10.8512C11.0598 11.1774 10.9276 11.3047 10.6919 11.5866C10.5056 11.8404 10.3788 12.133 10.321 12.4425C10.3871 12.3771 10.5203 12.2439 10.6002 12.1571ZM8.92004 27.4597C8.69491 27.6853 8.33429 27.4465 7.96458 27.077C7.59514 26.7075 7.35644 26.3469 7.58184 26.1213L21.6962 12.362C21.9214 12.1364 22.3244 12.174 22.596 12.4455C22.8675 12.7172 22.905 13.12 22.6797 13.3453L8.92004 27.4597Z" fill="#D6A93A"/>
<path d="M8.78474 27.324L21.9538 13.8002C22.1792 13.5748 22.1417 13.172 21.8701 12.9005C21.7404 12.767 21.5663 12.6854 21.3807 12.6712L7.58366 26.1213C7.3687 26.3364 7.5762 26.6744 7.91648 27.0259C8.255 27.3455 8.57744 27.5318 8.78474 27.324ZM21.2605 12.1516L20.1065 10.7943C20.1065 10.7943 19.9976 10.6491 20.1669 10.4429C20.5857 9.97247 21.0324 9.52762 21.5045 9.11071C21.6335 9.01408 21.7214 9.03761 21.8641 9.17486C22.5706 9.85216 24.3683 11.5896 24.4766 11.7022C24.5465 11.7571 24.5985 11.8315 24.6261 11.916C24.6536 12.0005 24.6554 12.0912 24.6312 12.1768C24.5877 12.4188 24.4586 12.8212 24.6814 13.2118L25.8962 15.1237C26.0482 15.3569 26.0927 15.5633 25.978 15.6754C25.9165 15.7355 25.7623 15.8052 25.4484 15.5874C25.2984 15.4834 23.6466 14.3714 23.1201 13.9384C22.8118 13.6848 22.5765 13.454 22.5765 13.454L21.5796 12.4763C21.5796 12.4763 21.3697 12.2703 21.2605 12.1516Z" fill="#F8D742"/>
<path d="M25.4397 15.4649C25.7846 15.6987 25.7837 15.7329 25.7355 15.7264C25.6314 15.6991 25.5337 15.6519 25.4476 15.5874C25.2976 15.4834 23.6457 14.3714 23.1193 13.9384C22.9525 13.8009 22.7905 13.6577 22.6335 13.5091C22.9329 13.5688 23.2156 13.6935 23.4614 13.8745C23.7433 14.1101 24.946 15.1303 25.4397 15.4649ZM21.2597 12.1516L20.1057 10.7943C20.085 10.7601 20.073 10.7213 20.0707 10.6813C20.0684 10.6414 20.076 10.6015 20.0926 10.5651C20.0926 10.5651 20.1877 10.4577 20.5204 10.8459C20.8 11.172 20.9325 11.2994 21.168 11.5812C21.3543 11.835 21.4811 12.1275 21.539 12.4371C21.4728 12.3717 21.3396 12.2385 21.2597 12.1516ZM23.4825 12.5451C23.4302 12.5973 23.3594 12.6266 23.2855 12.6266C23.2117 12.6266 23.1409 12.5973 23.0886 12.5451L22.4976 11.9537C22.4454 11.9015 22.416 11.8307 22.4161 11.7568C22.4161 11.683 22.4454 11.6122 22.4976 11.56C22.5499 11.5078 22.6207 11.4785 22.6945 11.4785C22.7683 11.4785 22.8392 11.5078 22.8914 11.5601L23.4825 12.1512C23.5084 12.1771 23.5289 12.2078 23.5429 12.2416C23.5569 12.2754 23.5641 12.3116 23.5641 12.3482C23.5641 12.3847 23.5569 12.421 23.5429 12.4548C23.5289 12.4886 23.5084 12.5192 23.4825 12.5451Z" fill="#D6A93A"/>
<path d="M22.5789 11.9536C22.5424 11.9171 22.5168 11.8712 22.5049 11.8209C22.493 11.7707 22.4954 11.7181 22.5117 11.6691C22.528 11.6201 22.5576 11.5766 22.5973 11.5435C22.6369 11.5104 22.685 11.489 22.7361 11.4817C22.6783 11.4733 22.6193 11.4833 22.5675 11.5103C22.5157 11.5374 22.4737 11.58 22.4475 11.6323C22.4213 11.6845 22.4122 11.7437 22.4215 11.8014C22.4309 11.859 22.4581 11.9123 22.4994 11.9536L23.0906 12.545C23.1212 12.5756 23.1586 12.5986 23.1996 12.6123C23.2407 12.6259 23.2844 12.6297 23.3272 12.6234C23.2677 12.615 23.2125 12.5875 23.17 12.545L22.5789 11.9536Z" fill="#CDA938"/>
<path d="M22.836 12.1703C22.8332 12.1731 22.8299 12.1753 22.8262 12.1769C22.8225 12.1784 22.8186 12.1791 22.8147 12.1791C22.8107 12.1791 22.8068 12.1783 22.8032 12.1768C22.7995 12.1753 22.7962 12.1731 22.7934 12.1703C22.7906 12.1675 22.7884 12.1641 22.7869 12.1605C22.7854 12.1568 22.7846 12.1529 22.7846 12.149C22.7846 12.145 22.7854 12.1411 22.7869 12.1374C22.7884 12.1338 22.7907 12.1305 22.7935 12.1277L23.0644 11.8566C23.0672 11.8538 23.0705 11.8516 23.0742 11.8501C23.0778 11.8486 23.0818 11.8478 23.0857 11.8478C23.0897 11.8478 23.0936 11.8486 23.0972 11.8501C23.1009 11.8516 23.1042 11.8538 23.107 11.8566C23.1098 11.8594 23.112 11.8627 23.1135 11.8664C23.115 11.87 23.1158 11.8739 23.1158 11.8779C23.1158 11.8818 23.1151 11.8857 23.1135 11.8894C23.112 11.893 23.1098 11.8964 23.107 11.8992L22.836 12.1703ZM22.9255 12.2604C22.9228 12.2632 22.9195 12.2654 22.9159 12.2669C22.9123 12.2684 22.9084 12.2692 22.9045 12.2692C22.9006 12.2692 22.8967 12.2684 22.8931 12.2669C22.8895 12.2654 22.8863 12.2632 22.8835 12.2604C22.8794 12.2562 22.8765 12.2509 22.8754 12.2452C22.8743 12.2394 22.8749 12.2335 22.8771 12.228C22.8794 12.2226 22.8832 12.218 22.888 12.2147C22.8929 12.2114 22.8987 12.2097 22.9045 12.2097C22.9104 12.2097 22.9162 12.2114 22.921 12.2147C22.9259 12.218 22.9297 12.2226 22.932 12.228C22.9342 12.2335 22.9348 12.2394 22.9337 12.2452C22.9325 12.2509 22.9297 12.2562 22.9256 12.2604M22.7394 12.0745C22.7353 12.0786 22.73 12.0814 22.7242 12.0826C22.7185 12.0837 22.7125 12.0831 22.7071 12.0809C22.7017 12.0786 22.6971 12.0748 22.6938 12.07C22.6906 12.0651 22.6888 12.0594 22.6888 12.0535C22.6888 12.0476 22.6906 12.0419 22.6938 12.037C22.6971 12.0322 22.7017 12.0284 22.7071 12.0261C22.7125 12.0239 22.7185 12.0233 22.7242 12.0244C22.73 12.0256 22.7353 12.0284 22.7394 12.0325C22.7449 12.0381 22.748 12.0456 22.748 12.0535C22.748 12.0613 22.7449 12.0689 22.7394 12.0745ZM22.958 11.7074L22.8651 11.6144C22.8593 11.6093 22.8518 11.6066 22.8441 11.6069C22.8364 11.6071 22.8291 11.6103 22.8237 11.6157C22.8183 11.6212 22.8151 11.6285 22.8149 11.6362C22.8146 11.6439 22.8173 11.6514 22.8224 11.6571L22.8372 11.6721C22.8398 11.6747 22.8412 11.6782 22.8413 11.6819C22.8414 11.6856 22.8402 11.6892 22.8377 11.692L22.5977 11.932C22.5925 11.9377 22.5897 11.9453 22.5899 11.953C22.59 11.9608 22.5932 11.9682 22.5987 11.9737C22.6042 11.9792 22.6116 11.9824 22.6194 11.9825C22.6271 11.9827 22.6347 11.9799 22.6404 11.9747L22.8812 11.7338C22.884 11.7318 22.8875 11.7308 22.8909 11.731C22.8944 11.7313 22.8977 11.7327 22.9002 11.7351L22.9151 11.75C22.9208 11.7555 22.9284 11.7585 22.9363 11.7584C22.9442 11.7583 22.9517 11.7551 22.9573 11.7496C22.9629 11.744 22.9661 11.7365 22.9662 11.7286C22.9663 11.7207 22.9634 11.7131 22.958 11.7074ZM23.4542 12.2076C23.4518 12.2044 23.4489 12.2016 23.4455 12.1996C23.4421 12.1975 23.4384 12.1961 23.4344 12.1955C23.4305 12.1949 23.4265 12.195 23.4227 12.196C23.4188 12.1969 23.4152 12.1986 23.412 12.2009L23.2548 12.3148C23.2517 12.3172 23.2477 12.3184 23.2438 12.3182C23.2398 12.3179 23.2361 12.3162 23.2333 12.3133C23.2308 12.3109 23.2292 12.3077 23.2286 12.3043C23.2281 12.3009 23.2286 12.2974 23.2302 12.2943L23.2623 12.2298C23.2648 12.2247 23.2659 12.219 23.2653 12.2133C23.2647 12.2076 23.2625 12.2022 23.2589 12.1977L23.2586 12.1975L23.2572 12.1959L23.2564 12.1949L23.2555 12.194L23.2539 12.1928L23.2535 12.1925C23.249 12.189 23.2436 12.1868 23.2379 12.1862C23.2323 12.1857 23.2265 12.1867 23.2214 12.1892L23.1571 12.2212C23.1541 12.2228 23.1505 12.2234 23.1471 12.2229C23.1436 12.2223 23.1405 12.2207 23.138 12.2182C23.1352 12.2154 23.1335 12.2117 23.1332 12.2077C23.1329 12.2038 23.134 12.1998 23.1364 12.1966L23.2504 12.0393C23.2551 12.0329 23.257 12.0248 23.2557 12.0169C23.2545 12.009 23.2502 12.0019 23.2437 11.9972C23.2405 11.9949 23.2369 11.9932 23.2331 11.9923C23.2292 11.9913 23.2252 11.9912 23.2213 11.9918C23.2174 11.9924 23.2136 11.9938 23.2103 11.9959C23.2069 11.998 23.204 12.0008 23.2017 12.004L22.9767 12.3144C22.9726 12.3201 22.9706 12.327 22.9711 12.334C22.9716 12.341 22.9744 12.3476 22.9793 12.3527L22.9805 12.3542L22.981 12.3544C22.9855 12.3586 22.9911 12.3613 22.9971 12.3621C23.0032 12.363 23.0093 12.3619 23.0147 12.3591L23.1251 12.3042C23.1282 12.3027 23.1318 12.3023 23.1352 12.303C23.1386 12.3037 23.1417 12.3054 23.144 12.308C23.1464 12.3105 23.1479 12.3138 23.1482 12.3172C23.1486 12.3207 23.1479 12.3242 23.1462 12.3272L23.092 12.4365C23.0893 12.4419 23.0883 12.4481 23.0891 12.4541C23.09 12.4602 23.0926 12.4658 23.0967 12.4703L23.0972 12.4707L23.0986 12.472C23.1037 12.4768 23.1103 12.4798 23.1174 12.4802C23.1244 12.4807 23.1314 12.4786 23.1371 12.4745L23.4474 12.2495C23.4506 12.2472 23.4534 12.2443 23.4554 12.2409C23.4575 12.2376 23.4589 12.2338 23.4595 12.2299C23.4601 12.226 23.4599 12.2221 23.459 12.2182C23.4581 12.2144 23.4564 12.2108 23.4541 12.2076" fill="#D6A93A"/>
<path d="M10.5599 12.754C10.4662 12.7544 10.3736 12.7736 10.2874 12.8104C10.2013 12.8471 10.1234 12.9008 10.0584 12.9683C9.80609 13.2207 9.7711 13.5953 9.98064 13.8048L15.6187 19.5822L16.5781 18.6228L10.5599 12.754ZM24.2717 26.1209L17.1592 19.1891C17.0171 19.2526 16.8912 19.3475 16.7911 19.4666C16.6909 19.5858 16.6191 19.7261 16.5811 19.8771C16.5431 20.028 16.5398 20.1856 16.5715 20.338C16.6032 20.4904 16.6691 20.6336 16.7642 20.7568L23.1258 27.2796C23.3351 27.4893 23.6703 27.2672 24.014 26.9238C24.0721 26.8657 24.1266 26.8079 24.1761 26.7509C24.3594 26.5034 24.4295 26.2791 24.2717 26.1209M22.8229 12.1573C22.8172 12.1629 22.8095 12.1661 22.8015 12.1661C22.7935 12.1661 22.7858 12.1629 22.7802 12.1572C22.7746 12.1516 22.7714 12.1439 22.7714 12.1359C22.7714 12.1279 22.7746 12.1202 22.7803 12.1146L23.0513 11.8436C23.0569 11.8379 23.0646 11.8347 23.0726 11.8347C23.0806 11.8347 23.0882 11.8378 23.0939 11.8435C23.0996 11.8491 23.1028 11.8567 23.1028 11.8647C23.1028 11.8727 23.0997 11.8804 23.094 11.8861L22.8229 12.1573ZM22.9124 12.2474C22.9096 12.2501 22.9064 12.2523 22.9028 12.2538C22.8992 12.2553 22.8953 12.2561 22.8914 12.2561C22.8875 12.2561 22.8836 12.2553 22.8801 12.2538C22.8765 12.2523 22.8732 12.2501 22.8705 12.2474C22.8663 12.2432 22.8634 12.2379 22.8623 12.2321C22.8611 12.2264 22.8617 12.2204 22.864 12.215C22.8662 12.2095 22.87 12.2049 22.8749 12.2016C22.8798 12.1983 22.8855 12.1966 22.8914 12.1966C22.8973 12.1966 22.903 12.1983 22.9079 12.2016C22.9128 12.2049 22.9166 12.2095 22.9189 12.215C22.9211 12.2204 22.9217 12.2264 22.9205 12.2321C22.9194 12.2379 22.9165 12.2432 22.9124 12.2474ZM22.7262 12.0613C22.7221 12.0655 22.7168 12.0683 22.711 12.0694C22.7053 12.0705 22.6994 12.0699 22.6939 12.0677C22.6885 12.0654 22.6839 12.0616 22.6807 12.0568C22.6774 12.0519 22.6757 12.0462 22.6757 12.0403C22.6757 12.0345 22.6774 12.0288 22.6807 12.0239C22.6839 12.019 22.6885 12.0152 22.6939 12.013C22.6994 12.0107 22.7053 12.0101 22.711 12.0112C22.7168 12.0124 22.7221 12.0152 22.7262 12.0193C22.7318 12.0249 22.7349 12.0324 22.7349 12.0403C22.7349 12.0482 22.7318 12.0558 22.7262 12.0613ZM22.9448 11.6943L22.852 11.6012C22.8463 11.5957 22.8386 11.5926 22.8306 11.5926C22.8226 11.5927 22.815 11.5958 22.8093 11.6014C22.8065 11.6042 22.8043 11.6076 22.8027 11.6112C22.8012 11.6149 22.8004 11.6188 22.8004 11.6227C22.8004 11.6267 22.8012 11.6306 22.8027 11.6343C22.8043 11.6379 22.8065 11.6412 22.8093 11.644L22.824 11.659C22.8266 11.6616 22.828 11.6651 22.8281 11.6688C22.8282 11.6725 22.827 11.6761 22.8245 11.6789L22.5845 11.9189C22.5791 11.9247 22.5761 11.9323 22.5762 11.9402C22.5763 11.948 22.5795 11.9556 22.5851 11.9611C22.5907 11.9667 22.5982 11.9699 22.6061 11.97C22.614 11.9701 22.6216 11.9671 22.6273 11.9617L22.868 11.7207C22.8709 11.7186 22.8743 11.7177 22.8778 11.7179C22.8812 11.7181 22.8845 11.7196 22.8871 11.7219L22.9021 11.7369C22.9077 11.7426 22.9154 11.7458 22.9234 11.7458C22.9314 11.7458 22.9391 11.7426 22.9448 11.7369C22.9504 11.7313 22.9536 11.7236 22.9536 11.7156C22.9536 11.7076 22.9504 11.6999 22.9448 11.6943ZM23.441 12.1945C23.4387 12.1913 23.4358 12.1886 23.4324 12.1865C23.429 12.1844 23.4252 12.183 23.4213 12.1824C23.4174 12.1818 23.4134 12.182 23.4096 12.1829C23.4057 12.1839 23.4021 12.1855 23.3989 12.1879L23.2417 12.3017C23.2388 12.3039 23.2351 12.3051 23.2314 12.305C23.2277 12.305 23.2242 12.3036 23.2213 12.3013C23.2184 12.2989 23.2165 12.2956 23.2157 12.292C23.215 12.2884 23.2154 12.2846 23.2171 12.2813L23.2492 12.2167C23.2517 12.2116 23.2527 12.2059 23.2521 12.2003C23.2515 12.1947 23.2493 12.1893 23.2459 12.1848L23.2455 12.1844L23.244 12.1828L23.2434 12.1818L23.2424 12.181L23.2408 12.1797L23.2404 12.1794C23.2359 12.1759 23.2305 12.1737 23.2249 12.1732C23.2192 12.1726 23.2135 12.1736 23.2084 12.1762L23.1441 12.2082C23.141 12.2098 23.1375 12.2103 23.134 12.2098C23.1306 12.2092 23.1274 12.2076 23.125 12.2051C23.1223 12.2023 23.1206 12.1986 23.1203 12.1947C23.12 12.1908 23.1211 12.1869 23.1234 12.1837L23.2374 12.0263C23.2421 12.0198 23.244 12.0118 23.2428 12.0039C23.2416 11.996 23.2373 11.9889 23.2309 11.9841C23.2277 11.9818 23.224 11.9801 23.2202 11.9792C23.2163 11.9783 23.2123 11.9781 23.2084 11.9787C23.2045 11.9794 23.2008 11.9808 23.1974 11.9828C23.1941 11.9849 23.1911 11.9877 23.1888 11.9909L22.9637 12.3014C22.9596 12.3071 22.9577 12.314 22.9581 12.321C22.9586 12.3279 22.9615 12.3345 22.9663 12.3396L22.9678 12.3411L22.9683 12.3413C22.9727 12.3455 22.9784 12.3482 22.9844 12.349C22.9904 12.3498 22.9965 12.3488 23.0019 12.346L23.1124 12.2911C23.1156 12.2897 23.1191 12.2893 23.1225 12.29C23.1258 12.2907 23.1289 12.2925 23.1312 12.295C23.1336 12.2976 23.135 12.3008 23.1355 12.3042C23.1359 12.3077 23.1352 12.3111 23.1335 12.3141L23.0792 12.4235C23.0765 12.429 23.0755 12.4351 23.0764 12.4411C23.0772 12.4471 23.0799 12.4527 23.084 12.4572L23.0843 12.4578L23.0857 12.4589C23.0908 12.4637 23.0974 12.4667 23.1044 12.4672C23.1115 12.4677 23.1184 12.4657 23.1241 12.4616L23.4346 12.2366C23.441 12.2319 23.4453 12.2248 23.4465 12.2169C23.4478 12.209 23.4458 12.201 23.4411 12.1945" fill="#F8D742"/>
<path d="M9.36417 11.5653C9.41634 11.6175 9.44564 11.6883 9.44564 11.7621C9.44564 11.8359 9.41634 11.9067 9.36417 11.959L8.77285 12.5501C8.72035 12.6009 8.64998 12.629 8.57692 12.6284C8.50385 12.6278 8.43395 12.5985 8.3823 12.5469C8.33064 12.4952 8.30137 12.4253 8.30079 12.3522C8.30021 12.2792 8.32837 12.2088 8.37921 12.1563L8.97039 11.5652C8.99623 11.5393 9.02692 11.5188 9.06071 11.5048C9.09449 11.4908 9.13071 11.4836 9.16728 11.4836C9.20386 11.4836 9.24007 11.4908 9.27386 11.5048C9.30764 11.5188 9.33833 11.5393 9.36417 11.5652" fill="#D6A93A"/>
<path d="M8.43181 12.2059L9.02299 11.6147C9.07092 11.5668 9.13468 11.5381 9.20231 11.5338C9.26994 11.5296 9.33679 11.5501 9.39033 11.5917C9.38319 11.5823 9.37549 11.5734 9.36728 11.565C9.31502 11.5129 9.24419 11.4836 9.17035 11.4836C9.09651 11.4836 9.02568 11.5129 8.97342 11.565L8.38224 12.1562C8.3564 12.1821 8.3359 12.2128 8.32192 12.2466C8.30795 12.2804 8.30076 12.3166 8.30078 12.3532C8.3008 12.3897 8.30802 12.4259 8.32203 12.4597C8.33604 12.4935 8.35657 12.5242 8.38244 12.55C8.39076 12.5582 8.39957 12.5659 8.40882 12.573C8.36729 12.5195 8.34671 12.4527 8.35095 12.3851C8.3552 12.3175 8.38397 12.2537 8.43188 12.2059" fill="#CDA938"/>
<path d="M8.97821 12.2534C8.981 12.2562 8.98321 12.2595 8.98471 12.2631C8.98621 12.2668 8.98698 12.2707 8.98696 12.2747C8.98695 12.2786 8.98616 12.2825 8.98463 12.2862C8.98311 12.2898 8.98088 12.2932 8.97807 12.2959C8.97527 12.2987 8.97194 12.3009 8.96828 12.3024C8.96463 12.3039 8.96071 12.3047 8.95675 12.3047C8.9528 12.3047 8.94889 12.3039 8.94524 12.3024C8.94159 12.3008 8.93828 12.2986 8.93549 12.2958L8.66451 12.0248C8.6592 12.0191 8.6563 12.0116 8.65644 12.0038C8.65657 11.996 8.65973 11.9886 8.66524 11.983C8.67074 11.9775 8.67818 11.9744 8.68597 11.9742C8.69377 11.9741 8.70132 11.9769 8.70703 11.9822L8.97821 12.2534ZM9.06833 12.1638C9.07247 12.168 9.07528 12.1733 9.07642 12.179C9.07755 12.1848 9.07696 12.1907 9.07471 12.1961C9.07247 12.2015 9.06867 12.2062 9.0638 12.2094C9.05893 12.2127 9.0532 12.2144 9.04734 12.2144C9.04149 12.2144 9.03576 12.2127 9.03089 12.2094C9.02602 12.2062 9.02222 12.2015 9.01998 12.1961C9.01773 12.1907 9.01714 12.1848 9.01827 12.179C9.01941 12.1733 9.02222 12.168 9.02636 12.1638C9.03193 12.1583 9.03948 12.1552 9.04734 12.1552C9.05521 12.1552 9.06275 12.1583 9.06833 12.1638ZM8.88226 12.35C8.88782 12.3555 8.89095 12.3631 8.89096 12.371C8.89097 12.3788 8.88785 12.3864 8.88229 12.3919C8.87673 12.3975 8.86919 12.4006 8.86133 12.4006C8.85346 12.4006 8.84592 12.3975 8.84035 12.392C8.83481 12.3864 8.83169 12.3788 8.83168 12.371C8.83167 12.3631 8.83476 12.3555 8.84028 12.3499C8.84303 12.3472 8.8463 12.345 8.8499 12.3435C8.8535 12.342 8.85737 12.3412 8.86127 12.3412C8.86517 12.3412 8.86903 12.342 8.87264 12.3435C8.87624 12.345 8.87951 12.3472 8.88226 12.3499M8.51526 12.1314L8.42236 12.2241C8.41694 12.2298 8.41396 12.2375 8.41407 12.2453C8.41417 12.2532 8.41734 12.2607 8.4229 12.2663C8.42847 12.2719 8.43599 12.2751 8.44387 12.2752C8.45174 12.2753 8.45935 12.2723 8.46508 12.2669L8.47993 12.252C8.48264 12.2495 8.48619 12.248 8.48991 12.2479C8.49362 12.2478 8.49724 12.2491 8.50007 12.2515L8.73992 12.4916C8.74558 12.4972 8.75327 12.5004 8.76128 12.5004C8.76929 12.5004 8.77698 12.4972 8.78264 12.4916C8.78831 12.4859 8.79149 12.4782 8.79149 12.4702C8.79149 12.4622 8.78831 12.4545 8.78264 12.4489L8.54177 12.2081C8.53971 12.2053 8.53869 12.2019 8.5389 12.1984C8.53911 12.1949 8.54054 12.1916 8.54293 12.1891L8.55791 12.1742C8.56358 12.1685 8.56676 12.1608 8.56677 12.1528C8.56678 12.1448 8.5636 12.1371 8.55795 12.1315C8.55229 12.1258 8.54461 12.1226 8.53661 12.1226C8.5286 12.1226 8.52092 12.1258 8.51526 12.1314ZM9.01557 11.6352C9.01236 11.6375 9.00964 11.6404 9.00755 11.6438C9.00547 11.6471 9.00408 11.6509 9.00345 11.6548C9.00282 11.6587 9.00296 11.6627 9.00388 11.6665C9.0048 11.6704 9.00647 11.674 9.00879 11.6772L9.12285 11.8343C9.1252 11.8376 9.12634 11.8415 9.12607 11.8455C9.12579 11.8494 9.12413 11.8532 9.12136 11.856C9.1189 11.8585 9.11574 11.8601 9.11232 11.8606C9.10891 11.8612 9.1054 11.8606 9.10231 11.8591L9.03775 11.8272C9.03269 11.8246 9.027 11.8236 9.02136 11.8241C9.01572 11.8247 9.01035 11.8268 9.00588 11.8303L9.0052 11.8308L9.00384 11.8321L9.00296 11.8329L9.00208 11.8338L9.00066 11.8354L9.00038 11.8358C8.99689 11.8403 8.99474 11.8457 8.99418 11.8513C8.99361 11.857 8.99466 11.8626 8.9972 11.8677L9.02914 11.9321C9.03081 11.9355 9.03132 11.9393 9.03057 11.9429C9.02983 11.9465 9.02787 11.9498 9.02503 11.9522C9.02218 11.9546 9.01861 11.956 9.01489 11.9561C9.01117 11.9562 9.00751 11.9551 9.00452 11.9529L8.8472 11.8388C8.84401 11.8364 8.84037 11.8346 8.83649 11.8336C8.83261 11.8326 8.82857 11.8324 8.8246 11.833C8.82063 11.8335 8.81682 11.8349 8.81339 11.837C8.80996 11.8391 8.80698 11.8418 8.80463 11.8451C8.80228 11.8483 8.8006 11.852 8.79969 11.8559C8.79878 11.8598 8.79866 11.8638 8.79934 11.8678C8.80003 11.8717 8.80149 11.8755 8.80365 11.8789C8.80581 11.8823 8.80863 11.8852 8.81194 11.8874L9.12224 12.1126C9.12796 12.1167 9.13495 12.1187 9.14198 12.1182C9.14901 12.1177 9.15565 12.1148 9.16076 12.1099L9.16184 12.1086L9.16252 12.108C9.16658 12.1035 9.16918 12.0979 9.16999 12.0919C9.1708 12.0859 9.16978 12.0798 9.16707 12.0744L9.11221 11.964C9.11081 11.9609 9.11044 11.9574 9.11114 11.954C9.11184 11.9506 9.11357 11.9476 9.1161 11.9452C9.11862 11.9429 9.12182 11.9414 9.12523 11.941C9.12864 11.9406 9.1321 11.9412 9.13513 11.9428L9.24451 11.9969C9.24991 11.9996 9.25603 12.0007 9.26204 11.9999C9.26806 11.9991 9.27369 11.9965 9.27821 11.9925L9.27862 11.9919L9.27997 11.9906C9.28485 11.9855 9.2878 11.9789 9.28828 11.9719C9.28876 11.9649 9.28676 11.9579 9.28262 11.9523L9.05748 11.6417C9.05278 11.6353 9.04571 11.631 9.03784 11.6297C9.02997 11.6285 9.022 11.6305 9.01557 11.6352Z" fill="#D6A93A"/>
<path d="M8.97874 12.2238C8.98169 12.2266 8.98405 12.2299 8.98569 12.2336C8.98732 12.2373 8.98819 12.2413 8.98825 12.2453C8.9883 12.2494 8.98755 12.2534 8.98602 12.2572C8.98449 12.2609 8.98222 12.2643 8.97935 12.2671C8.97648 12.27 8.97306 12.2722 8.9693 12.2737C8.96554 12.2752 8.96152 12.276 8.95748 12.2759C8.95344 12.2758 8.94945 12.2749 8.94576 12.2732C8.94208 12.2716 8.93876 12.2692 8.93602 12.2662L8.66504 11.9953C8.65938 11.9896 8.65618 11.982 8.65616 11.974C8.65615 11.966 8.6593 11.9583 8.66494 11.9527C8.67058 11.947 8.67824 11.9438 8.68623 11.9438C8.69422 11.9438 8.7019 11.9469 8.70756 11.9526L8.97874 12.2238ZM9.06886 12.1342C9.07298 12.1384 9.07578 12.1437 9.0769 12.1494C9.07801 12.1552 9.0774 12.1611 9.07514 12.1665C9.07288 12.1719 9.06906 12.1765 9.06418 12.1798C9.0593 12.183 9.05357 12.1847 9.04771 12.1847C9.04185 12.1847 9.03613 12.1829 9.03127 12.1797C9.02641 12.1764 9.02263 12.1718 9.0204 12.1664C9.01817 12.1609 9.0176 12.155 9.01875 12.1492C9.01991 12.1435 9.02274 12.1382 9.02689 12.1341C9.03248 12.1286 9.04004 12.1255 9.0479 12.1255C9.05577 12.1255 9.0633 12.1287 9.06886 12.1342ZM8.88279 12.3203C8.88692 12.3245 8.88973 12.3297 8.89087 12.3355C8.89201 12.3412 8.89141 12.3472 8.88917 12.3526C8.88692 12.358 8.88312 12.3626 8.87825 12.3659C8.87338 12.3691 8.86766 12.3709 8.8618 12.3709C8.85594 12.3709 8.85022 12.3691 8.84535 12.3659C8.84047 12.3626 8.83668 12.358 8.83443 12.3526C8.83218 12.3472 8.83159 12.3412 8.83273 12.3355C8.83386 12.3297 8.83668 12.3245 8.84081 12.3203C8.84357 12.3175 8.84685 12.3153 8.85045 12.3139C8.85406 12.3124 8.85793 12.3116 8.86183 12.3116C8.86574 12.3116 8.8696 12.3124 8.87321 12.3139C8.87682 12.3153 8.8801 12.3175 8.88285 12.3203M8.51579 12.1017L8.42289 12.1946C8.41723 12.2002 8.41406 12.2079 8.41406 12.2159C8.41407 12.2239 8.41726 12.2316 8.42292 12.2373C8.42859 12.2429 8.43627 12.2461 8.44427 12.2461C8.45228 12.2461 8.45995 12.2429 8.46561 12.2372L8.48046 12.2225C8.48315 12.2199 8.4867 12.2184 8.49041 12.2183C8.49413 12.2182 8.49775 12.2195 8.5006 12.2218L8.74045 12.4619C8.7461 12.4676 8.75376 12.4708 8.76176 12.4708C8.76976 12.4708 8.77744 12.4676 8.7831 12.462C8.78877 12.4563 8.79196 12.4487 8.79197 12.4407C8.79198 12.4327 8.78882 12.425 8.78317 12.4193L8.5423 12.1784C8.54023 12.1756 8.53921 12.1721 8.53942 12.1687C8.53963 12.1652 8.54106 12.1619 8.54346 12.1594L8.55844 12.1445C8.56408 12.1389 8.56725 12.1312 8.56725 12.1232C8.56725 12.1152 8.56408 12.1075 8.55844 12.1018C8.55565 12.099 8.55233 12.0968 8.54867 12.0952C8.54501 12.0937 8.54108 12.0929 8.53712 12.0929C8.53315 12.0929 8.52922 12.0937 8.52556 12.0952C8.5219 12.0968 8.51858 12.0989 8.51579 12.1017ZM9.0161 11.6055C9.0129 11.6078 9.01018 11.6107 9.0081 11.6141C9.00603 11.6175 9.00463 11.6212 9.004 11.6251C9.00337 11.629 9.00352 11.633 9.00443 11.6369C9.00535 11.6407 9.00701 11.6443 9.00932 11.6475L9.12338 11.8048C9.12573 11.808 9.12687 11.812 9.1266 11.8159C9.12632 11.8199 9.12466 11.8236 9.12189 11.8265C9.11942 11.8289 9.11625 11.8305 9.11283 11.831C9.10941 11.8316 9.10592 11.831 9.10284 11.8294L9.03828 11.7975C9.0332 11.7949 9.02751 11.7939 9.02187 11.7945C9.01623 11.7951 9.01087 11.7972 9.00641 11.8007L9.00573 11.8011L9.00437 11.8024L9.00349 11.8032L9.00261 11.8042L9.00119 11.8057L9.00091 11.8064C8.99745 11.8108 8.99531 11.8161 8.99475 11.8217C8.99418 11.8273 8.99522 11.833 8.99773 11.838L9.02967 11.9024C9.03124 11.9056 9.03179 11.9091 9.03124 11.9125C9.03069 11.916 9.02907 11.9192 9.02662 11.9216C9.0238 11.9244 9.02009 11.9261 9.01615 11.9264C9.01221 11.9268 9.00828 11.9257 9.00505 11.9234L8.84773 11.8092C8.84454 11.8068 8.8409 11.805 8.83702 11.804C8.83314 11.803 8.8291 11.8028 8.82513 11.8033C8.82116 11.8039 8.81735 11.8053 8.81392 11.8074C8.81049 11.8094 8.80751 11.8122 8.80516 11.8154C8.80281 11.8187 8.80113 11.8224 8.80022 11.8263C8.79931 11.8302 8.79919 11.8342 8.79987 11.8382C8.80055 11.8421 8.80202 11.8459 8.80418 11.8493C8.80634 11.8526 8.80916 11.8556 8.81247 11.8578L9.12277 12.083C9.12849 12.0871 9.13546 12.0891 9.1425 12.0886C9.14953 12.0881 9.15618 12.0852 9.16129 12.0804L9.16237 12.079L9.16305 12.0784C9.1671 12.0739 9.1697 12.0683 9.17051 12.0623C9.17132 12.0564 9.1703 12.0503 9.1676 12.0449L9.11267 11.9344C9.11124 11.9312 9.11084 11.9277 9.11152 11.9243C9.11221 11.9209 9.11395 11.9178 9.1165 11.9155C9.11904 11.9131 9.12226 11.9116 9.1257 11.9112C9.12914 11.9108 9.13263 11.9115 9.13566 11.9132L9.24504 11.9674C9.25046 11.9701 9.25659 11.9712 9.2626 11.9703C9.26862 11.9695 9.27425 11.9669 9.27874 11.9628L9.27915 11.9624L9.2805 11.9609C9.28538 11.9559 9.28833 11.9492 9.28881 11.9422C9.28929 11.9352 9.28729 11.9283 9.28315 11.9226L9.05794 11.6121C9.05563 11.609 9.05271 11.6063 9.04935 11.6042C9.04599 11.6021 9.04226 11.6007 9.03837 11.6001C9.03448 11.5995 9.0305 11.5997 9.02667 11.6006C9.02284 11.6015 9.01929 11.6032 9.0161 11.6055Z" fill="#F8D742"/>
<path d="M10.3663 8.18063C10.2391 8.19863 10.1096 8.19 9.98588 8.15528C9.86218 8.12056 9.74706 8.0605 9.6478 7.97893C9.54855 7.89735 9.46734 7.79603 9.40932 7.6814C9.3513 7.56677 9.31775 7.44133 9.31078 7.31304L9.26216 5.76503C9.50425 5.74604 9.62543 5.73709 9.86765 5.71987L9.9118 7.26808C9.90992 7.32291 9.92058 7.37745 9.94296 7.42754C9.96535 7.47763 9.99886 7.52195 10.041 7.55713C10.0831 7.5923 10.1326 7.61741 10.1859 7.63053C10.2392 7.64365 10.2947 7.64444 10.3484 7.63284C10.3841 7.6304 10.4019 7.62925 10.4377 7.62694C10.4935 7.63021 10.5495 7.62153 10.6017 7.60149C10.654 7.58146 10.7013 7.55052 10.7407 7.51074C10.7801 7.47097 10.8105 7.42326 10.83 7.3708C10.8495 7.31834 10.8576 7.26234 10.8537 7.20651L10.8164 5.6583C11.0588 5.64385 11.1802 5.63714 11.4226 5.62452L11.4555 7.17294C11.4531 7.4376 11.3471 7.69077 11.1601 7.87809C10.9731 8.0654 10.7201 8.17193 10.4554 8.17479C10.4198 8.17717 10.4019 8.17818 10.3663 8.18063ZM11.8859 5.60608C12.1673 5.59272 12.3082 5.58662 12.5898 5.57556C12.9062 6.0847 13.2204 6.59518 13.5324 7.10703L13.5393 7.10682L13.524 5.54444C13.7668 5.53766 13.8882 5.53474 14.1311 5.52979L14.1518 7.9797C13.8746 7.98533 13.7361 7.98879 13.459 7.99686C13.147 7.48655 12.8327 6.97755 12.5162 6.46987L12.5094 6.47021C12.5169 6.98983 12.5245 7.50945 12.5322 8.02907C12.2923 8.03883 12.1723 8.04405 11.9325 8.05558L11.8859 5.60608ZM14.5773 5.52281C14.8201 5.51894 14.9416 5.51745 15.1846 5.51535L15.1931 7.96539C14.953 7.96743 14.833 7.96885 14.5929 7.97271L14.5773 5.52281ZM16.4063 6.0276C16.0937 6.0259 15.9376 6.02584 15.6251 6.02699L15.6243 5.51297C16.349 5.51252 17.0735 5.51912 17.7978 5.53278L17.7932 6.04679C17.4808 6.0398 17.3246 6.03709 17.012 6.03302C17.0088 6.67841 17.0055 7.32376 17.0021 7.96905C16.7621 7.96593 16.642 7.96485 16.4019 7.96356C16.4033 7.31826 16.4047 6.67294 16.4063 6.0276ZM18.2375 5.542C18.7856 5.55845 19.3335 5.5785 19.8813 5.60215L19.8717 6.11603C19.4582 6.09677 19.2512 6.08843 18.8374 6.07432L18.8312 6.51971C19.1683 6.53124 19.3368 6.53775 19.6736 6.55273L19.6645 7.06661C19.3284 7.05176 19.1604 7.04512 18.8242 7.03372L18.8178 7.4962C19.2481 7.51085 19.4632 7.51966 19.8933 7.54001L19.8836 8.05389C19.3261 8.02938 18.7684 8.00868 18.2108 7.99177C18.2197 7.17522 18.2286 6.35863 18.2375 5.542ZM20.3424 5.62005C20.7306 5.63971 20.9246 5.65077 21.3124 5.67511C21.6501 5.68491 21.9702 5.82821 22.2024 6.07361C22.4346 6.31901 22.56 6.64648 22.5512 6.98422C22.5473 7.14677 22.5098 7.30675 22.4409 7.45403C22.372 7.60131 22.2733 7.73269 22.151 7.83985C22.0287 7.94701 21.8855 8.02761 21.7304 8.07656C21.5754 8.1255 21.4119 8.14173 21.2502 8.12421C20.8668 8.10013 20.6751 8.08908 20.2914 8.06941L20.3424 5.62005ZM21.2393 7.60897C21.6545 7.63494 21.9153 7.40703 21.9285 6.93777C21.9418 6.4719 21.6828 6.21286 21.2752 6.18743C21.1623 6.18036 21.0494 6.17353 20.9365 6.16695L20.9028 7.58863C21.0374 7.59643 21.1047 7.6005 21.2393 7.60897ZM4.18359 2.75412C4.49919 2.71424 4.65706 2.69498 4.97292 2.65796C5.1147 3.35344 5.2564 4.04896 5.39804 4.74453L5.40658 4.74351C5.56874 4.0139 5.73097 3.28427 5.89327 2.55461C6.1654 2.52545 6.3015 2.51148 6.57376 2.48436C6.73199 3.18097 6.89008 3.87753 7.04804 4.57405L7.05672 4.57317C7.20993 3.84731 7.36332 3.12147 7.51689 2.39566C7.82828 2.36799 7.98411 2.35477 8.29571 2.32988C8.03581 3.37789 7.7762 4.42604 7.51689 5.47432C7.15145 5.50674 6.96883 5.52389 6.60373 5.56004C6.47959 4.97134 6.3555 4.3826 6.23145 3.79381L6.22277 3.79469C6.09858 4.40906 5.97453 5.02344 5.85061 5.63782C5.48219 5.67749 5.29808 5.69824 4.93014 5.74157C4.6814 4.74573 4.43255 3.74991 4.18359 2.75412ZM24.0127 2.37335C24.3517 2.40258 24.5212 2.41797 24.86 2.45032C25.0839 3.11108 25.3075 3.77197 25.5309 4.433L25.5395 4.43382C25.7629 3.81899 25.9864 3.20421 26.2101 2.58947C26.545 2.62649 26.7124 2.64582 27.0471 2.68603C27.2316 3.73495 27.416 4.78388 27.6002 5.83284C27.2897 5.79351 27.1343 5.77452 26.8236 5.73804L26.5506 3.683L26.542 3.68205C26.3218 4.33205 26.1017 4.98214 25.8818 5.63232C25.6097 5.6033 25.4736 5.58926 25.2013 5.56221C24.9769 4.86618 24.7523 4.17025 24.5274 3.47441C24.524 3.47414 24.5223 3.47401 24.519 3.4736C24.4392 4.14091 24.3594 4.80818 24.2798 5.47541C23.9631 5.44726 23.8049 5.43384 23.4881 5.40848C23.6629 4.39677 23.8377 3.38501 24.0127 2.37335ZM8.59652 2.31219C9.28924 2.2602 9.98232 2.21442 10.6758 2.17487C10.6608 2.43398 10.6533 2.56356 10.6383 2.82274C10.2087 2.84742 9.77932 2.8741 9.34998 2.90276V3.46255C9.77041 3.43339 9.98063 3.42003 10.4013 3.39582V4.04173C9.9807 4.06594 9.77041 4.07923 9.34998 4.10839V4.68967C9.79935 4.65848 10.2489 4.63072 10.6986 4.6064L10.6987 5.25217C9.99747 5.29209 9.29675 5.33831 8.59652 5.39085V2.31219ZM14.2202 2.69953C13.8308 2.70624 13.636 2.71044 13.2467 2.72129V2.07545C14.1474 2.05262 15.0481 2.04107 15.9488 2.0408V2.68678C15.5594 2.6859 15.3646 2.68657 14.9751 2.68997V5.12265C14.6731 5.12523 14.5222 5.12712 14.2202 5.13228V2.69953ZM17.2027 2.04731C17.5046 2.05097 17.6556 2.05341 17.9576 2.05959V3.29105C18.3939 3.30113 18.83 3.31322 19.2661 3.32733V2.09587C19.568 2.10644 19.719 2.11228 20.0208 2.12536V5.20402C19.719 5.191 19.568 5.18504 19.2661 5.17453V3.96897C18.8299 3.95477 18.3938 3.94268 17.9576 3.93269V5.13825C17.6556 5.13214 17.5046 5.12963 17.2027 5.12597V2.04731ZM22.2793 4.68167C21.8653 4.65353 21.6582 4.64071 21.2438 4.61725L21.0586 5.25285C20.7482 5.23596 20.5931 5.22823 20.2827 5.21406C20.5941 4.20357 20.9058 3.19324 21.2178 2.18307C21.6247 2.20586 21.8282 2.21847 22.2348 2.24587C22.5717 3.29654 22.908 4.34736 23.2438 5.3983C22.9339 5.37389 22.7789 5.36236 22.4689 5.34066L22.2793 4.68167ZM21.7595 2.91693L21.4204 4.02464C21.6935 4.04057 21.8299 4.04905 22.1028 4.06709L21.7682 2.91747L21.7595 2.91693ZM12.1029 2.05816C11.5407 2.0781 10.9036 2.42428 10.8994 3.05629C10.893 4.02098 12.3418 3.76207 12.4311 4.28924C12.456 4.4351 12.2916 4.55757 12.0836 4.5573C11.7324 4.56382 11.3852 4.48185 11.074 4.31894C11.0586 4.58477 11.0459 4.72466 11.0356 4.966C11.3435 5.15836 11.7019 5.25435 12.0648 5.24166C12.6066 5.2557 13.2585 4.87995 13.2639 4.24625C13.2722 3.28895 11.8359 3.50561 11.7318 3.0078C11.7051 2.88031 11.8608 2.75479 12.0933 2.74143C12.3696 2.72622 12.6456 2.77689 12.8985 2.88926C12.914 2.58309 12.9186 2.53935 12.9359 2.24125C12.6812 2.10255 12.3923 2.03906 12.1029 2.05816ZM11.4573 27.4926L11.824 27.6528L11.3069 28.8368L11.9188 29.1041L11.7814 29.4184L10.8028 28.991L11.4573 27.4926ZM13.2679 28.1388C13.3765 28.1646 13.4788 28.2122 13.5685 28.2787C13.6582 28.3452 13.7335 28.4291 13.7899 28.5255C13.8463 28.6219 13.8826 28.7287 13.8966 28.8395C13.9106 28.9503 13.902 29.0627 13.8714 29.1701C13.811 29.3884 13.6664 29.5738 13.4694 29.6856C13.2724 29.7975 13.0391 29.8266 12.8207 29.7666C12.6023 29.7066 12.4166 29.5624 12.3044 29.3656C12.1921 29.1688 12.1626 28.9356 12.2222 28.7171C12.2507 28.6091 12.3007 28.508 12.3694 28.42C12.438 28.3319 12.5238 28.2586 12.6215 28.2046C12.7192 28.1505 12.8268 28.1168 12.9379 28.1055C13.049 28.0942 13.1612 28.1055 13.2678 28.1388M12.9172 29.4154C12.977 29.4293 13.0389 29.431 13.0994 29.4206C13.1599 29.4101 13.2177 29.3877 13.2694 29.3546C13.3211 29.3216 13.3657 29.2785 13.4005 29.228C13.4354 29.1775 13.4598 29.1205 13.4723 29.0604C13.4918 29.0034 13.4994 28.9429 13.4946 28.8828C13.4899 28.8226 13.4728 28.7641 13.4446 28.7108C13.4164 28.6575 13.3776 28.6105 13.3305 28.5728C13.2834 28.535 13.2292 28.5073 13.171 28.4914C13.1128 28.4754 13.052 28.4715 12.9923 28.4799C12.9326 28.4883 12.8752 28.5088 12.8237 28.5402C12.7722 28.5716 12.7276 28.6132 12.6928 28.6625C12.658 28.7117 12.6336 28.7676 12.6212 28.8266C12.6013 28.8847 12.5932 28.9461 12.5974 29.0074C12.6016 29.0686 12.6179 29.1284 12.6455 29.1832C12.673 29.2381 12.7113 29.2868 12.7579 29.3267C12.8046 29.3666 12.8587 29.3968 12.9172 29.4154ZM14.2545 28.4086L14.6573 28.4497L15.0304 29.2554C15.0716 29.3506 15.1077 29.4479 15.1386 29.5469L15.1431 29.5474C15.1431 29.5474 15.1427 29.3704 15.1532 29.268L15.2306 28.5081L15.6287 28.5486L15.4631 30.1753L15.0627 30.1345L14.687 29.3309C14.6458 29.2357 14.6097 29.1384 14.5789 29.0394L14.5743 29.0388C14.5743 29.0388 14.5746 29.2159 14.5642 29.3183L14.4871 30.0759L14.0889 30.0354L14.2545 28.4086ZM15.9109 28.5529L16.491 28.5217C17.0048 28.494 17.3497 28.7754 17.3774 29.2893C17.405 29.8031 17.0927 30.1268 16.5788 30.1545L15.9988 30.1857L15.9109 28.5529ZM16.5445 29.8129C16.6648 29.7991 16.7753 29.7398 16.8534 29.6473C16.9316 29.5548 16.9715 29.4359 16.9649 29.315C16.9584 29.194 16.906 29.0801 16.8183 28.9965C16.7307 28.9129 16.6145 28.866 16.4934 28.8652L16.329 28.874L16.38 29.8216L16.5445 29.8129ZM18.2318 28.2644C18.34 28.2367 18.4526 28.2312 18.563 28.2483C18.6733 28.2653 18.7791 28.3045 18.8739 28.3635C18.9687 28.4225 19.0506 28.5001 19.1146 28.5916C19.1786 28.6831 19.2234 28.7866 19.2464 28.8959C19.2715 29.0059 19.2746 29.1199 19.2555 29.2312C19.2364 29.3425 19.1955 29.4489 19.1351 29.5442C19.0746 29.6396 18.9959 29.7221 18.9035 29.7869C18.811 29.8517 18.7066 29.8975 18.5963 29.9218C18.4861 29.946 18.3721 29.9482 18.261 29.9282C18.1499 29.9082 18.0438 29.8664 17.9489 29.8052C17.854 29.744 17.7722 29.6646 17.7082 29.5716C17.6441 29.4786 17.5991 29.3739 17.5758 29.2634C17.5507 29.1546 17.5479 29.0418 17.5676 28.9319C17.5873 28.8219 17.6291 28.7171 17.6904 28.6238C17.7517 28.5304 17.8313 28.4505 17.9243 28.3887C18.0174 28.3269 18.1219 28.2847 18.2318 28.2644ZM18.5162 29.5576C18.5755 29.542 18.6312 29.5147 18.6798 29.4772C18.7285 29.4398 18.7692 29.3931 18.7995 29.3397C18.8299 29.2864 18.8493 29.2275 18.8566 29.1666C18.8639 29.1056 18.859 29.0439 18.8421 28.9848C18.8326 28.9253 18.8111 28.8683 18.7789 28.8174C18.7466 28.7665 18.7043 28.7227 18.6545 28.6888C18.6047 28.6548 18.5485 28.6314 18.4893 28.62C18.4302 28.6085 18.3693 28.6093 18.3104 28.6223C18.2515 28.6352 18.1959 28.6601 18.147 28.6953C18.0981 28.7305 18.0569 28.7753 18.026 28.8271C17.995 28.8788 17.975 28.9363 17.9671 28.996C17.9592 29.0558 17.9636 29.1165 17.98 29.1745C17.9895 29.2351 18.0109 29.2933 18.0431 29.3455C18.0754 29.3977 18.1177 29.443 18.1676 29.4787C18.2175 29.5144 18.2741 29.5397 18.3339 29.5533C18.3938 29.5669 18.4557 29.5683 18.5162 29.5576ZM19.2294 28.0448L19.6048 27.8933L20.3103 28.4321C20.3911 28.4971 20.4684 28.5663 20.5419 28.6395L20.5461 28.6378C20.5461 28.6378 20.4633 28.4814 20.4248 28.3859L20.1391 27.6778L20.5101 27.5281L21.1218 29.0441L20.7486 29.1946L20.0418 28.6589C19.9609 28.594 19.8836 28.5248 19.8102 28.4516L19.806 28.4532C19.806 28.4532 19.8888 28.6096 19.9273 28.705L20.2122 29.411L19.8412 29.5608L19.2294 28.0448Z" fill="white"/>
</g>
<defs>
<clipPath id="clip0_112_351">
<rect width="30.5682" height="34" fill="white" transform="translate(0.628906)"/>
</clipPath>
</defs>
</svg>
