<svg width="152" height="48" viewBox="0 0 152 48" fill="none" xmlns="http://www.w3.org/2000/svg">
<path d="M62.1641 19.1244C62.2897 17.7924 62.9934 16.6616 63.9232 16.0835C65.0039 16.9631 66.7127 17.6417 68.6227 17.6417C70.4573 17.6417 71.1861 17.0637 71.1861 16.1589C71.1861 15.3045 70.784 14.827 67.8939 14.0982C65.1295 13.4448 62.7169 12.3642 62.6918 9.07202C62.6918 5.93066 65.2049 3.92019 68.9745 3.92019C71.8143 3.92019 73.6991 4.85003 74.6792 5.60396C74.6038 6.78511 73.9756 8.09192 72.9201 8.69506C71.9651 8.04166 70.5326 7.41338 68.7232 7.41338C67.2154 7.41338 66.4112 7.96627 66.4112 8.74533C66.4112 9.57465 66.763 9.92648 69.7033 10.6301C72.7693 11.4092 74.8552 12.6909 74.9054 15.6312C74.9808 19.1746 72.4929 21.16 68.5724 21.16C65.2552 21.1349 63.2196 20.0291 62.1641 19.1244ZM94.3819 8.82072C93.3264 13.4951 92.1703 17.1139 90.0593 20.7328C89.4562 20.8584 88.7777 20.9087 88.1745 20.9087C87.5965 20.9087 86.9682 20.8584 86.3651 20.7328C85.7368 19.6521 85.1337 18.4207 84.6311 17.0888C84.2792 18.4458 83.8269 19.6773 83.2991 20.7328C82.696 20.8584 81.9672 20.9087 81.3892 20.9087C80.7861 20.9087 80.1326 20.8584 79.5546 20.7328C77.1169 16.9883 76.0866 13.4197 75.1316 8.82072C75.6091 8.69506 76.7651 8.54427 77.7703 8.54427C78.2227 8.54427 78.9012 8.59454 79.3285 8.61967C79.9065 12.3139 80.8614 15.8825 81.4897 17.4657C81.54 17.6165 81.5902 17.7924 81.6154 17.9935C81.6405 17.7924 81.6656 17.6165 81.741 17.4406C82.1934 16.3097 82.7714 14.4752 83.1232 12.5652C82.7965 11.3589 82.5201 10.0773 82.2436 8.84585C82.696 8.72019 83.852 8.56941 84.8573 8.56941C85.2845 8.56941 85.8122 8.61967 86.1892 8.6448C86.7421 12.339 87.5714 15.8071 88.1243 17.4909C88.1745 17.6919 88.2248 17.893 88.2499 18.1191C88.2751 17.893 88.3253 17.6919 88.4007 17.4909C89.0541 15.6563 89.808 12.3893 90.386 8.6448C90.8384 8.61967 91.4667 8.56941 91.9944 8.56941C92.874 8.54428 93.7536 8.66993 94.3819 8.82072ZM95.4625 4.74951C95.4625 3.49297 96.4929 2.48773 97.7745 2.48773C99.0311 2.48773 100.061 3.5181 100.061 4.74951C100.061 6.00606 99.0059 7.03642 97.7745 7.03642C96.518 7.03642 95.4625 5.98093 95.4625 4.74951ZM95.8395 20.7328V8.59454C96.4426 8.49402 97.096 8.44375 97.7243 8.44375C98.3274 8.44375 98.9808 8.49402 99.6342 8.59454V20.7328C99.0311 20.8333 98.3777 20.8835 97.7243 20.8835C97.1211 20.8835 96.4929 20.8333 95.8395 20.7328ZM121.523 13.093V20.7328C120.895 20.8333 120.242 20.8835 119.613 20.8835C118.985 20.8835 118.332 20.8333 117.703 20.7328V13.9474C117.703 12.4396 117 11.6605 115.567 11.6605C114.587 11.6605 113.984 12.0123 113.532 12.339C113.557 12.5903 113.582 12.8417 113.582 13.093V20.7328C112.954 20.8333 112.3 20.8835 111.672 20.8835C111.044 20.8835 110.39 20.8333 109.787 20.7328V13.9474C109.787 12.4396 109.058 11.6605 107.626 11.6605C106.771 11.6605 106.118 11.8867 105.666 12.1631V20.7328C105.037 20.8333 104.384 20.8835 103.756 20.8835C103.127 20.8835 102.499 20.8333 101.871 20.7328V10.2029C102.75 9.44899 105.012 8.19244 108.003 8.19244C109.712 8.19244 111.044 8.61967 111.973 9.34847C112.954 8.74532 114.361 8.19244 115.994 8.19244C119.689 8.19244 121.523 10.2532 121.523 13.093Z" fill="#0085B0"/>
<path d="M74.5047 39.0782C74.5047 39.6311 74.4545 40.2342 74.3288 40.7871H63.2461V24.4018H74.0775C74.2283 24.9295 74.2786 25.5578 74.2786 26.1107C74.2786 26.6635 74.2283 27.2416 74.0775 27.7944H67.0409V30.7599H73.2985C73.4241 31.3128 73.4744 31.8908 73.4744 32.4437C73.4744 32.9965 73.4241 33.5494 73.2985 34.1023H67.0409V37.3944H74.3288C74.4545 37.9473 74.5047 38.5253 74.5047 39.0782ZM88.3016 33.4489V40.8122C87.6733 40.9128 87.0199 40.963 86.3916 40.963C85.7634 40.963 85.11 40.9128 84.4817 40.8122V34.0772C84.4817 32.3431 83.5267 31.74 82.1697 31.74C81.2649 31.74 80.5613 31.9913 80.1341 32.2426V40.8122C79.5058 40.9128 78.8524 40.963 78.2241 40.963C77.5958 40.963 76.9676 40.9128 76.3393 40.8122V30.2824C77.2943 29.4279 79.4555 28.2719 82.4712 28.2719C86.4922 28.2468 88.3016 30.4583 88.3016 33.4489ZM102.249 30.006V40.0332C102.249 44.0541 99.51 45.9389 95.8911 45.9389C92.9759 45.9389 91.0157 44.8834 89.91 43.6772C90.0608 42.6971 90.8147 41.6918 91.9707 41.2646C92.8754 42.295 93.9812 42.9232 95.6649 42.9232C97.6252 42.9232 98.4293 42.0185 98.4293 40.7368V40.3096C97.8513 40.4855 97.1728 40.5861 96.3686 40.5861C92.8 40.5861 89.8597 38.5505 89.8597 34.6552C89.8597 30.5588 92.9508 28.2468 96.645 28.2468C98.9822 28.2468 100.968 29.0259 102.249 30.006ZM98.4545 37.2185V31.8154C97.9267 31.6143 97.3738 31.4887 96.7456 31.4887C95.0618 31.4887 93.7047 32.6196 93.7047 34.5295C93.7047 36.3892 94.9864 37.5452 96.7456 37.5452C97.4241 37.5201 97.9267 37.4196 98.4545 37.2185ZM104.561 40.7871V24.0499C105.139 23.9494 105.793 23.8992 106.421 23.8992C107.049 23.8992 107.728 23.9494 108.381 24.0499V40.7871C107.803 40.8876 107.125 40.9379 106.496 40.9379C105.868 40.9379 105.215 40.8876 104.561 40.7871ZM123.761 38.3243C123.661 39.6311 123.108 40.6363 122.304 41.2646C121.223 41.1138 120.293 40.6615 119.715 39.9075C118.584 40.8625 117.428 41.2395 115.92 41.2395C112.503 41.2395 110.115 39.0279 110.115 35.0824C110.115 31.1871 112.93 28.3473 117.076 28.3473C119.389 28.3473 121.223 28.8751 122.505 29.6541L122.48 36.3892C122.505 37.5201 122.831 37.9222 123.761 38.3243ZM116.649 37.9976C117.353 37.9976 118.132 37.7714 118.735 37.1934V31.8908C118.182 31.7149 117.604 31.6143 117.051 31.6143C115.267 31.6143 113.96 32.8709 113.96 34.9567C113.96 36.917 115.141 37.9976 116.649 37.9976ZM137.282 33.4489V40.8122C136.653 40.9128 136 40.963 135.372 40.963C134.743 40.963 134.09 40.9128 133.462 40.8122V34.0772C133.462 32.3431 132.507 31.74 131.175 31.74C130.27 31.74 129.567 31.9913 129.139 32.2426V40.8122C128.511 40.9128 127.858 40.963 127.229 40.963C126.601 40.963 125.973 40.9128 125.345 40.8122V30.2824C126.3 29.4279 128.461 28.2719 131.476 28.2719C135.472 28.2468 137.282 30.4583 137.282 33.4489ZM151.405 24.0248V40.0332C150.124 40.6615 148.038 41.2395 145.927 41.2395C141.504 41.2395 138.84 38.9526 138.84 34.8311C138.84 30.8353 141.856 28.3473 145.6 28.3473C146.379 28.3473 147.007 28.4227 147.56 28.5735V24.0248C148.189 23.9243 148.842 23.874 149.445 23.874C150.124 23.8489 150.777 23.8992 151.405 24.0248ZM147.61 37.7463V31.941C147.058 31.6646 146.454 31.5892 145.876 31.5892C144.067 31.5892 142.71 32.8206 142.71 34.7808C142.71 36.7159 143.992 37.9976 145.826 37.9976C146.429 37.9976 147.007 37.8971 147.61 37.7463Z" fill="#E42313"/>
<path d="M9.9927 16.1089C9.96757 16.1089 9.91731 16.1089 9.89218 16.1089C9.59061 16.1089 9.36443 15.8827 9.36443 15.5812V11.8366C9.36443 11.5853 9.54035 11.3843 9.76652 11.3089L21.8545 8.87121C22.1058 8.82095 22.3571 8.79581 22.6084 8.79581C24.8199 8.79581 26.6042 10.5801 26.6042 12.7665V17.3403C26.6042 19.5518 28.3885 21.3361 30.5749 21.3361C30.8513 21.3361 31.1278 21.311 31.3791 21.2607L50.9812 17.3403C51.3079 15.8827 51.4084 14.4 51.4084 12.9424C51.4084 11.5099 51.3079 9.97696 50.9812 8.5445L31.3791 12.4901C31.1278 12.5403 30.8513 12.5654 30.5749 12.5654C28.3634 12.5654 26.6042 10.7812 26.6042 8.56963V3.99581C26.6042 1.7843 24.8199 0 22.6084 0C22.3571 0 22.0807 0.0251317 21.8545 0.0753934L3.83563 3.7445L3.68485 3.76963C1.92569 4.17173 0.59375 5.75498 0.59375 7.63979V21.9141C0.59375 24.1257 2.37804 25.8848 4.56443 25.8848C4.76548 25.8848 4.94139 25.8597 5.11731 25.8346L5.34349 25.8094L21.8042 22.4921C22.0555 22.4419 22.3068 22.4168 22.5581 22.4168C24.7697 22.4168 26.554 24.201 26.554 26.3874V30.6597C26.554 28.4482 24.7697 26.6639 22.5581 26.6639C22.3068 26.6639 22.0304 26.689 21.8042 26.7393L1.07124 30.911C0.719404 32.4188 0.618881 33.9016 0.618881 35.4094C0.618881 36.8167 0.719404 38.2995 1.02097 39.7068L21.8042 35.5351C22.0555 35.4848 22.3068 35.4597 22.5581 35.4597C24.7697 35.4597 26.554 37.244 26.554 39.4304V44.0042C26.554 46.2157 28.3383 48 30.5246 48C30.8011 48 31.0775 47.9749 31.3288 47.9246L50.9309 44.0042C51.2576 42.5466 51.3581 41.0639 51.3581 39.6063C51.3581 38.1738 51.2576 36.6408 50.9309 35.2084L31.3288 39.1539C31.0775 39.2042 30.8011 39.2293 30.5246 39.2293C28.3131 39.2293 26.554 37.445 26.554 35.2586V30.9864C26.554 33.1979 28.3383 34.9822 30.5246 34.9822C30.8011 34.9822 31.0775 34.9571 31.3288 34.9068L46.8848 31.7906C47.2115 30.333 47.3121 28.9005 47.3121 27.4429C47.3121 25.9853 47.1864 24.4272 46.8848 22.9948L31.3288 26.111C31.0775 26.1613 30.8011 26.1864 30.5246 26.1864C28.3131 26.1864 26.554 24.4021 26.554 22.1906V17.6168C26.554 15.4052 24.7697 13.6209 22.5581 13.6209C22.3068 13.6209 22.0304 13.6461 21.8042 13.6963L9.9927 16.1089Z" fill="#92D2F4"/>
</svg>
