<svg width="62" height="64" viewBox="0 0 62 64" fill="none" xmlns="http://www.w3.org/2000/svg">
<path d="M30.337 0.000685216C30.5957 0.00125833 30.8543 0.00105107 31.1129 0.000411156C33.6503 -0.00569535 36.1824 0.0545112 38.7102 0.295855C38.8299 0.306834 38.9496 0.317786 39.0694 0.328711C39.9979 0.41438 40.9245 0.512702 41.8497 0.628498C41.9175 0.636882 41.9853 0.645256 42.0532 0.653619C42.9673 0.766646 43.8797 0.890858 44.7896 1.03401C44.8266 1.03981 44.8635 1.04562 44.9016 1.0516C46.342 1.27839 47.7724 1.54572 49.1995 1.84502C49.2403 1.85356 49.2811 1.8621 49.3231 1.8709C51.16 2.25642 52.9782 2.72284 54.7752 3.2643C54.8307 3.28079 54.8862 3.29728 54.9433 3.31427C55.2678 3.41077 55.5909 3.5107 55.9134 3.61362C56.08 3.66569 56.247 3.7153 56.4145 3.76437C56.5638 3.80872 56.7125 3.85517 56.8611 3.90204C56.9332 3.92435 57.0057 3.94583 57.0783 3.96641C57.6473 4.12844 57.6473 4.12844 57.8128 4.36966C57.8775 4.52367 57.9257 4.67436 57.9686 4.83564C58.005 4.92179 58.005 4.92179 58.0421 5.00969C58.2969 5.62783 58.507 6.2625 58.7217 6.89538C58.7705 7.03914 58.8197 7.18275 58.8691 7.32631C59.0478 7.84914 59.2016 8.37767 59.3503 8.90973C59.3862 9.03671 59.423 9.16334 59.4604 9.28989C60.0668 11.3531 60.4881 13.4564 60.8072 15.5816C60.8154 15.6366 60.8237 15.6916 60.8323 15.7483C60.8791 16.064 60.9209 16.38 60.9592 16.6967C60.9656 16.748 60.9719 16.7992 60.9784 16.852C61.1324 18.1204 61.1975 19.3933 61.2444 20.6695C61.2474 20.7509 61.2474 20.7509 61.2505 20.8341C61.281 21.7677 61.2599 22.6986 61.219 23.6316C61.2167 23.6851 61.2144 23.7387 61.212 23.7938C61.179 24.5558 61.1437 25.3157 61.0606 26.0741C61.051 26.1641 61.051 26.1641 61.0413 26.2558C60.5877 30.4428 59.5059 34.5186 57.8167 38.3763C57.7682 38.4873 57.7205 38.5986 57.673 38.71C57.4885 39.1409 57.2888 39.5622 57.0749 39.9792C57.0072 40.1115 56.9401 40.2441 56.873 40.3767C56.4377 41.2357 55.984 42.0786 55.4849 42.9027C55.4514 42.9581 55.4179 43.0134 55.3834 43.0705C54.992 43.7166 54.5958 44.3588 54.167 44.9809C54.1367 45.0251 54.1063 45.0694 54.0751 45.1149C53.7151 45.6395 53.3546 46.1619 52.9615 46.6624C52.8467 46.8088 52.7352 46.9573 52.6241 47.1067C52.235 47.6264 51.8322 48.1326 51.4104 48.6261C51.2875 48.7702 51.1684 48.917 51.0496 49.0645C50.8404 49.3217 50.6187 49.5651 50.3935 49.808C50.2892 49.921 50.1871 50.035 50.0866 50.1511C49.7133 50.5803 49.3256 50.9916 48.9209 51.391C48.809 51.5045 48.704 51.6203 48.6007 51.7415C48.4578 51.909 48.3065 52.0408 48.135 52.1787C48.0497 52.2624 47.9655 52.347 47.8816 52.4321C47.7244 52.5907 47.567 52.749 47.4096 52.9073C47.3682 52.9492 47.3268 52.991 47.2841 53.0341C47.0642 53.2548 46.8412 53.4678 46.6048 53.6708C46.5199 53.7441 46.4371 53.8191 46.355 53.8956C46.3089 53.9385 46.2627 53.9814 46.2152 54.0257C46.1448 54.0914 46.1448 54.0914 46.0731 54.1585C45.9554 54.2569 45.9554 54.2569 45.8541 54.2569C45.8541 54.2904 45.8541 54.3238 45.8541 54.3583C45.7797 54.4258 45.7018 54.4895 45.6228 54.5515C45.3851 54.7414 45.1544 54.9369 44.9258 55.1376C44.6556 55.3737 44.3803 55.6006 44.0967 55.8203C43.9076 55.9667 43.7217 56.1163 43.5372 56.2684C43.0951 56.6324 42.6383 56.9731 42.1753 57.3099C42.0534 57.3989 41.9321 57.4888 41.8111 57.579C41.2589 57.99 40.6976 58.3844 40.1263 58.7682C40.0742 58.8032 40.0222 58.8383 39.9685 58.8744C38.9829 59.5373 37.9914 60.1905 36.9686 60.795C36.8557 60.8622 36.7435 60.9307 36.6313 60.9989C36.1667 61.2806 35.6943 61.5486 35.2221 61.8172C34.9389 61.9784 34.6564 62.1404 34.3755 62.3055C34.1737 62.4235 33.9721 62.5346 33.7617 62.6364C33.4333 62.7978 33.1098 62.9673 32.7865 63.1388C32.4858 63.2977 32.1829 63.4513 31.8767 63.5994C31.726 63.6734 31.5875 63.7513 31.4482 63.8456C31.3231 63.9275 31.2521 63.9684 31.1069 63.9859C31.0607 63.9929 31.0607 63.9929 31.0136 64C30.6886 63.9686 30.3701 63.748 30.0868 63.5963C29.8055 63.4468 29.5238 63.2993 29.2377 63.1591C28.7857 62.9349 28.3452 62.6894 27.9031 62.4463C27.7647 62.3706 27.6259 62.2957 27.4868 62.2211C26.792 61.8477 26.1129 61.4503 25.4365 61.0448C25.2851 60.9541 25.1335 60.8637 24.9819 60.7734C24.5516 60.5167 24.1235 60.2576 23.7032 59.9847C23.6371 59.9422 23.5711 59.8997 23.505 59.8572C22.4352 59.1684 21.3856 58.4539 20.3578 57.7037C20.2986 57.6607 20.2986 57.6607 20.2383 57.6168C19.3928 57.0007 18.5683 56.3606 17.7592 55.6975C17.6809 55.6334 17.6023 55.5697 17.5236 55.5061C16.8996 55.0009 16.2999 54.4672 15.7065 53.9267C15.6378 53.8643 15.6378 53.8643 15.5677 53.8007C15.5264 53.7631 15.4851 53.7255 15.4426 53.6867C15.3455 53.5958 15.3455 53.5958 15.2382 53.5473C15.2382 53.5138 15.2382 53.4804 15.2382 53.4459C15.2092 53.4336 15.1802 53.4212 15.1503 53.4085C15.015 53.3331 14.9271 53.2441 14.82 53.1323C14.6868 52.9934 14.5509 52.8629 14.4044 52.7382C14.1154 52.4877 13.8478 52.2151 13.5779 51.9443C13.4865 51.8526 13.3948 51.7611 13.303 51.6697C13.0339 51.4007 12.7666 51.1326 12.5213 50.8413C12.4425 50.7504 12.3588 50.6662 12.2729 50.582C12.086 50.3976 11.8993 50.2088 11.7407 49.9991C11.7407 49.9656 11.7407 49.9322 11.7407 49.8977C11.7073 49.8977 11.6738 49.8977 11.6393 49.8977C11.5687 49.819 11.5018 49.737 11.4366 49.6538C11.2758 49.4524 11.1118 49.2596 10.936 49.0708C10.6928 48.8065 10.4724 48.5287 10.2527 48.245C10.1369 48.0955 10.0177 47.9492 9.89692 47.8036C9.4158 47.2179 8.96675 46.6094 8.53288 45.9882C8.41742 45.8229 8.29937 45.6597 8.17985 45.4973C7.97212 45.2128 7.77716 44.9208 7.58426 44.6261C7.56368 44.5949 7.54311 44.5637 7.52191 44.5315C6.91238 43.6061 6.35415 42.6513 5.81016 41.6862C5.78644 41.6444 5.76272 41.6026 5.73828 41.5595C5.38216 40.9308 5.06086 40.2897 4.75511 39.6351C4.70409 39.526 4.6526 39.4171 4.60076 39.3084C3.89749 37.8231 3.28363 36.3025 2.76885 34.7418C2.75807 34.7093 2.74729 34.6768 2.73618 34.6432C2.35412 33.489 2.03007 32.3272 1.75508 31.143C1.74702 31.1086 1.73896 31.0742 1.73066 31.0387C1.32919 29.3241 1.07258 27.585 0.89971 25.8333C0.891837 25.7546 0.891837 25.7546 0.883805 25.6742C0.765709 24.4757 0.732593 23.2804 0.7347 22.0765C0.734972 21.8924 0.7347 21.7083 0.734378 21.5242C0.733949 20.3704 0.775781 19.2239 0.880702 18.0748C0.885035 18.0265 0.889367 17.9782 0.893832 17.9285C0.980255 16.9723 1.10149 16.0234 1.24819 15.0747C1.25708 15.0166 1.26597 14.9584 1.27512 14.8985C1.38383 14.1944 1.52007 13.4975 1.67038 12.8011C1.70524 12.6377 1.73879 12.474 1.77211 12.3102C2.17628 10.3422 2.7454 8.40508 3.39612 6.50519C3.40833 6.46945 3.42055 6.4337 3.43313 6.39686C3.58207 5.96262 3.74275 5.53509 3.91742 5.11052C4.00694 4.88195 4.07938 4.65055 4.14951 4.41528C4.28745 4.20334 4.46144 4.15752 4.69501 4.07531C4.74067 4.05921 4.74067 4.05921 4.78724 4.04278C5.04901 3.95111 5.31224 3.86408 5.57572 3.77752C5.65887 3.75005 5.74201 3.72258 5.82514 3.69509C6.02327 3.62968 6.22151 3.56461 6.41982 3.49975C6.50437 3.4721 6.5889 3.44438 6.67342 3.41664C6.94226 3.32873 7.21205 3.24448 7.48288 3.16292C7.53486 3.14724 7.58684 3.13156 7.64039 3.1154C12.034 1.79808 16.5547 0.933859 22.3057 0.336909C22.4572 0.322321 22.6087 0.307216 22.7602 0.291898C25.2805 0.0446366 27.8069 -0.00557076 30.337 0.000685216ZM54.4711 3.66981C54.5289 4.00287 54.5938 4.33415 54.6622 4.66516C55.5442 8.96259 55.6187 13.3404 54.4711 19.6874C54.4593 19.7382 54.4476 19.789 54.4354 19.8414C53.9614 21.875 53.3121 23.862 52.5008 25.7855C52.4386 25.9339 52.3777 26.0829 52.317 26.2319C52.2737 26.3377 52.2303 26.4435 52.187 26.5493C52.1679 26.5963 52.1489 26.6432 52.1293 26.6916C51.9663 27.0863 51.7766 27.4652 51.5835 27.8458C51.5003 28.0108 51.4189 28.1767 51.3373 28.3426C50.9362 29.1556 50.5209 29.9555 50.0612 30.7375C50.0306 30.7897 50.0306 30.7897 49.9994 30.843C49.8703 31.0628 49.7382 31.2805 49.605 31.4978C49.5807 31.5376 49.5564 31.5774 49.5314 31.6184C48.4507 33.3892 47.2444 35.0769 45.9275 36.6797C45.861 36.761 45.795 36.8427 45.7291 36.9244C45.4984 37.2103 45.2582 37.4846 45.0096 37.755C44.8798 37.8968 44.7532 38.041 44.6274 38.1863C44.5575 38.2658 44.4864 38.3443 44.4148 38.4223C44.3733 38.4675 44.3318 38.5127 44.2891 38.5593C44.2505 38.6009 44.212 38.6426 44.1722 38.6855C44.0706 38.7946 44.0706 38.7946 44.0293 38.949C43.9791 38.9657 43.9289 38.9824 43.8772 38.9997C43.7948 39.0807 43.7948 39.0807 43.7144 39.181C43.531 39.3971 43.3367 39.5982 43.1361 39.7982C43.1004 39.8339 43.0648 39.8696 43.028 39.9064C42.9532 39.9813 42.8782 40.0562 42.8032 40.131C42.6895 40.2444 42.576 40.3582 42.4626 40.4719C42.3893 40.5452 42.316 40.6184 42.2427 40.6916C42.2093 40.7251 42.1759 40.7586 42.1415 40.7931C41.9461 40.9876 41.7453 41.173 41.5362 41.3528C41.3864 41.4829 41.2431 41.6198 41.0988 41.7559C40.8434 41.9951 40.5816 42.2216 40.3082 42.4404C40.133 42.5839 39.9668 42.7364 39.8009 42.8906C39.6618 43.0112 39.517 43.1198 39.3692 43.2294C39.2065 43.3519 39.0507 43.4825 38.8939 43.6123C38.4391 43.9851 37.9666 44.3319 37.4905 44.6768C37.406 44.7382 37.3216 44.7995 37.2372 44.8609C37.1559 44.92 37.0745 44.979 36.9931 45.0379C36.9558 45.0649 36.9186 45.0919 36.8802 45.1197C36.6808 45.2636 36.4796 45.4035 36.2739 45.5385C36.4329 45.6684 36.5928 45.7488 36.781 45.83C36.8724 45.8695 36.8724 45.8695 36.9657 45.9099C37.0319 45.9382 37.098 45.9665 37.1642 45.9947C37.2324 46.024 37.3007 46.0534 37.369 46.0827C38.2703 46.469 39.1734 46.8512 40.1019 47.1677C40.3175 47.2423 40.5321 47.3201 40.7468 47.3974C40.9317 47.4638 41.1169 47.5292 41.3022 47.5945C41.5121 47.6688 41.72 47.7461 41.9267 47.829C42.2953 47.9888 42.2953 47.9888 42.6833 47.9923C42.7975 47.9125 42.8746 47.8244 42.9648 47.7181C43.0363 47.6516 43.1079 47.5851 43.1805 47.5198C43.2606 47.4478 43.3394 47.3745 43.4182 47.3011C43.5529 47.1773 43.6927 47.062 43.836 46.9483C44.1678 46.6811 44.4729 46.3867 44.7813 46.0933C44.9029 45.9776 45.0249 45.8628 45.1496 45.7504C45.5227 45.4134 45.881 45.0621 46.2375 44.7078C46.2965 44.6492 46.3555 44.5907 46.4146 44.5323C46.4982 44.4496 46.5814 44.3666 46.6645 44.2836C46.6901 44.2583 46.7157 44.233 46.7421 44.207C46.8789 44.0849 46.8789 44.0849 46.9185 43.9165C46.9687 43.8997 47.0189 43.883 47.0706 43.8658C47.1534 43.7849 47.1534 43.7849 47.2341 43.6846C47.4156 43.4707 47.6059 43.2674 47.7992 43.0643C48.3375 42.5241 48.3375 42.5241 48.7433 41.8889C48.7768 41.8889 48.8102 41.8889 48.8447 41.8889C48.9301 41.7894 49.0097 41.6893 49.0886 41.5848C49.1392 41.5189 49.1899 41.4531 49.2407 41.3874C49.2672 41.353 49.2937 41.3186 49.3211 41.2831C49.4255 41.1496 49.533 41.0189 49.6409 40.8882C50.037 40.4079 50.4067 39.91 50.7708 39.4052C50.7966 39.3696 50.8224 39.334 50.849 39.2974C51.8246 37.9485 52.8133 36.5031 53.5336 34.9985C53.612 34.8378 53.6954 34.6805 53.7797 34.5229C54.3308 33.4912 54.8157 32.4315 55.2664 31.3525C55.3236 31.2157 55.3816 31.0792 55.4397 30.9428C55.7934 30.0997 56.0671 29.2249 56.3466 28.3551C56.3662 28.2942 56.3858 28.2334 56.4061 28.1707C56.703 27.2397 56.9225 26.2921 57.1344 25.3389C57.1829 25.1211 57.2339 24.9041 57.2867 24.6873C57.3931 24.2268 57.4623 23.7594 57.5346 23.2926C57.5462 23.2183 57.5462 23.2183 57.558 23.1426C57.6683 22.4298 57.7628 21.7166 57.8356 20.9989C57.8416 20.9402 57.8416 20.9402 57.8477 20.8802C57.9375 19.9917 57.9767 19.1043 57.9771 18.2115C57.9773 18.1266 57.9775 18.0417 57.9776 17.9568C57.9779 17.7802 57.978 17.6036 57.978 17.427C57.978 17.2494 57.9784 17.0718 57.979 16.8943C57.9832 15.8097 57.9661 14.7363 57.8672 13.6554C57.8609 13.5861 57.8609 13.5861 57.8545 13.5153C57.8291 13.2417 57.8 12.9686 57.769 12.6955C57.7601 12.6151 57.7511 12.5346 57.7422 12.4542C57.312 8.18166 57.312 8.18166 55.9918 4.126C55.8747 4.07432 55.8747 4.07432 55.7314 4.02918C55.678 4.01144 55.6247 3.9937 55.5697 3.97542C55.4854 3.94803 55.4854 3.94803 55.3993 3.92008C55.3441 3.90162 55.2888 3.88316 55.2319 3.86415C54.9781 3.78057 54.7361 3.70888 54.4711 3.66981ZM7.12548 3.74386C7.04879 3.76719 7.04879 3.76719 6.97055 3.79098C6.91694 3.80745 6.86332 3.82392 6.80809 3.84088C6.75506 3.85695 6.70204 3.87303 6.64741 3.88959C6.43106 3.95561 6.43106 3.95561 6.21567 4.02463C6.14746 4.04462 6.14746 4.04462 6.07788 4.06502C5.95388 4.11661 5.95388 4.11661 5.90266 4.2374C5.88958 4.28389 5.8765 4.33037 5.86302 4.37826C5.84764 4.43127 5.83225 4.48428 5.8164 4.5389C5.80075 4.5971 5.7851 4.6553 5.76897 4.71526C5.74325 4.80682 5.74325 4.80682 5.717 4.90023C5.66212 5.09799 5.60914 5.29617 5.55672 5.49459C5.53977 5.55813 5.52282 5.62166 5.50536 5.68712C4.99286 7.6251 4.61511 9.59206 4.34019 11.5772C4.33447 11.6181 4.32875 11.659 4.32286 11.7011C3.79516 15.5018 3.79439 19.4495 4.44157 23.2356C4.45117 23.2925 4.45117 23.2925 4.46097 23.3506C4.93433 26.1549 5.6868 28.8674 6.77324 31.4978C6.79783 31.5575 6.82242 31.6172 6.84776 31.6787C7.52764 33.3165 8.31779 34.9201 9.26806 36.4189C9.34115 36.5385 9.40915 36.6585 9.47616 36.7815C9.61633 37.0356 9.77233 37.2778 9.93177 37.5202C9.96097 37.5648 9.99017 37.6094 10.0203 37.6554C10.1036 37.7826 10.1872 37.9096 10.2707 38.0366C10.308 38.0935 10.3452 38.1504 10.3824 38.2073C10.8723 38.9504 11.3972 39.6658 11.9435 40.3683C11.9672 40.3989 11.9909 40.4295 12.0153 40.4611C12.7654 41.4296 13.5522 42.3685 14.3893 43.263C14.4556 43.3347 14.5212 43.4071 14.5864 43.4798C15.0019 43.9404 15.4391 44.3785 15.8782 44.8165C16.0085 44.9465 16.1385 45.0768 16.2685 45.2071C16.3524 45.291 16.4363 45.3749 16.5203 45.4587C16.5777 45.5163 16.5777 45.5163 16.6363 45.575C16.8435 45.7813 17.0549 45.9795 17.2768 46.1699C17.4262 46.2993 17.5688 46.4357 17.7124 46.5713C17.9636 46.8063 18.2194 47.0311 18.4898 47.2441C18.6018 47.3364 18.7059 47.4299 18.8106 47.53C18.8412 47.5585 18.8719 47.587 18.9035 47.6164C18.9634 47.6723 19.0223 47.7293 19.0799 47.7874C19.1656 47.866 19.2383 47.9229 19.344 47.9715C19.5202 47.9565 19.6359 47.9275 19.8002 47.8702C19.8867 47.8425 19.8867 47.8425 19.975 47.8143C20.1871 47.7461 20.3976 47.6737 20.608 47.6009C20.6466 47.5876 20.6852 47.5743 20.7249 47.5606C22.4053 46.9808 24.062 46.3256 25.68 45.5892C25.5265 45.43 25.3764 45.2904 25.1922 45.1678C25.1539 45.1419 25.1156 45.116 25.0761 45.0892C24.9682 45.0195 24.9682 45.0195 24.8183 45.0316C24.8079 45.0023 24.7974 44.9731 24.7867 44.9429C24.6902 44.7851 24.5718 44.717 24.4128 44.6261C24.3627 44.6261 24.3125 44.6261 24.2608 44.6261C24.2497 44.5971 24.2387 44.5681 24.2273 44.5382C24.1373 44.386 24.027 44.3106 23.8838 44.2079C23.8347 44.1721 23.7856 44.1363 23.7351 44.0994C23.6062 44.0046 23.6062 44.0046 23.4498 44.0178C23.4381 43.9887 23.4264 43.9596 23.4143 43.9295C23.3317 43.7861 23.2342 43.7084 23.1044 43.606C23.0612 43.5714 23.0181 43.5367 22.9736 43.5011C22.846 43.4049 22.846 43.4049 22.7015 43.3561C22.6641 43.3403 22.6266 43.3245 22.588 43.3082C22.5713 43.258 22.5546 43.2078 22.5374 43.1561C22.4538 43.1039 22.3693 43.0532 22.2839 43.0041C22.2672 42.9706 22.2505 42.9372 22.2332 42.9027C22.183 42.9027 22.1329 42.9027 22.0812 42.9027C22.0812 42.8692 22.0812 42.8358 22.0812 42.8013C22.0477 42.8013 22.0143 42.8013 21.9798 42.8013C21.9463 42.7344 21.9129 42.6675 21.8784 42.5986C21.8282 42.5986 21.778 42.5986 21.7263 42.5986C21.7263 42.5651 21.7263 42.5317 21.7263 42.4972C21.6929 42.4972 21.6594 42.4972 21.625 42.4972C21.6082 42.447 21.5915 42.3968 21.5743 42.3451C21.4875 42.2647 21.3972 42.188 21.305 42.1139C21.2316 42.0542 21.2316 42.0542 21.1567 41.9933C21.0258 41.8886 21.0258 41.8886 20.9005 41.8337C20.8139 41.7875 20.8139 41.7875 20.7633 41.6355C20.6811 41.5502 20.6811 41.5502 20.5795 41.4676C20.5246 41.4208 20.5246 41.4208 20.4686 41.3731C20.4002 41.316 20.3316 41.2591 20.2627 41.2024C20.0759 41.0469 19.9207 40.8869 19.7727 40.6936C19.6836 40.6069 19.6153 40.5979 19.496 40.571C19.4327 40.4665 19.4327 40.4665 19.3947 40.3683C19.3612 40.3683 19.3278 40.3683 19.2933 40.3683C19.2598 40.3014 19.2264 40.2345 19.1919 40.1655C19.1585 40.1655 19.125 40.1655 19.0905 40.1655C19.0571 40.0986 19.0236 40.0317 18.9892 39.9628C18.9557 39.9628 18.9223 39.9628 18.8878 39.9628C18.8543 39.8959 18.8209 39.8289 18.7864 39.76C18.753 39.76 18.7195 39.76 18.685 39.76C18.6745 39.7246 18.664 39.6892 18.6532 39.6527C18.5621 39.4612 18.4348 39.3411 18.2827 39.1961C18.2554 39.1695 18.2281 39.1429 18.2 39.1155C18.1254 39.0428 18.0504 38.9706 17.9754 38.8983C17.886 38.8115 17.8168 38.737 17.7441 38.6354C17.7201 38.605 17.696 38.5747 17.6713 38.5435C17.6378 38.5435 17.6044 38.5435 17.5699 38.5435C17.5532 38.4933 17.5364 38.4431 17.5192 38.3914C17.4529 38.3226 17.3849 38.2553 17.3164 38.1887C17.1958 38.0556 17.0789 37.9192 16.9616 37.7832C16.9378 37.7555 16.9139 37.7278 16.8893 37.6993C16.8088 37.6059 16.7284 37.5124 16.648 37.4188C16.6221 37.3887 16.5962 37.3586 16.5695 37.3276C16.532 37.2839 16.532 37.2839 16.4937 37.2392C16.4697 37.2113 16.4457 37.1833 16.421 37.1544C16.3586 37.0797 16.2991 37.0026 16.2399 36.9252C16.2104 36.8905 16.181 36.8558 16.1506 36.8201C16.1172 36.8201 16.0837 36.8201 16.0492 36.8201C16.0448 36.7797 16.0448 36.7797 16.0403 36.7385C15.9792 36.5612 15.8582 36.4385 15.7356 36.3005C15.5237 36.0593 15.327 35.8115 15.1368 35.5529C15.0758 35.4706 15.0147 35.3884 14.9537 35.3062C14.8912 35.2216 14.8287 35.1369 14.7662 35.0523C14.7341 35.0091 14.7021 34.9658 14.6691 34.9212C14.6386 34.8799 14.6081 34.8386 14.5767 34.7961C14.5492 34.7589 14.5216 34.7216 14.4933 34.6833C14.4272 34.5898 14.4272 34.5898 14.3765 34.4884C14.3431 34.4884 14.3096 34.4884 14.2751 34.4884C14.2547 34.4325 14.2547 34.4325 14.234 34.3755C14.1752 34.2382 14.1095 34.1335 14.0217 34.0132C13.9064 33.853 13.7942 33.6916 13.6865 33.5261C13.6638 33.4914 13.6412 33.4568 13.6179 33.4211C13.5727 33.3517 13.5278 33.2821 13.4832 33.2124C13.4288 33.1291 13.3707 33.0482 13.3121 32.9678C13.2786 32.9678 13.2451 32.9678 13.2107 32.9678C13.194 32.8841 13.1772 32.8005 13.16 32.7143C13.1098 32.6976 13.0596 32.6809 13.0079 32.6636C13.0017 32.6249 12.9954 32.5863 12.9889 32.5464C12.9633 32.3999 12.9633 32.3999 12.8559 32.2581C12.8224 32.2581 12.7889 32.2581 12.7545 32.2581C12.7472 32.2267 12.7398 32.1954 12.7323 32.1631C12.7073 32.0537 12.7073 32.0537 12.6531 31.954C12.6196 31.954 12.5862 31.954 12.5517 31.954C12.5486 31.9195 12.5455 31.885 12.5422 31.8494C12.4946 31.6771 12.4174 31.5751 12.3112 31.434C12.2226 31.311 12.1622 31.1776 12.0955 31.0416C12.0486 30.962 12.001 30.8829 11.953 30.804C11.816 30.5784 11.6892 30.3485 11.5641 30.1161C11.4645 29.936 11.3576 29.761 11.2489 29.5863C11.1831 29.4702 11.1831 29.4702 11.137 29.3534C11.0784 29.2084 11.0063 29.0741 10.9312 28.937C10.6175 28.3623 10.3489 27.7687 10.0815 27.1716C10.0503 27.1019 10.019 27.0322 9.9878 26.9625C9.97277 26.929 9.95774 26.8954 9.94225 26.8609C9.85725 26.6722 9.76854 26.4862 9.67456 26.3018C9.57098 26.0982 9.48589 25.893 9.40904 25.6781C9.38339 25.6081 9.35772 25.5381 9.33202 25.468C9.3195 25.4337 9.30698 25.3993 9.29408 25.364C9.21959 25.1615 9.14099 24.9606 9.06313 24.7594C8.99152 24.5729 8.92132 24.3858 8.85147 24.1986C8.83758 24.1614 8.82369 24.1242 8.80938 24.0859C8.51365 23.2919 8.25253 22.4964 8.02298 21.6807C7.96323 21.4687 7.90269 21.2569 7.84075 21.0454C7.78544 20.8476 7.73668 20.6487 7.69019 20.4487C7.68145 20.4114 7.67271 20.3741 7.66371 20.3357C7.63609 20.2178 7.60858 20.0999 7.58109 19.982C7.55338 19.8635 7.52566 19.7451 7.49792 19.6266C7.48074 19.5532 7.46359 19.4798 7.44647 19.4064C7.40175 19.2147 7.40175 19.2147 7.35444 19.0237C7.06667 17.8464 6.92183 16.6304 6.77324 15.4295C6.76344 15.3516 6.76344 15.3516 6.75344 15.2721C6.69869 14.8303 6.66501 14.3894 6.64612 13.9447C6.64398 13.8946 6.64184 13.8445 6.63963 13.7928C6.61623 13.2174 6.60348 12.6419 6.59291 12.0661C6.58947 11.8834 6.58553 11.7008 6.58157 11.5181C6.56948 10.909 6.56994 10.309 6.62117 9.70174C6.62683 9.61239 6.63222 9.52303 6.63721 9.43364C6.6404 9.37787 6.6404 9.37787 6.64365 9.32098C6.64564 9.28563 6.64763 9.25028 6.64969 9.21386C6.65297 9.1579 6.65297 9.1579 6.65632 9.1008C6.66549 8.93808 6.67174 8.77693 6.67008 8.61391C6.67186 8.48521 6.67186 8.48521 6.72255 8.43453C6.7397 8.30863 6.75397 8.18351 6.76651 8.05713C6.77488 7.9776 6.78327 7.89807 6.79165 7.81854C6.80456 7.69369 6.81736 7.56883 6.82999 7.44395C6.87949 6.95823 6.94167 6.48369 7.04789 6.00685C7.07453 5.8646 7.07948 5.73989 7.07737 5.59597C7.11015 5.49426 7.14419 5.39296 7.17875 5.29184C7.22601 5.10156 7.26727 4.91006 7.30864 4.71843C7.31984 4.66802 7.33105 4.6176 7.34259 4.56567C7.40747 4.26716 7.45482 3.97402 7.48288 3.66981C7.35292 3.66981 7.24999 3.70595 7.12548 3.74386ZM28.3457 12.6136C28.3057 12.6145 28.2656 12.6155 28.2243 12.6165C27.8301 12.6265 27.4401 12.6418 27.0486 12.6924C26.9051 12.7021 26.7615 12.7084 26.6178 12.7145C26.1584 12.7362 25.7006 12.772 25.2424 12.8109C25.1652 12.8174 25.1652 12.8174 25.0864 12.824C25.0408 12.828 24.9952 12.8319 24.9482 12.8359C24.8183 12.8444 24.8183 12.8444 24.6844 12.8425C24.5571 12.8385 24.5571 12.8385 24.4128 12.8951C24.2983 12.9052 24.1837 12.913 24.0689 12.9195C23.6853 12.9427 23.3032 12.9752 22.9207 13.0123C22.8874 13.0156 22.8541 13.0188 22.8198 13.0221C21.7019 13.1314 20.5891 13.2799 19.477 13.4368C19.4378 13.4423 19.3985 13.4478 19.358 13.4535C19.2473 13.4691 19.1367 13.4849 19.026 13.5008C18.9625 13.5099 18.8991 13.5189 18.8337 13.5283C18.6889 13.5461 18.6889 13.5461 18.5837 13.6048C18.4025 13.6272 18.2213 13.6459 18.0396 13.6637C17.7775 13.6907 17.5206 13.7314 17.2616 13.7802C17.1079 13.8086 16.954 13.8339 16.7997 13.8586C16.0303 13.9822 15.2648 14.1207 14.5001 14.27C14.4558 14.2786 14.4116 14.2873 14.366 14.2961C13.9133 14.3844 13.4623 14.4762 13.0134 14.5823C12.7193 14.6499 12.423 14.7077 12.1272 14.7674C11.6215 14.8706 11.1209 14.98 10.6256 15.1254C10.6593 15.5532 10.7572 15.9637 10.8568 16.3799C10.8659 16.4178 10.8749 16.4558 10.8842 16.4948C11.6409 19.6666 12.7563 22.8263 14.3302 25.6902C14.4145 25.8445 14.4918 26.0019 14.5694 26.1597C14.7247 26.4717 14.896 26.7721 15.0735 27.072C15.1367 27.1794 15.1999 27.2868 15.2632 27.3942C15.2937 27.446 15.3243 27.4977 15.3558 27.5511C15.4284 27.6748 15.5002 27.799 15.5713 27.9237C15.9064 28.5089 16.2808 29.0666 16.6584 29.6252C16.7963 29.83 16.9325 30.0359 17.0687 30.2419C17.2234 30.4694 17.3899 30.6878 17.5566 30.9066C17.6248 30.9965 17.6924 31.0869 17.7598 31.1774C18.2901 31.8893 18.8259 32.5948 19.4091 33.2644C19.5308 33.4043 19.6468 33.548 19.7622 33.6932C20.024 34.016 20.3115 34.3142 20.5981 34.6149C20.7597 34.7846 20.9177 34.9572 21.0751 35.1307C21.3664 35.4504 21.6697 35.7574 21.976 36.0626C22.066 36.1522 22.1556 36.2422 22.2452 36.3321C22.5097 36.5967 22.7742 36.858 23.0591 37.1008C23.1987 37.2204 23.3316 37.347 23.4656 37.4727C23.7086 37.6988 23.9579 37.9131 24.2168 38.1209C24.3832 38.2565 24.5453 38.3966 24.7075 38.5371C25.0567 38.8382 25.416 39.1241 25.7814 39.4052C25.8225 39.4369 25.8635 39.4685 25.9058 39.5012C26.4299 39.9053 26.9545 40.3045 27.5048 40.6724C27.597 40.7345 27.6892 40.7966 27.7814 40.8587C28.4091 41.2804 29.0395 41.6968 29.6844 42.0917C29.7358 42.1233 29.7871 42.1548 29.84 42.1874C30.0051 42.2884 30.171 42.3882 30.337 42.4877C30.3892 42.5196 30.4414 42.5515 30.4952 42.5844C30.5443 42.6135 30.5934 42.6425 30.644 42.6724C30.6875 42.6985 30.731 42.7247 30.7758 42.7516C30.9322 42.8137 30.9958 42.8045 31.1544 42.7506C31.2616 42.6963 31.3668 42.6378 31.4704 42.5768C31.5003 42.5592 31.5303 42.5417 31.5611 42.5236C31.6581 42.4666 31.7547 42.4091 31.8514 42.3515C31.9185 42.3117 31.9857 42.2719 32.0528 42.2322C32.5386 41.9438 33.0179 41.6476 33.4861 41.3313C33.5308 41.3011 33.5756 41.2709 33.6217 41.2398C33.9048 41.0484 34.1875 40.8563 34.4687 40.6622C34.5613 40.5985 34.6542 40.5354 34.7474 40.4727C34.817 40.4253 34.817 40.4253 34.8881 40.377C34.9303 40.3485 34.9725 40.3201 35.016 40.2908C35.0464 40.2662 35.0768 40.2416 35.1081 40.2162C35.1081 40.1827 35.1081 40.1493 35.1081 40.1148C35.1377 40.1092 35.1674 40.1035 35.1979 40.0977C35.3223 40.0607 35.3941 40.0125 35.496 39.9329C35.5308 39.9059 35.5657 39.8789 35.6016 39.8512C35.6568 39.8076 35.6568 39.8076 35.7132 39.7632C35.7911 39.7026 35.869 39.642 35.9468 39.5814C36.0044 39.5364 36.0044 39.5364 36.0632 39.4904C36.1585 39.4162 36.2543 39.3429 36.3508 39.2701C36.7352 38.9795 37.1014 38.6721 37.4643 38.3552C37.5371 38.2935 37.6127 38.2352 37.6885 38.1772C37.7235 38.1475 37.7585 38.1179 37.7946 38.0873C37.7946 38.0538 37.7946 38.0204 37.7946 37.9859C37.8448 37.9859 37.895 37.9859 37.9467 37.9859C37.9467 37.9525 37.9467 37.919 37.9467 37.8845C37.9765 37.8711 38.0063 37.8576 38.037 37.8437C38.1524 37.7816 38.2322 37.7155 38.3266 37.6251C38.3591 37.5944 38.3916 37.5636 38.4251 37.5319C38.4585 37.4998 38.492 37.4677 38.5264 37.4347C38.5928 37.3714 38.6592 37.3081 38.7258 37.245C38.7571 37.2152 38.7885 37.1854 38.8208 37.1547C38.8974 37.0847 38.9786 37.0198 39.0604 36.9559C39.0943 36.9278 39.1282 36.8997 39.1632 36.8708C39.1632 36.8373 39.1632 36.8039 39.1632 36.7694C39.1945 36.7568 39.2259 36.7443 39.2582 36.7314C39.3729 36.6771 39.3729 36.6771 39.4166 36.5666C39.4673 36.4653 39.4673 36.4653 39.5546 36.4251C39.7118 36.3418 39.8235 36.2212 39.9457 36.0946C39.9692 36.0706 39.9928 36.0466 40.0171 36.0218C40.0874 35.9501 40.1575 35.8782 40.2276 35.8063C40.2991 35.7378 40.2991 35.7378 40.372 35.6679C40.4927 35.567 40.4927 35.567 40.4811 35.4515C40.5095 35.4396 40.5379 35.4277 40.5672 35.4154C40.9142 35.221 41.188 34.8544 41.444 34.5533C41.5284 34.4572 41.6145 34.3641 41.7026 34.2714C41.7304 34.2419 41.7582 34.2124 41.7869 34.1821C41.8428 34.123 41.8991 34.0643 41.9556 34.0058C42.1181 33.8447 42.1181 33.8447 42.1538 33.6267C42.1948 33.612 42.1948 33.612 42.2366 33.597C42.412 33.4922 42.5246 33.3455 42.6544 33.1895C42.6816 33.1572 42.7089 33.1248 42.737 33.0915C42.8932 32.9052 43.0446 32.7167 43.1876 32.5201C43.3002 32.3679 43.4178 32.2198 43.5351 32.0712C43.9702 31.5184 44.3932 30.9644 44.7896 30.3826C44.8718 30.2632 44.9542 30.1439 45.0367 30.0246C45.0732 29.9718 45.1096 29.9189 45.1472 29.8645C45.2072 29.7788 45.2693 29.6945 45.3349 29.613C45.4122 29.5186 45.4122 29.5186 45.3979 29.3689C45.4313 29.3689 45.4648 29.3689 45.4992 29.3689C45.5749 29.2647 45.6438 29.1612 45.7115 29.0521C45.732 29.0196 45.7524 28.9872 45.7735 28.9538C45.9251 28.712 46.0698 28.4666 46.2119 28.2191C46.3098 28.0517 46.411 27.8868 46.5131 27.722C46.7314 27.369 46.9401 27.0142 47.1319 26.6461C47.2643 26.3924 47.4073 26.1462 47.5549 25.9011C47.6292 25.775 47.6292 25.775 47.6743 25.6532C47.7374 25.4971 47.8152 25.3536 47.8955 25.2059C48.1774 24.6869 48.4161 24.1559 48.6413 23.6103C48.7098 23.4484 48.7836 23.289 48.8584 23.1299C48.9044 23.0264 48.9044 23.0264 48.8954 22.8807C48.9288 22.8807 48.9623 22.8807 48.9967 22.8807C49.2971 22.1453 49.2971 22.1453 49.5585 21.3953C49.6076 21.2513 49.6651 21.1133 49.7254 20.9736C49.9888 20.3524 50.1759 19.7008 50.3748 19.0569C50.3917 19.0023 50.4086 18.9477 50.426 18.8915C50.5702 18.4209 50.7009 17.9477 50.8184 17.4697C50.87 17.2603 50.9225 17.0512 50.9791 16.8431C50.9883 16.8094 50.9974 16.7758 51.0069 16.7411C51.0322 16.6486 51.0578 16.5562 51.0835 16.4637C51.1264 16.2884 51.1518 16.115 51.1764 15.9364C51.2089 15.8346 51.2426 15.7332 51.2777 15.6323C51.3193 15.4477 51.3481 15.2613 51.3791 15.0747C51.3209 15.0624 51.2627 15.0501 51.2027 15.0375C51.1232 15.0203 51.0436 15.0032 50.9641 14.986C50.9261 14.978 50.8881 14.9701 50.849 14.9619C50.6105 14.91 50.3791 14.8462 50.1464 14.7726C49.8223 14.6709 49.4967 14.5941 49.1647 14.5235C49.0441 14.4973 48.9235 14.4711 48.8029 14.4449C48.7423 14.4317 48.6817 14.4185 48.6193 14.405C48.3932 14.3549 48.1679 14.3016 47.9426 14.2482C47.2167 14.0766 46.487 13.9376 45.7527 13.8075C45.6217 13.7841 45.4908 13.7607 45.3599 13.7372C45.1702 13.7033 44.9805 13.6694 44.7907 13.6357C44.7346 13.6258 44.6784 13.6158 44.6205 13.6055C44.5711 13.5968 44.5217 13.5881 44.4707 13.5791C44.3824 13.563 44.2941 13.5461 44.2061 13.5284C43.5198 13.3924 42.8196 13.2928 42.1221 13.2384C41.8518 13.2156 41.5871 13.173 41.32 13.1268C40.8509 13.0462 40.3811 12.9907 39.9077 12.9426C39.8457 12.9362 39.8457 12.9362 39.7825 12.9297C38.77 12.8251 37.7555 12.7505 36.7382 12.7096C36.5845 12.7031 36.4353 12.694 36.2837 12.6672C36.1098 12.6398 35.9423 12.631 35.7664 12.6259C35.7318 12.6248 35.6972 12.6238 35.6616 12.6227C35.5462 12.6194 35.4308 12.6164 35.3154 12.6136C35.2748 12.6125 35.2343 12.6114 35.1925 12.6103C34.1795 12.5843 33.1666 12.5832 32.1534 12.5844C31.894 12.5847 31.6347 12.5845 31.3754 12.5842C30.3652 12.5832 29.3556 12.5877 28.3457 12.6136Z" fill="#00A550"/>
<path d="M38.0352 0.651731C38.4561 0.69513 38.8775 0.734053 39.2988 0.773725C39.4361 0.786729 39.5734 0.799927 39.7107 0.813201C40.2234 0.863049 40.2234 0.863049 40.7367 0.90646C41.6109 0.974886 42.4773 1.10937 43.3449 1.23386C43.614 1.2722 43.8832 1.30749 44.153 1.34008C44.5314 1.38648 44.9068 1.44541 45.2826 1.50918C45.3482 1.52021 45.4138 1.53125 45.4814 1.54262C45.9924 1.62929 46.5016 1.72343 47.0102 1.82309C47.1153 1.84345 47.2205 1.86313 47.3258 1.88241C48.4744 2.09286 49.6164 2.34217 50.7511 2.61799C50.9646 2.66955 51.1779 2.7172 51.3937 2.75857C51.5814 2.79509 51.7588 2.8432 51.9386 2.90945C52.1169 4.3639 52.1622 5.82464 52.1605 7.28851C52.1604 7.41347 52.1604 7.53844 52.1604 7.66341C52.1593 9.51693 52.0983 11.3818 51.7617 13.209C51.7332 13.3663 51.7072 13.5238 51.6816 13.6815C51.6059 14.1477 51.5272 14.6121 51.4318 15.0747C50.9893 15.1048 50.5764 14.958 50.1592 14.8248C49.8314 14.7235 49.502 14.6455 49.1666 14.5741C49.046 14.548 48.9254 14.5218 48.8049 14.4955C48.7443 14.4824 48.6837 14.4692 48.6212 14.4556C48.3951 14.4055 48.1698 14.3523 47.9445 14.2989C47.2186 14.1273 46.489 13.9883 45.7546 13.8582C45.6237 13.8347 45.4927 13.8113 45.3618 13.7879C45.1721 13.7539 44.9824 13.72 44.7927 13.6864C44.7365 13.6764 44.6803 13.6665 44.6225 13.6562C44.573 13.6475 44.5236 13.6387 44.4727 13.6297C44.3843 13.6136 44.2961 13.5968 44.208 13.579C43.5217 13.443 42.8216 13.3434 42.1241 13.289C41.8537 13.2662 41.5891 13.2237 41.322 13.1774C40.8528 13.0968 40.3831 13.0413 39.9096 12.9933C39.8683 12.989 39.827 12.9847 39.7845 12.9803C38.7719 12.8758 37.7574 12.8011 36.7402 12.7603C36.5865 12.7537 36.4372 12.7447 36.2856 12.7179C36.1118 12.6904 35.9443 12.6817 35.7684 12.6765C35.7338 12.6755 35.6992 12.6744 35.6636 12.6734C35.5482 12.67 35.4328 12.6671 35.3174 12.6642C35.2768 12.6631 35.2362 12.6621 35.1944 12.661C34.1815 12.635 33.1685 12.6339 32.1553 12.635C31.896 12.6353 31.6367 12.6351 31.3773 12.6349C30.3672 12.6339 29.3575 12.6383 28.3477 12.6642C28.3076 12.6652 28.2676 12.6662 28.2263 12.6672C27.832 12.6772 27.442 12.6925 27.0506 12.743C26.9071 12.7527 26.7635 12.759 26.6197 12.7652C26.1604 12.7869 25.7025 12.8227 25.2443 12.8616C25.1929 12.8659 25.1414 12.8702 25.0884 12.8747C25.0428 12.8786 24.9971 12.8825 24.9501 12.8866C24.8203 12.8951 24.8203 12.8951 24.6863 12.8932C24.559 12.8892 24.559 12.8892 24.4148 12.9458C24.3003 12.9559 24.1856 12.9636 24.0709 12.9701C23.6873 12.9933 23.3051 13.0258 22.9226 13.063C22.8894 13.0662 22.8561 13.0694 22.8218 13.0728C21.7039 13.1821 20.5911 13.3305 19.479 13.4875C19.4201 13.4957 19.4201 13.4957 19.36 13.5042C19.2493 13.5197 19.1386 13.5355 19.0279 13.5515C18.9645 13.5605 18.901 13.5696 18.8356 13.5789C18.6909 13.5967 18.6909 13.5967 18.5856 13.6554C18.4044 13.6779 18.2233 13.6965 18.0416 13.7143C17.7794 13.7414 17.5226 13.7821 17.2636 13.8309C17.1099 13.8592 16.9559 13.8846 16.8016 13.9092C16.0323 14.0329 15.2668 14.1713 14.502 14.3207C14.4578 14.3293 14.4135 14.3379 14.3679 14.3468C13.9154 14.435 13.4646 14.5267 13.0158 14.6327C12.6575 14.7154 12.2964 14.7859 11.9361 14.8593C11.8749 14.8718 11.8137 14.8843 11.7506 14.8973C11.6905 14.9096 11.6305 14.9218 11.5686 14.9345C11.3334 14.985 11.1001 15.0428 10.867 15.1024C10.7313 15.125 10.6543 15.12 10.5261 15.0747C10.5203 15.0399 10.5144 15.0051 10.5083 14.9693C10.4817 14.8122 10.4548 14.6551 10.4279 14.4981C10.4187 14.4433 10.4094 14.3886 10.3999 14.3322C10.3909 14.2799 10.3819 14.2276 10.3727 14.1738C10.3645 14.1255 10.3562 14.0772 10.3478 14.0274C10.3286 13.9084 10.3286 13.9084 10.2727 13.8075C10.2554 13.6738 10.2403 13.5406 10.2268 13.4065C10.1917 13.075 10.153 12.7443 10.1095 12.4137C9.70491 9.3108 9.54763 5.95784 10.0699 2.85876C10.2592 2.77662 10.4413 2.72805 10.6434 2.68769C10.9069 2.63306 11.1682 2.5734 11.429 2.50711C12.6516 2.19793 12.6516 2.19793 13.1568 2.12833C13.2986 2.10135 13.4322 2.06544 13.5708 2.02557C13.8804 1.93945 14.1905 1.89242 14.5084 1.84816C14.9403 1.78512 15.3665 1.71396 15.7909 1.61156C16.4037 1.4646 17.033 1.38967 17.6557 1.2964C17.7635 1.28024 17.8712 1.26405 17.9789 1.24782C18.0138 1.24256 18.0487 1.2373 18.0847 1.23189C18.2909 1.20061 18.4966 1.16737 18.7022 1.13238C18.9952 1.08295 19.2888 1.04236 19.5835 1.00546C19.6368 0.99876 19.6901 0.992058 19.745 0.985153C20.0705 0.945569 20.3921 0.919696 20.7196 0.906336C21.0758 0.888157 21.4262 0.834206 21.779 0.783699C22.4029 0.695373 23.0224 0.64343 23.6516 0.61244C23.9781 0.596152 24.3019 0.575083 24.627 0.541407C25.3263 0.469144 26.025 0.440758 26.7275 0.419375C26.7777 0.417803 26.7777 0.417803 26.8291 0.416199C30.5565 0.299941 34.3227 0.267931 38.0352 0.651731Z" fill="#EC1C24"/>
<path d="M30.337 0.000685216C30.5957 0.00125833 30.8543 0.00105107 31.1129 0.000411156C33.6503 -0.00569535 36.1824 0.0545112 38.7102 0.295855C38.8299 0.306834 38.9496 0.317786 39.0694 0.328711C39.9979 0.41438 40.9245 0.512702 41.8497 0.628498C41.9175 0.636882 41.9853 0.645256 42.0532 0.653619C42.9673 0.766646 43.8797 0.890858 44.7896 1.03401C44.8266 1.03981 44.8635 1.04562 44.9016 1.0516C46.342 1.27839 47.7724 1.54572 49.1995 1.84502C49.2403 1.85356 49.2811 1.8621 49.3231 1.8709C51.16 2.25642 52.9782 2.72284 54.7752 3.2643C54.8307 3.28079 54.8862 3.29728 54.9433 3.31427C55.2678 3.41077 55.5909 3.5107 55.9134 3.61362C56.08 3.66569 56.247 3.7153 56.4145 3.76437C56.5638 3.80872 56.7125 3.85517 56.8611 3.90204C56.9332 3.92435 57.0057 3.94583 57.0783 3.96641C57.6473 4.12844 57.6473 4.12844 57.8128 4.36966C57.8775 4.52367 57.9257 4.67436 57.9686 4.83564C58.005 4.92179 58.005 4.92179 58.0421 5.00969C58.2969 5.62783 58.507 6.2625 58.7217 6.89538C58.7705 7.03914 58.8197 7.18275 58.8691 7.32631C59.0478 7.84914 59.2016 8.37767 59.3503 8.90973C59.3862 9.03671 59.423 9.16334 59.4604 9.28989C60.0668 11.3531 60.4881 13.4564 60.8072 15.5816C60.8154 15.6366 60.8237 15.6916 60.8323 15.7483C60.8791 16.064 60.9209 16.38 60.9592 16.6967C60.9656 16.748 60.9719 16.7992 60.9784 16.852C61.1324 18.1204 61.1975 19.3933 61.2444 20.6695C61.2474 20.7509 61.2474 20.7509 61.2505 20.8341C61.281 21.7677 61.2599 22.6986 61.219 23.6316C61.2167 23.6851 61.2144 23.7387 61.212 23.7938C61.179 24.5558 61.1437 25.3157 61.0606 26.0741C61.051 26.1641 61.051 26.1641 61.0413 26.2558C60.5877 30.4428 59.5059 34.5186 57.8167 38.3763C57.7682 38.4873 57.7205 38.5986 57.673 38.71C57.4885 39.1409 57.2888 39.5622 57.0749 39.9792C57.0072 40.1115 56.9401 40.2441 56.873 40.3767C56.4377 41.2357 55.984 42.0786 55.4849 42.9027C55.4514 42.9581 55.4179 43.0134 55.3834 43.0705C54.992 43.7166 54.5958 44.3588 54.167 44.9809C54.1367 45.0251 54.1063 45.0694 54.0751 45.1149C53.7151 45.6395 53.3546 46.1619 52.9615 46.6624C52.8467 46.8088 52.7352 46.9573 52.6241 47.1067C52.235 47.6264 51.8322 48.1326 51.4104 48.6261C51.2875 48.7702 51.1684 48.917 51.0496 49.0645C50.8404 49.3217 50.6187 49.5651 50.3935 49.808C50.2892 49.921 50.1871 50.035 50.0866 50.1511C49.7133 50.5803 49.3256 50.9916 48.9209 51.391C48.809 51.5045 48.704 51.6203 48.6007 51.7415C48.4578 51.909 48.3065 52.0408 48.135 52.1787C48.0497 52.2624 47.9655 52.347 47.8816 52.4321C47.7244 52.5907 47.567 52.749 47.4096 52.9073C47.3682 52.9492 47.3268 52.991 47.2841 53.0341C47.0642 53.2548 46.8412 53.4678 46.6048 53.6708C46.5199 53.7441 46.4371 53.8191 46.355 53.8956C46.3089 53.9385 46.2627 53.9814 46.2152 54.0257C46.1448 54.0914 46.1448 54.0914 46.0731 54.1585C45.9554 54.2569 45.9554 54.2569 45.8541 54.2569C45.8541 54.2904 45.8541 54.3238 45.8541 54.3583C45.7797 54.4258 45.7018 54.4895 45.6228 54.5515C45.3851 54.7414 45.1544 54.9369 44.9258 55.1376C44.6556 55.3737 44.3803 55.6006 44.0967 55.8203C43.9076 55.9667 43.7217 56.1163 43.5372 56.2684C43.0951 56.6324 42.6383 56.9731 42.1753 57.3099C42.0534 57.3989 41.9321 57.4888 41.8111 57.579C41.2589 57.99 40.6976 58.3844 40.1263 58.7682C40.0742 58.8032 40.0222 58.8383 39.9685 58.8744C38.9829 59.5373 37.9914 60.1905 36.9686 60.795C36.8557 60.8622 36.7435 60.9307 36.6313 60.9989C36.1667 61.2806 35.6943 61.5486 35.2221 61.8172C34.9389 61.9784 34.6564 62.1404 34.3755 62.3055C34.1737 62.4235 33.9721 62.5346 33.7617 62.6364C33.4333 62.7978 33.1098 62.9673 32.7865 63.1388C32.4858 63.2977 32.1829 63.4513 31.8767 63.5994C31.726 63.6734 31.5875 63.7513 31.4482 63.8456C31.3231 63.9275 31.2521 63.9684 31.1069 63.9859C31.0607 63.9929 31.0607 63.9929 31.0136 64C30.6886 63.9686 30.3701 63.748 30.0868 63.5963C29.8055 63.4468 29.5238 63.2993 29.2377 63.1591C28.7857 62.9349 28.3452 62.6894 27.9031 62.4463C27.7647 62.3706 27.6259 62.2957 27.4868 62.2211C26.792 61.8477 26.1129 61.4503 25.4365 61.0448C25.2851 60.9541 25.1335 60.8637 24.9819 60.7734C24.5516 60.5167 24.1235 60.2576 23.7032 59.9847C23.6371 59.9422 23.5711 59.8997 23.505 59.8572C22.4352 59.1684 21.3856 58.4539 20.3578 57.7037C20.2986 57.6607 20.2986 57.6607 20.2383 57.6168C19.3928 57.0007 18.5683 56.3606 17.7592 55.6975C17.6809 55.6334 17.6023 55.5697 17.5236 55.5061C16.8996 55.0009 16.2999 54.4672 15.7065 53.9267C15.6378 53.8643 15.6378 53.8643 15.5677 53.8007C15.5264 53.7631 15.4851 53.7255 15.4426 53.6867C15.3455 53.5958 15.3455 53.5958 15.2382 53.5473C15.2382 53.5138 15.2382 53.4804 15.2382 53.4459C15.2092 53.4336 15.1802 53.4212 15.1503 53.4085C15.015 53.3331 14.9271 53.2441 14.82 53.1323C14.6868 52.9934 14.5509 52.8629 14.4044 52.7382C14.1154 52.4877 13.8478 52.2151 13.5779 51.9443C13.4865 51.8526 13.3948 51.7611 13.303 51.6697C13.0339 51.4007 12.7666 51.1326 12.5213 50.8413C12.4425 50.7504 12.3588 50.6662 12.2729 50.582C12.086 50.3976 11.8993 50.2088 11.7407 49.9991C11.7407 49.9656 11.7407 49.9322 11.7407 49.8977C11.7073 49.8977 11.6738 49.8977 11.6393 49.8977C11.5687 49.819 11.5018 49.737 11.4366 49.6538C11.2758 49.4524 11.1118 49.2596 10.936 49.0708C10.6928 48.8065 10.4724 48.5287 10.2527 48.245C10.1369 48.0955 10.0177 47.9492 9.89692 47.8036C9.4158 47.2179 8.96675 46.6094 8.53288 45.9882C8.41742 45.8229 8.29937 45.6597 8.17985 45.4973C7.97212 45.2128 7.77716 44.9208 7.58426 44.6261C7.56368 44.5949 7.54311 44.5637 7.52191 44.5315C6.91238 43.6061 6.35415 42.6513 5.81016 41.6862C5.78644 41.6444 5.76272 41.6026 5.73828 41.5595C5.38216 40.9308 5.06086 40.2897 4.75511 39.6351C4.70409 39.526 4.6526 39.4171 4.60076 39.3084C3.89749 37.8231 3.28363 36.3025 2.76885 34.7418C2.75807 34.7093 2.74729 34.6768 2.73618 34.6432C2.35412 33.489 2.03007 32.3272 1.75508 31.143C1.74702 31.1086 1.73896 31.0742 1.73066 31.0387C1.32919 29.3241 1.07258 27.585 0.89971 25.8333C0.891837 25.7546 0.891837 25.7546 0.883805 25.6742C0.765709 24.4757 0.732593 23.2804 0.7347 22.0765C0.734972 21.8924 0.7347 21.7083 0.734378 21.5242C0.733949 20.3704 0.775781 19.2239 0.880702 18.0748C0.885035 18.0265 0.889367 17.9782 0.893832 17.9285C0.980255 16.9723 1.10149 16.0234 1.24819 15.0747C1.25708 15.0166 1.26597 14.9584 1.27512 14.8985C1.38383 14.1944 1.52007 13.4975 1.67038 12.8011C1.70524 12.6377 1.73879 12.474 1.77211 12.3102C2.17628 10.3422 2.7454 8.40508 3.39612 6.50519C3.40833 6.46945 3.42055 6.4337 3.43313 6.39686C3.58207 5.96262 3.74275 5.53509 3.91742 5.11052C4.00694 4.88195 4.07938 4.65055 4.14951 4.41528C4.28745 4.20334 4.46144 4.15752 4.69501 4.07531C4.74067 4.05921 4.74067 4.05921 4.78724 4.04278C5.04901 3.95111 5.31224 3.86408 5.57572 3.77752C5.65887 3.75005 5.74201 3.72258 5.82514 3.69509C6.02327 3.62968 6.22151 3.56461 6.41982 3.49975C6.50437 3.4721 6.5889 3.44438 6.67342 3.41664C6.94226 3.32873 7.21205 3.24448 7.48288 3.16292C7.53486 3.14724 7.58684 3.13156 7.64039 3.1154C12.034 1.79808 16.5547 0.933859 22.3057 0.336909C22.4572 0.322321 22.6087 0.307216 22.7602 0.291898C25.2805 0.0446366 27.8069 -0.00557076 30.337 0.000685216ZM23.7355 0.611074C23.4232 0.640587 23.1102 0.659187 22.7971 0.679186C22.3441 0.709098 21.8971 0.752963 21.4493 0.828579C21.1863 0.87145 20.9252 0.891395 20.6593 0.904711C20.2167 0.927538 19.7823 0.98274 19.344 1.04668C19.2652 1.05791 19.1865 1.06911 19.1078 1.0803C17.3679 1.31039 17.3679 1.31039 15.6469 1.64227C15.3307 1.71456 15.016 1.77389 14.6947 1.82007C14.2652 1.88458 13.8369 1.96316 13.4166 2.07312C13.1828 2.13401 12.9483 2.179 12.7101 2.21885C12.3592 2.27815 12.0119 2.34971 11.6647 2.42794C11.6187 2.43816 11.5727 2.44837 11.5253 2.4589C11.2731 2.5166 11.0309 2.58689 10.7866 2.67133C10.643 2.71739 10.4983 2.74807 10.3509 2.7791C10.0622 2.8431 9.77705 2.92195 9.49141 2.99818C9.45791 3.00711 9.42441 3.01604 9.3899 3.02523C8.48924 3.26498 8.48924 3.26498 7.60803 3.56693C7.36353 3.6603 7.13021 3.73375 6.87244 3.78089C6.30282 3.89245 6.30282 3.89245 5.87379 4.2525C5.72397 4.58592 5.6592 4.94044 5.59434 5.29845C5.54416 5.56005 5.47513 5.81515 5.40638 6.07237C4.92512 7.8784 4.59638 9.72736 4.34019 11.5772C4.33447 11.6181 4.32875 11.659 4.32286 11.7011C3.79516 15.5018 3.79439 19.4495 4.44157 23.2356C4.45117 23.2925 4.45117 23.2925 4.46097 23.3506C4.93433 26.1549 5.6868 28.8674 6.77324 31.4978C6.79783 31.5575 6.82242 31.6172 6.84776 31.6787C7.52764 33.3165 8.31779 34.9201 9.26806 36.4189C9.34115 36.5385 9.40915 36.6585 9.47616 36.7815C9.61633 37.0356 9.77233 37.2778 9.93177 37.5202C9.96097 37.5648 9.99017 37.6094 10.0203 37.6554C10.1036 37.7826 10.1872 37.9096 10.2707 38.0366C10.308 38.0935 10.3452 38.1504 10.3824 38.2073C10.8723 38.9504 11.3972 39.6658 11.9435 40.3683C11.9672 40.3989 11.9909 40.4295 12.0153 40.4611C12.7654 41.4296 13.5522 42.3685 14.3893 43.263C14.4556 43.3347 14.5212 43.4071 14.5864 43.4798C15.0019 43.9404 15.4391 44.3785 15.8782 44.8165C16.0085 44.9465 16.1385 45.0768 16.2685 45.2071C16.3524 45.291 16.4363 45.3749 16.5203 45.4587C16.5777 45.5163 16.5777 45.5163 16.6363 45.575C16.8435 45.7813 17.0549 45.9795 17.2768 46.1699C17.4262 46.2993 17.5688 46.4357 17.7124 46.5713C18.0094 46.8491 18.3174 47.1084 18.6343 47.3633C18.7553 47.4618 18.8756 47.5612 18.9955 47.6611C19.0388 47.6964 19.0388 47.6964 19.0829 47.7325C19.2163 47.844 19.2879 47.9047 19.344 48.0729C19.3126 48.0773 19.2811 48.0817 19.2487 48.0862C18.9358 48.1358 18.6478 48.2174 18.349 48.3216C17.9139 48.4703 17.4671 48.5764 17.0219 48.6902C16.7374 48.7635 16.4534 48.8394 16.1696 48.9156C16.0852 48.9383 16.0852 48.9383 15.9991 48.9614C15.7258 49.0353 15.4542 49.1117 15.1844 49.1976C14.9405 49.2749 14.6951 49.3383 14.4462 49.3972C14.4123 49.4052 14.3784 49.4133 14.3434 49.4215C14.1015 49.4774 13.8582 49.5224 13.6138 49.566C13.3486 49.6149 13.0849 49.671 12.821 49.7266C12.7655 49.7383 12.71 49.7499 12.6528 49.7619C12.5177 49.7902 12.3827 49.8186 12.2476 49.847C12.3381 50.0403 12.4605 50.1835 12.6056 50.3381C12.6304 50.3648 12.6552 50.3916 12.6808 50.4192C12.8688 50.6209 13.063 50.8157 13.2594 51.0093C13.3553 51.1067 13.445 51.2067 13.5338 51.3106C13.8218 51.6454 14.1358 51.9584 14.4702 52.2466C14.7223 52.4654 14.9539 52.7028 15.1875 52.941C15.3863 53.1421 15.5901 53.3333 15.8044 53.5178C15.9276 53.6242 16.0469 53.7346 16.1664 53.8451C16.3915 54.0504 16.623 54.2445 16.8601 54.4357C17.0375 54.5818 17.2101 54.7327 17.383 54.8842C17.6532 55.1202 17.9285 55.3471 18.2121 55.5668C18.4012 55.7133 18.5871 55.8629 18.7716 56.015C19.2138 56.3789 19.6705 56.7197 20.1335 57.0564C20.2554 57.1455 20.3767 57.2354 20.4977 57.3256C21.0498 57.7365 21.6116 58.1304 22.1825 58.5148C22.2442 58.5565 22.3058 58.5983 22.3675 58.6401C23.6774 59.5241 25.024 60.3558 26.3897 61.1506C26.4429 61.1816 26.4961 61.2126 26.551 61.2446C27.4653 61.7762 28.3918 62.282 29.3299 62.7705C29.4318 62.8237 29.5335 62.8773 29.6352 62.931C29.7987 63.0173 29.9627 63.1026 30.1272 63.1872C30.2174 63.2339 30.3072 63.2814 30.3969 63.3289C30.4787 63.3705 30.4787 63.3705 30.5622 63.4129C30.6331 63.4497 30.6331 63.4497 30.7054 63.4872C31.0351 63.5913 31.3106 63.4478 31.5997 63.2991C31.6367 63.2805 31.6737 63.262 31.7117 63.2429C31.8314 63.1828 31.9507 63.1219 32.07 63.0609C32.153 63.0188 32.2361 62.9768 32.3191 62.9348C32.8871 62.6467 33.45 62.3503 34.0057 62.0392C34.1608 61.9528 34.3164 61.8674 34.4721 61.7822C35.2017 61.3815 35.9198 60.965 36.6306 60.532C36.7734 60.4454 36.9168 60.3598 37.0604 60.2746C37.8699 59.7917 38.6512 59.268 39.4328 58.7416C39.604 58.6263 39.7759 58.5119 39.9479 58.3977C40.1808 58.2426 40.4113 58.0844 40.6395 57.9223C40.6755 57.8968 40.7116 57.8712 40.7487 57.8449C40.8623 57.7642 40.9758 57.6833 41.0893 57.6024C41.1453 57.5626 41.1453 57.5626 41.2023 57.5221C41.7484 57.1338 42.2818 56.7318 42.8081 56.3172C42.9084 56.2383 43.0089 56.1596 43.1096 56.0811C43.6397 55.667 44.1593 55.2411 44.6718 54.8054C44.7832 54.7107 44.895 54.6165 45.0072 54.5226C45.3317 54.2508 45.6481 53.9726 45.958 53.6843C46.069 53.5816 46.1822 53.4819 46.2964 53.3828C46.9383 52.8218 47.5435 52.2209 48.1454 51.6174C48.2662 51.4963 48.3874 51.3754 48.5086 51.2545C48.5869 51.1762 48.6652 51.0978 48.7435 51.0194C48.779 50.9839 48.8146 50.9485 48.8512 50.912C49.051 50.7113 49.2417 50.5056 49.4257 50.2903C49.4982 50.208 49.5735 50.1319 49.6525 50.0561C49.7688 49.9613 49.7688 49.9613 49.7571 49.847C49.6542 49.8264 49.5512 49.8059 49.4483 49.7853C49.3568 49.767 49.2653 49.7486 49.1738 49.7303C48.9506 49.6855 48.7273 49.641 48.5037 49.5981C47.4694 49.3984 46.44 49.1629 45.4278 48.8705C45.266 48.8246 45.1036 48.7805 44.9413 48.7364C43.7749 48.4194 43.7749 48.4194 43.2107 48.2232C43.0292 48.1618 42.8476 48.1149 42.6607 48.0729C42.7408 47.8509 42.9152 47.727 43.0915 47.5819C43.1561 47.5277 43.2207 47.4734 43.2852 47.4191C43.317 47.3925 43.3487 47.3658 43.3815 47.3384C43.5463 47.1986 43.7057 47.0529 43.8657 46.9077C43.97 46.8134 44.0753 46.7206 44.1813 46.6283C44.9026 45.9987 45.5981 45.3429 46.2771 44.6682C46.333 44.6127 46.3889 44.5573 46.4449 44.502C46.5238 44.424 46.6024 44.3456 46.6809 44.2671C46.7267 44.2215 46.7725 44.1759 46.8197 44.129C46.9297 44.03 46.9297 44.03 46.9185 43.9165C46.9687 43.8997 47.0189 43.883 47.0706 43.8658C47.1534 43.7849 47.1534 43.7849 47.2341 43.6846C47.4156 43.4707 47.6059 43.2674 47.7992 43.0643C48.3375 42.5241 48.3375 42.5241 48.7433 41.8889C48.7768 41.8889 48.8102 41.8889 48.8447 41.8889C48.9301 41.7894 49.0097 41.6893 49.0886 41.5848C49.1392 41.5189 49.1899 41.4531 49.2407 41.3874C49.2672 41.353 49.2937 41.3186 49.3211 41.2831C49.4255 41.1496 49.533 41.0189 49.6409 40.8882C50.037 40.4079 50.4067 39.91 50.7708 39.4052C50.7966 39.3696 50.8224 39.334 50.849 39.2974C51.8246 37.9485 52.8133 36.5031 53.5336 34.9985C53.612 34.8378 53.6954 34.6805 53.7797 34.5229C54.3308 33.4912 54.8157 32.4315 55.2664 31.3525C55.3236 31.2157 55.3816 31.0792 55.4397 30.9428C55.7934 30.0997 56.0671 29.2249 56.3466 28.3551C56.3662 28.2942 56.3858 28.2334 56.4061 28.1707C56.703 27.2397 56.9225 26.2921 57.1344 25.3389C57.1829 25.1211 57.2339 24.9041 57.2867 24.6873C57.3931 24.2268 57.4623 23.7594 57.5346 23.2926C57.5423 23.2431 57.55 23.1936 57.558 23.1426C57.6683 22.4298 57.7628 21.7166 57.8356 20.9989C57.8416 20.9402 57.8416 20.9402 57.8477 20.8802C57.9375 19.9917 57.9767 19.1043 57.9771 18.2115C57.9773 18.1266 57.9775 18.0417 57.9776 17.9568C57.9779 17.7802 57.978 17.6036 57.978 17.427C57.978 17.2494 57.9784 17.0718 57.979 16.8943C57.9832 15.8097 57.9661 14.7363 57.8672 13.6554C57.863 13.6092 57.8588 13.5629 57.8545 13.5153C57.8291 13.2417 57.8 12.9686 57.769 12.6955C57.7601 12.6151 57.7511 12.5346 57.7422 12.4542C57.312 8.18166 57.312 8.18166 55.9918 4.126C55.8763 4.07599 55.8763 4.07599 55.735 4.03274C55.6821 4.01546 55.6292 3.99818 55.5747 3.98037C55.5189 3.96257 55.4631 3.94476 55.4057 3.92642C55.2968 3.89118 55.188 3.85587 55.0792 3.82049C55.0009 3.79506 55.0009 3.79506 54.9211 3.76913C54.7352 3.70714 54.5527 3.63869 54.3697 3.56843C54.0745 3.46144 53.7766 3.37961 53.4716 3.30529C53.0455 3.20028 52.6224 3.08361 52.2 2.96471C51.858 2.86861 51.5165 2.77781 51.1696 2.70059C50.8409 2.62587 50.5134 2.54542 50.1858 2.46567C49.7909 2.3702 49.3944 2.28342 48.9967 2.19984C48.9077 2.18102 48.9077 2.18102 48.8168 2.16182C48.1437 2.02012 47.4711 1.87882 46.7927 1.76523C46.6315 1.73797 46.4705 1.70991 46.3095 1.68187C46.1788 1.65916 46.0481 1.63645 45.9174 1.61376C45.8562 1.6031 45.7949 1.59245 45.7318 1.58147C45.1785 1.48591 44.6255 1.39835 44.0681 1.33041C43.7532 1.29172 43.4389 1.24873 43.1246 1.20528C41.9239 1.03979 40.7262 0.879887 39.518 0.780563C39.4225 0.772517 39.327 0.764465 39.2315 0.756407C39.09 0.74453 38.9485 0.73285 38.8069 0.721695C38.4814 0.695707 38.1566 0.66482 37.8318 0.631468C33.2195 0.163536 28.3511 0.141075 23.7355 0.611074Z" fill="black"/>
<path d="M31.0513 42.9119C31.1687 42.9596 31.2752 43.0156 31.385 43.0791C31.4535 43.1184 31.4535 43.1184 31.5234 43.1584C31.5726 43.1869 31.6218 43.2153 31.6725 43.2446C32.8593 43.9239 32.8593 43.9239 34.0843 44.5301C34.3586 44.656 34.625 44.7943 34.8912 44.9363C35.3622 45.1867 35.8297 45.4254 36.3358 45.5984C36.6726 45.7149 36.9957 45.8556 37.3211 46.0008C38.2338 46.4073 39.1544 46.7943 40.1004 47.1168C40.3787 47.2131 40.6555 47.3141 40.9326 47.4137C41.3806 47.5746 41.829 47.733 42.2833 47.8756C42.4272 47.9218 42.5549 47.9696 42.6845 48.0481C42.8464 48.1442 43.0145 48.1911 43.1946 48.2406C43.2725 48.2626 43.3504 48.2848 43.4282 48.3069C43.4686 48.3183 43.5091 48.3298 43.5507 48.3415C43.6693 48.3757 43.7872 48.4116 43.905 48.4483C44.5243 48.6405 45.1497 48.8003 45.7793 48.955C46.0232 49.0149 46.266 49.0774 46.5083 49.1435C47.1769 49.3238 47.8497 49.4832 48.5313 49.6056C48.7881 49.6517 49.0437 49.7035 49.2994 49.7549C49.3446 49.764 49.3898 49.7731 49.4364 49.7824C49.5428 49.8038 49.6492 49.8253 49.7556 49.8468C49.6734 50.0213 49.582 50.131 49.4419 50.265C49.3006 50.4006 49.1679 50.5393 49.0407 50.688C48.8336 50.9256 48.6134 51.1483 48.3904 51.3708C48.3479 51.4133 48.3055 51.4557 48.2618 51.4995C48.1726 51.5887 48.0834 51.6778 47.9941 51.7669C47.8583 51.9024 47.7228 52.0382 47.5874 52.174C47.5002 52.2611 47.4131 52.3482 47.3259 52.4353C47.2859 52.4754 47.2458 52.5155 47.2046 52.5569C46.9932 52.7674 46.7782 52.9702 46.5516 53.1642C46.3931 53.3016 46.2423 53.4472 46.0902 53.5914C45.8254 53.8406 45.5559 54.0766 45.2718 54.3036C45.1404 54.4108 45.0148 54.5225 44.8895 54.6368C44.6768 54.8302 44.4582 55.0141 44.2347 55.1948C44.1221 55.2858 44.0101 55.3774 43.8985 55.4696C43.4393 55.8479 42.9686 56.208 42.4913 56.563C42.2971 56.7074 42.1055 56.8545 41.9147 57.0034C41.5672 57.2717 41.2086 57.5234 40.8485 57.7746C40.7334 57.8553 40.6188 57.9366 40.5043 58.0181C39.7661 58.542 39.0093 59.0368 38.2493 59.5283C38.2039 59.5577 38.1584 59.5871 38.1117 59.6174C37.4211 60.0632 36.714 60.4814 36.0048 60.8965C35.9195 60.9465 35.8342 60.9965 35.7489 61.0465C34.541 61.7535 33.3083 62.4108 32.0632 63.0495C31.9278 63.1196 31.7935 63.1912 31.6594 63.2636C31.6223 63.2832 31.5853 63.3028 31.5471 63.323C31.4532 63.3728 31.3597 63.4233 31.2662 63.4739C31.0074 63.5667 30.792 63.5097 30.548 63.3975C30.4753 63.3614 30.4028 63.3248 30.3306 63.2877C30.2914 63.2681 30.2521 63.2484 30.2117 63.2282C30.0848 63.1644 29.9583 63.0999 29.8318 63.0353C29.7439 62.9908 29.656 62.9463 29.5681 62.9019C28.9406 62.5837 28.3183 62.2575 27.7061 61.9106C27.6501 61.879 27.594 61.8473 27.5363 61.8146C27.1187 61.5782 26.7024 61.3396 26.2868 61.0996C26.2226 61.0626 26.2226 61.0626 26.1571 61.0247C24.246 59.919 22.3911 58.7034 20.6097 57.3994C20.5703 57.3707 20.5309 57.3419 20.4903 57.3124C19.4641 56.5641 18.4633 55.7844 17.4967 54.9604C17.3261 54.8152 17.1534 54.673 16.9791 54.5323C16.7376 54.3358 16.5071 54.1292 16.278 53.9185C16.1709 53.8204 16.0626 53.7243 15.9527 53.6294C15.517 53.25 15.0981 52.8544 14.6922 52.4434C14.5905 52.3431 14.4867 52.249 14.3782 52.1563C14.0473 51.8723 13.732 51.5608 13.4499 51.228C13.2395 50.9807 13.0057 50.756 12.7741 50.5287C12.5862 50.3433 12.4067 50.158 12.2461 49.9482C12.2461 49.9147 12.2461 49.8812 12.2461 49.8468C12.2942 49.8369 12.2942 49.8369 12.3433 49.8267C14.331 49.4162 16.287 48.9164 18.2337 48.342C18.4741 48.271 18.7146 48.2005 18.956 48.1329C19.0193 48.1151 19.0193 48.1151 19.0839 48.097C19.1904 48.0727 19.1904 48.0727 19.3425 48.0727C19.3425 48.0392 19.3425 48.0058 19.3425 47.9713C19.3969 47.953 19.4514 47.9347 19.5075 47.9158C21.4351 47.2667 23.3428 46.5804 25.2012 45.7497C25.443 45.6425 25.6769 45.5568 25.932 45.4876C26.041 45.4412 26.041 45.4412 26.1347 45.3894C26.2853 45.3092 26.4387 45.2408 26.5957 45.1743C27.1079 44.9541 27.6059 44.7043 28.0968 44.4408C28.3289 44.3163 28.5627 44.1971 28.7991 44.081C29.155 43.9051 29.5048 43.7185 29.854 43.5297C29.9046 43.5024 29.9552 43.4751 30.0074 43.447C30.2924 43.2922 30.5691 43.131 30.8402 42.9527C30.9501 42.9025 30.9501 42.9025 31.0513 42.9119Z" fill="#FED005"/>
<path d="M31.0513 42.9119C31.1687 42.9596 31.2752 43.0156 31.385 43.0791C31.4535 43.1184 31.4535 43.1184 31.5234 43.1584C31.5726 43.1869 31.6218 43.2153 31.6725 43.2446C32.8593 43.9239 32.8593 43.9239 34.0843 44.5301C34.3586 44.656 34.625 44.7943 34.8912 44.9363C35.3622 45.1867 35.8297 45.4254 36.3358 45.5984C36.6726 45.7149 36.9957 45.8556 37.3211 46.0008C38.2338 46.4073 39.1544 46.7943 40.1004 47.1168C40.3787 47.2131 40.6555 47.3141 40.9326 47.4137C41.3806 47.5746 41.829 47.733 42.2833 47.8756C42.4272 47.9218 42.5549 47.9696 42.6845 48.0481C42.8464 48.1442 43.0145 48.1911 43.1946 48.2406C43.2725 48.2626 43.3504 48.2848 43.4282 48.3069C43.4686 48.3183 43.5091 48.3298 43.5507 48.3415C43.6693 48.3757 43.7872 48.4116 43.905 48.4483C44.5243 48.6405 45.1497 48.8003 45.7793 48.955C46.0232 49.0149 46.266 49.0774 46.5083 49.1435C47.1769 49.3238 47.8497 49.4832 48.5313 49.6056C48.7881 49.6517 49.0437 49.7035 49.2994 49.7549C49.3446 49.764 49.3898 49.7731 49.4364 49.7824C49.5428 49.8038 49.6492 49.8253 49.7556 49.8468C49.6734 50.0213 49.582 50.131 49.4419 50.265C49.3006 50.4006 49.1679 50.5393 49.0407 50.688C48.8336 50.9256 48.6134 51.1483 48.3904 51.3708C48.3479 51.4133 48.3055 51.4557 48.2618 51.4995C48.1726 51.5887 48.0834 51.6778 47.9941 51.7669C47.8583 51.9024 47.7228 52.0382 47.5874 52.174C47.5002 52.2611 47.4131 52.3482 47.3259 52.4353C47.2859 52.4754 47.2458 52.5155 47.2046 52.5569C46.9932 52.7674 46.7782 52.9702 46.5516 53.1642C46.3931 53.3016 46.2423 53.4472 46.0902 53.5914C45.8254 53.8406 45.5559 54.0766 45.2718 54.3036C45.1404 54.4108 45.0148 54.5225 44.8895 54.6368C44.6768 54.8302 44.4582 55.0141 44.2347 55.1948C44.1221 55.2858 44.0101 55.3774 43.8985 55.4696C43.4393 55.8479 42.9686 56.208 42.4913 56.563C42.2971 56.7074 42.1055 56.8545 41.9147 57.0034C41.5672 57.2717 41.2086 57.5234 40.8485 57.7746C40.7334 57.8553 40.6188 57.9366 40.5043 58.0181C39.7661 58.542 39.0093 59.0368 38.2493 59.5283C38.2039 59.5577 38.1584 59.5871 38.1117 59.6174C37.4211 60.0632 36.714 60.4814 36.0048 60.8965C35.9195 60.9465 35.8342 60.9965 35.7489 61.0465C34.541 61.7535 33.3083 62.4108 32.0632 63.0495C31.9278 63.1196 31.7935 63.1912 31.6594 63.2636C31.6223 63.2832 31.5853 63.3028 31.5471 63.323C31.4532 63.3728 31.3597 63.4233 31.2662 63.4739C31.0074 63.5667 30.792 63.5097 30.548 63.3975C30.4753 63.3614 30.4028 63.3248 30.3306 63.2877C30.2914 63.2681 30.2521 63.2484 30.2117 63.2282C30.0848 63.1644 29.9583 63.0999 29.8318 63.0353C29.7439 62.9908 29.656 62.9463 29.5681 62.9019C28.9406 62.5837 28.3183 62.2575 27.7061 61.9106C27.6501 61.879 27.594 61.8473 27.5363 61.8146C27.1187 61.5782 26.7024 61.3396 26.2868 61.0996C26.2226 61.0626 26.2226 61.0626 26.1571 61.0247C24.246 59.919 22.3911 58.7034 20.6097 57.3994C20.5703 57.3707 20.5309 57.3419 20.4903 57.3124C19.4641 56.5641 18.4633 55.7844 17.4967 54.9604C17.3261 54.8152 17.1534 54.673 16.9791 54.5323C16.7376 54.3358 16.5071 54.1292 16.278 53.9185C16.1709 53.8204 16.0626 53.7243 15.9527 53.6294C15.517 53.25 15.0981 52.8544 14.6922 52.4434C14.5905 52.3431 14.4867 52.249 14.3782 52.1563C14.0473 51.8723 13.732 51.5608 13.4499 51.228C13.2395 50.9807 13.0057 50.756 12.7741 50.5287C12.5862 50.3433 12.4067 50.158 12.2461 49.9482C12.2461 49.9147 12.2461 49.8812 12.2461 49.8468C12.2942 49.8369 12.2942 49.8369 12.3433 49.8267C14.331 49.4162 16.287 48.9164 18.2337 48.342C18.4741 48.271 18.7146 48.2005 18.956 48.1329C19.0193 48.1151 19.0193 48.1151 19.0839 48.097C19.1904 48.0727 19.1904 48.0727 19.3425 48.0727C19.3425 48.0392 19.3425 48.0058 19.3425 47.9713C19.3969 47.953 19.4514 47.9347 19.5075 47.9158C21.4351 47.2667 23.3428 46.5804 25.2012 45.7497C25.443 45.6425 25.6769 45.5568 25.932 45.4876C26.041 45.4412 26.041 45.4412 26.1347 45.3894C26.2853 45.3092 26.4387 45.2408 26.5957 45.1743C27.1079 44.9541 27.6059 44.7043 28.0968 44.4408C28.3289 44.3163 28.5627 44.1971 28.7991 44.081C29.155 43.9051 29.5048 43.7185 29.854 43.5297C29.9046 43.5024 29.9552 43.4751 30.0074 43.447C30.2924 43.2922 30.5691 43.131 30.8402 42.9527C30.9501 42.9025 30.9501 42.9025 31.0513 42.9119ZM33.6873 45.0821C33.7008 45.1359 33.7142 45.1897 33.7281 45.2452C33.8358 45.6761 33.8358 45.6761 33.8627 45.7846C33.881 45.8571 33.8999 45.9294 33.9194 46.0016C33.9699 46.191 33.9961 46.3567 33.9915 46.552C33.9488 46.5648 33.9062 46.5775 33.8623 46.5907C33.7009 46.639 33.5394 46.6874 33.378 46.7358C33.3087 46.7565 33.2395 46.7773 33.1702 46.798C32.7641 46.9196 32.3584 47.0422 31.9534 47.1673C31.838 47.2029 31.7225 47.2383 31.6069 47.2733C31.528 47.2974 31.528 47.2974 31.4475 47.3219C31.3935 47.3383 31.3395 47.3547 31.2838 47.3716C31.1554 47.4093 31.1554 47.4093 31.0515 47.4644C30.753 47.4911 30.5678 47.4399 30.2961 47.3219C30.1053 47.2487 29.9128 47.2 29.7146 47.1508C29.2726 47.0399 28.8395 46.9049 28.4062 46.7643C28.3739 46.7538 28.3416 46.7433 28.3084 46.7325C28.1244 46.6727 27.9405 46.6125 27.7568 46.552C27.7857 46.3628 27.8222 46.1828 27.8789 46C27.8925 45.9557 27.9061 45.9114 27.92 45.8657C27.9341 45.8204 27.9482 45.7751 27.9627 45.7283C27.9909 45.6373 28.0189 45.5462 28.0468 45.4551C28.0655 45.3951 28.0655 45.3951 28.0845 45.3339C28.116 45.235 28.116 45.235 28.1116 45.1327C26.7418 45.313 25.1942 46.2665 24.2086 47.211C24.2086 47.2444 24.2086 47.2779 24.2086 47.3124C24.1801 47.3244 24.1516 47.3364 24.1222 47.3488C23.9795 47.4284 23.8801 47.526 23.7651 47.6418C23.7245 47.6821 23.684 47.7223 23.6423 47.7638C23.5385 47.8592 23.5385 47.8592 23.5496 47.9713C23.5162 47.9713 23.4827 47.9713 23.4482 47.9713C23.3563 48.0717 23.3563 48.0717 23.2645 48.1962C23.2165 48.2589 23.2165 48.2589 23.1675 48.3228C23.0886 48.413 23.0886 48.413 23.0934 48.4782C23.2581 48.5038 23.4229 48.529 23.5876 48.5542C23.6343 48.5615 23.681 48.5687 23.729 48.5762C23.7741 48.5831 23.8192 48.5899 23.8656 48.597C23.907 48.6034 23.9485 48.6097 23.9911 48.6163C24.1213 48.6343 24.1213 48.6343 24.31 48.6303C24.3094 48.6635 24.3088 48.6968 24.3082 48.731C24.3033 49.2479 24.3363 49.7616 24.368 50.2773C24.3951 50.723 24.4177 51.1688 24.4258 51.6153C24.4271 51.6532 24.4284 51.691 24.4298 51.73C24.4314 51.9059 24.4199 52.0123 24.3272 52.1638C24.2265 52.265 24.1203 52.3468 24.0058 52.4319C23.946 52.4969 23.8879 52.5634 23.8316 52.6315C23.6657 52.8246 23.4872 53.002 23.3061 53.1807C23.173 53.3157 23.0498 53.4574 22.9265 53.6013C22.7867 53.7594 22.6364 53.9068 22.4852 54.0539C22.0952 53.9213 21.7357 53.7345 21.37 53.547C21.3523 54.3042 21.4391 54.9793 21.6393 55.7108C21.6537 55.7638 21.6681 55.8168 21.6829 55.8714C21.7844 56.229 21.9159 56.559 22.0797 56.8925C22.1115 56.9578 22.1115 56.9578 22.1439 57.0244C22.3757 57.4923 22.6156 57.9525 22.9192 58.3783C22.9403 58.408 22.9615 58.4377 22.9833 58.4683C23.034 58.5367 23.0887 58.602 23.1441 58.6666C23.1776 58.6666 23.211 58.6666 23.2455 58.6666C23.2952 58.5515 23.3448 58.4364 23.3944 58.3213C23.4085 58.2887 23.4226 58.2561 23.4371 58.2226C23.4965 58.0843 23.5527 57.9477 23.6003 57.8049C24.3794 57.9923 25.153 58.1982 25.911 58.4587C26.2479 58.5674 26.5905 58.6666 26.9458 58.6666C26.9597 58.6961 26.9737 58.7256 26.9882 58.756C27.0451 58.8653 27.1075 58.9605 27.1798 59.0602C27.2061 59.0966 27.2324 59.1329 27.2595 59.1704C27.2877 59.2091 27.3159 59.2477 27.3449 59.2875C27.3741 59.3277 27.4032 59.3678 27.4332 59.4092C27.6773 59.7444 27.925 60.0768 28.1748 60.4078C28.1973 60.4378 28.2198 60.4678 28.243 60.4987C28.294 60.5659 28.3457 60.6326 28.3977 60.699C28.4252 60.7344 28.4526 60.7697 28.4809 60.8062C28.506 60.8381 28.5311 60.87 28.5569 60.9029C28.6214 61.0027 28.6474 61.0849 28.6692 61.201C28.628 61.2181 28.628 61.2181 28.586 61.2354C28.4291 61.3232 28.3053 61.4401 28.175 61.5622C28.1493 61.5859 28.1236 61.6096 28.0971 61.634C28.0342 61.6922 27.9715 61.7507 27.9088 61.8093C27.9518 61.9239 27.9518 61.9239 28.0845 61.9578C29.5351 62.3527 31.1413 62.5044 32.6237 62.1855C32.7265 62.1636 32.8295 62.1443 32.9329 62.1255C33.2929 62.0589 33.6438 61.9753 33.9915 61.8599C33.9132 61.6566 33.7834 61.5585 33.6145 61.4259C33.5201 61.3514 33.4261 61.2765 33.3325 61.201C33.3006 61.1754 33.2686 61.1499 33.2357 61.1236C33.2083 61.0866 33.2083 61.0866 33.1804 61.0489C33.2145 60.822 33.3557 60.6855 33.5036 60.5199C33.5592 60.4563 33.6149 60.3926 33.6705 60.329C33.6987 60.2969 33.727 60.2648 33.7561 60.2317C33.8816 60.0883 34.0048 59.9431 34.1277 59.7976C34.1505 59.7707 34.1733 59.7438 34.1968 59.7161C34.3076 59.5852 34.417 59.4534 34.5243 59.3196C34.5638 59.2703 34.6033 59.221 34.6441 59.1703C34.6956 59.1051 34.6956 59.1051 34.7482 59.0386C34.9957 58.7589 35.2444 58.654 35.5913 58.5399C35.6334 58.5255 35.6755 58.5112 35.7189 58.4965C35.9006 58.4349 36.0828 58.3748 36.265 58.3147C36.5339 58.2255 36.802 58.1344 37.0692 58.0401C37.1258 58.0202 37.1824 58.0002 37.2407 57.9797C37.3572 57.9386 37.4736 57.8973 37.5899 57.8558C37.646 57.8361 37.7021 57.8164 37.7598 57.7962C37.8101 57.7783 37.8604 57.7605 37.9122 57.7422C38.0465 57.7035 38.0465 57.7035 38.2493 57.7035C38.2616 57.7354 38.2739 57.7673 38.2865 57.8001C38.3962 58.0803 38.5163 58.3488 38.6548 58.6159C38.6883 58.6159 38.7217 58.6159 38.7562 58.6159C39.0548 58.2429 39.2972 57.8263 39.528 57.4091C39.5799 57.3156 39.6329 57.2227 39.6888 57.1315C40.0217 56.5812 40.1855 55.9292 40.3396 55.31C40.3782 55.1691 40.3782 55.1691 40.4289 55.1184C40.5607 54.5672 40.5404 54.0079 40.5303 53.4457C40.2768 53.5361 40.0762 53.6792 39.8571 53.8328C39.6912 53.9159 39.6398 53.9053 39.4658 53.8512C39.3722 53.7768 39.3722 53.7768 39.285 53.6809C39.2524 53.6455 39.2197 53.6102 39.186 53.5738C39.1519 53.5357 39.1177 53.4976 39.0825 53.4583C39.0468 53.4195 39.0112 53.3806 38.9745 53.3406C38.9019 53.2615 38.8296 53.1822 38.7576 53.1026C38.6654 53.0011 38.5725 52.9003 38.479 52.8C38.2017 52.5021 38.2017 52.5021 38.1191 52.4082C38.0467 52.3276 38.0467 52.3276 37.9565 52.2547C37.7265 52.0418 37.6662 51.8752 37.6514 51.5626C37.6502 51.4187 37.6534 51.2752 37.6571 51.1314C37.6577 51.0547 37.6582 50.978 37.6586 50.9013C37.6599 50.7006 37.6634 50.5 37.6674 50.2993C37.671 50.0941 37.6726 49.8889 37.6744 49.6836C37.6782 49.2818 37.6842 48.88 37.6917 48.4782C37.744 48.4786 37.744 48.4786 37.7973 48.479C37.843 48.4792 37.8887 48.4794 37.9358 48.4796C37.9811 48.4798 38.0265 48.4801 38.0731 48.4804C38.2074 48.478 38.3284 48.461 38.4584 48.4275C38.4961 48.4181 38.5339 48.4087 38.5728 48.399C38.5999 48.3917 38.6269 48.3843 38.6548 48.3768C38.5882 48.1801 38.5105 48.0631 38.3602 47.9206C38.3056 47.8681 38.3056 47.8681 38.2499 47.8145C38.2162 47.7826 38.1826 47.7507 38.1479 47.7179C37.8945 47.4644 37.8945 47.4644 37.821 47.382C37.2906 46.81 36.5833 46.3774 35.9077 45.9956C35.8469 45.9611 35.7863 45.9263 35.726 45.891C35.0863 45.5173 34.3995 45.2793 33.6873 45.0821Z" fill="#EC1C23"/>
<path d="M37.1533 17.4201C37.2388 17.4264 37.2388 17.4264 37.3261 17.4329C37.4201 17.4402 37.4201 17.4402 37.516 17.4477C37.6521 17.4577 37.7881 17.4677 37.9241 17.4776C37.9595 17.4801 37.9949 17.4827 38.0314 17.4854C38.3352 17.5073 38.6392 17.5245 38.9433 17.541C43.3232 17.7791 43.3232 17.7791 44.2323 18.0147C44.4975 18.0437 44.4975 18.0437 44.736 17.945C44.7928 17.8615 44.7928 17.8615 44.8405 17.7613C44.9242 17.7947 45.0078 17.8282 45.094 17.8627C45.0965 18.1631 45.0983 18.4635 45.0995 18.7639C45.1001 18.8661 45.1007 18.9683 45.1016 19.0705C45.1029 19.2174 45.1034 19.3642 45.1039 19.511C45.1044 19.5568 45.1049 19.6026 45.1055 19.6498C45.1055 19.6924 45.1055 19.735 45.1055 19.7789C45.1057 19.8164 45.1059 19.8539 45.1062 19.8925C45.094 19.9916 45.094 19.9916 44.9926 20.1436C44.9007 20.1341 44.9007 20.1341 44.7898 20.093C44.7712 20.0514 44.7526 20.0099 44.7334 19.9671C44.6445 19.8195 44.6445 19.8195 44.4497 19.7984C44.371 19.7927 44.2921 19.7884 44.2133 19.7851C44.1708 19.7823 44.1283 19.7795 44.0845 19.7767C43.9479 19.768 43.8113 19.7609 43.6747 19.754C43.5416 19.7462 43.4085 19.7381 43.2754 19.7299C43.1864 19.7244 43.0972 19.7191 43.0081 19.7139C42.6692 19.6934 42.3327 19.6602 41.9953 19.6226C41.598 19.5791 41.2003 19.5543 40.8013 19.5322C40.6962 19.5263 40.5912 19.5203 40.4861 19.5141C40.3924 19.5086 40.2986 19.5034 40.2048 19.4981C40.0091 19.4835 39.8143 19.4583 39.6196 19.434C39.6196 19.7518 39.6196 20.0696 39.6196 20.3971C40.6567 20.4473 41.6938 20.4975 42.7623 20.5492C42.7623 20.499 42.7623 20.4488 42.7623 20.3971C42.8961 20.3971 43.0299 20.3971 43.1678 20.3971C43.1691 20.7066 43.17 21.016 43.1706 21.3255C43.1709 21.4309 43.1712 21.5363 43.1716 21.6416C43.1722 21.7927 43.1725 21.9438 43.1728 22.095C43.173 22.1424 43.1733 22.1898 43.1736 22.2386C43.1736 22.2823 43.1736 22.3259 43.1736 22.3709C43.1737 22.4095 43.1738 22.4481 43.1739 22.4879C43.1678 22.5767 43.1678 22.5767 43.1171 22.6274C43.0031 22.6464 43.0031 22.6464 42.8637 22.6274C42.8281 22.5877 42.7926 22.5479 42.756 22.507C42.5412 22.3109 42.3359 22.3022 42.0527 22.2726C41.9994 22.2669 41.9462 22.2613 41.8913 22.2555C41.1538 22.1958 40.4096 22.2177 39.6703 22.2219C39.6536 22.6066 39.6369 22.9913 39.6196 23.3877C40.4787 23.4029 41.3379 23.417 42.197 23.4292C42.5634 23.4345 42.9296 23.4405 43.2959 23.448C43.4716 23.4513 43.6473 23.4537 43.823 23.4557C43.9012 23.4568 43.9794 23.4584 44.0576 23.4604C44.1636 23.4631 44.2696 23.4642 44.3756 23.4649C44.4331 23.4659 44.4905 23.4669 44.5497 23.468C44.7004 23.4518 44.7004 23.4518 44.7841 23.31C44.8027 23.2687 44.8213 23.2275 44.8405 23.185C45.037 23.2293 45.037 23.2293 45.094 23.2863C45.0995 23.354 45.1015 23.4219 45.1021 23.4898C45.1026 23.5329 45.1031 23.576 45.1036 23.6205C45.1039 23.6909 45.1039 23.6909 45.1043 23.7627C45.1046 23.8107 45.1048 23.8586 45.1051 23.908C45.1056 24.0097 45.106 24.1114 45.1062 24.213C45.1066 24.3688 45.1082 24.5245 45.1098 24.6803C45.1101 24.7789 45.1104 24.8775 45.1106 24.9761C45.1112 25.0228 45.1119 25.0695 45.1125 25.1177C45.1124 25.1612 45.1122 25.2046 45.112 25.2494C45.1123 25.3067 45.1123 25.3067 45.1126 25.3652C45.0892 25.4917 45.039 25.537 44.9419 25.618C44.8917 25.6013 44.8415 25.5845 44.7898 25.5673C44.7898 25.5004 44.7898 25.4335 44.7898 25.3646C44.565 25.3097 44.3435 25.3035 44.1133 25.2996C44.0689 25.2987 44.0245 25.2978 43.9787 25.2969C43.8256 25.2938 43.6726 25.2912 43.5195 25.2885C43.4087 25.2864 43.2978 25.2842 43.187 25.2821C42.3834 25.2674 41.5797 25.2603 40.7759 25.2552C40.6033 25.2541 40.4307 25.2528 40.2581 25.2516C40.2008 25.2512 40.1435 25.2507 40.0845 25.2503C39.9682 25.2495 39.852 25.2486 39.7357 25.2477C39.3857 25.2452 39.0357 25.2434 38.6858 25.2421C38.4641 25.2411 38.2424 25.2395 38.0208 25.2377C37.916 25.237 37.8111 25.2366 37.7063 25.2364C37.5617 25.2362 37.4171 25.235 37.2725 25.2336C37.2298 25.2338 37.1871 25.2339 37.1431 25.2341C36.8534 25.2299 36.8534 25.2299 36.7437 25.1416C36.6797 25.0604 36.6797 25.0604 36.6797 24.9591C36.8804 24.8587 36.8804 24.8587 37.0852 24.7563C37.0876 23.8592 37.0894 22.9622 37.0904 22.0651C37.091 21.6486 37.0917 21.2321 37.0928 20.8156C37.0939 20.4527 37.0945 20.0897 37.0947 19.7268C37.0949 19.5346 37.0952 19.3423 37.0959 19.1501C37.0966 18.9692 37.0968 18.7884 37.0967 18.6076C37.0967 18.5093 37.0972 18.411 37.0978 18.3128C37.0977 18.2546 37.0975 18.1965 37.0974 18.1366C37.0975 18.0605 37.0975 18.0605 37.0977 17.9828C37.097 17.8531 37.097 17.8531 36.9838 17.7613C36.9002 17.7254 36.8158 17.6914 36.7304 17.6599C36.7494 17.5617 36.7494 17.5617 36.7811 17.4572C36.9159 17.3898 37.003 17.4085 37.1533 17.4201Z" fill="black"/>
<path d="M26.338 17.3554C26.338 17.439 26.338 17.5226 26.338 17.6088C26.2473 17.6583 26.1565 17.7078 26.0658 17.7573C25.9748 17.8072 25.9748 17.8072 25.9325 17.9129C25.9266 18.0502 25.9236 18.1862 25.9229 18.3235C25.9225 18.3659 25.9221 18.4084 25.9216 18.4521C25.9208 18.5446 25.92 18.6371 25.9193 18.7296C25.9183 18.8765 25.9169 19.0234 25.9154 19.1703C25.9124 19.483 25.9098 19.7957 25.9072 20.1084C25.9042 20.4689 25.901 20.8295 25.8975 21.1901C25.8961 21.3338 25.8951 21.4776 25.894 21.6214C25.8842 22.7544 25.7863 23.5265 24.9502 24.3708C23.7919 25.4602 22.2514 25.3552 20.7623 25.3135C20.1368 25.2903 19.6117 25.159 19.0389 24.9079C18.9984 24.8912 18.9579 24.8745 18.9161 24.8573C18.1938 24.5337 17.653 23.8881 17.3697 23.1657C17.2771 22.8831 17.2498 22.6006 17.2359 22.305C17.2338 22.2619 17.2317 22.2188 17.2295 22.1744C17.2131 21.7927 17.211 21.4111 17.2107 21.029C17.2105 20.9238 17.2102 20.8187 17.2098 20.7135C17.2096 20.6784 17.2095 20.6433 17.2094 20.6072C17.2091 20.5357 17.2088 20.4643 17.2085 20.3928C17.2078 20.2103 17.2078 20.0277 17.2091 19.8452C17.2102 19.6655 17.2096 19.4859 17.2079 19.3063C17.2074 19.2059 17.2087 19.1054 17.21 19.005C17.2201 18.6943 17.2201 18.6943 17.0815 18.4341C16.9746 18.3678 16.9746 18.3678 16.8086 18.3184C16.8086 18.2515 16.8086 18.1846 16.8086 18.1157C17.2684 18.0309 17.7275 17.9799 18.193 17.9383C18.6576 17.8963 19.119 17.8476 19.5805 17.7804C19.7397 17.7619 19.8925 17.7573 20.0527 17.7609C20.0777 17.8863 20.0777 17.8863 20.1033 18.0143C20.0539 18.0396 20.0045 18.065 19.9536 18.0911C19.7827 18.2037 19.7827 18.2037 19.7616 18.3946C19.7603 18.4666 19.7606 18.5386 19.7623 18.6105C19.762 18.65 19.7617 18.6894 19.7614 18.73C19.7608 18.8603 19.7625 18.9905 19.7642 19.1207C19.7643 19.2115 19.7644 19.3023 19.7644 19.3931C19.7646 19.5835 19.7659 19.7739 19.7679 19.9643C19.7705 20.2075 19.7711 20.4508 19.771 20.6941C19.771 20.8817 19.7718 21.0693 19.7729 21.2569C19.7734 21.3465 19.7737 21.4361 19.7738 21.5258C19.7742 21.6516 19.7755 21.7773 19.7771 21.9031C19.777 21.958 19.777 21.958 19.7769 22.0141C19.7831 22.3478 19.8767 22.6142 20.059 22.8931C20.5343 23.3477 21.2093 23.3649 21.8299 23.3524C22.3181 23.3302 22.74 23.1709 23.094 22.8297C23.4224 22.4407 23.4131 21.9622 23.4098 21.476C23.4098 21.3915 23.4098 21.3915 23.4098 21.3052C23.4096 21.1238 23.4087 20.9424 23.4076 20.761C23.4071 20.6368 23.4066 20.5126 23.4061 20.3884C23.4046 20.089 23.4022 19.7896 23.3995 19.4902C23.3982 19.3494 23.3974 19.2086 23.3968 19.0677C23.3957 18.8654 23.3926 18.6633 23.3886 18.461C23.3883 18.4052 23.388 18.3495 23.3877 18.292C23.3838 18.1602 23.3797 18.0408 23.3474 17.9129C23.2288 17.8048 23.2288 17.8048 23.094 17.7609C23.0496 17.6532 23.0496 17.6532 23.0433 17.5581C23.139 17.4624 23.3026 17.4826 23.431 17.471C23.4827 17.4662 23.4827 17.4662 23.5354 17.4614C23.648 17.4511 23.7607 17.4412 23.8733 17.4314C23.9114 17.428 23.9495 17.4246 23.9887 17.4211C26.0949 17.2338 26.0949 17.2338 26.338 17.3554Z" fill="black"/>
<path d="M31.6802 17.2473C31.8704 17.2476 32.0605 17.2473 32.2506 17.247C32.3717 17.247 32.4928 17.2471 32.6139 17.2472C32.6707 17.2471 32.7274 17.247 32.7859 17.2469C32.8376 17.247 32.8893 17.2472 32.9426 17.2474C33.011 17.2474 33.011 17.2474 33.0808 17.2475C33.1842 17.2539 33.1842 17.2539 33.2349 17.3046C33.2369 17.3891 33.237 17.4736 33.2349 17.5581C33.1847 17.5748 33.1345 17.5915 33.0828 17.6087C33.1575 17.8133 33.2323 18.0178 33.3071 18.2222C33.3324 18.2915 33.3578 18.3607 33.383 18.43C33.5289 18.8293 33.6768 19.2276 33.8303 19.6241C33.8976 19.798 33.9639 19.9722 34.0303 20.1465C34.3693 21.0338 34.7291 21.9089 35.1104 22.779C35.1484 22.8666 35.1864 22.9541 35.2244 23.0417C35.4007 23.4455 35.586 23.8427 35.789 24.2338C35.8636 24.3791 35.9265 24.5183 35.977 24.6739C36.0087 24.8141 36.0087 24.8141 36.1273 24.8635C36.1597 24.8782 36.1921 24.8928 36.2255 24.9079C36.2698 25.0093 36.2698 25.0093 36.2762 25.1106C36.1426 25.2442 36.0822 25.2251 35.8958 25.2259C35.8375 25.2264 35.7791 25.2269 35.719 25.2274C35.6557 25.2274 35.5924 25.2273 35.5271 25.2273C35.43 25.2276 35.43 25.2276 35.3309 25.2279C35.1938 25.2282 35.0566 25.2283 34.9194 25.228C34.7436 25.2277 34.5679 25.2286 34.3921 25.2298C34.2245 25.2307 34.0569 25.2305 33.8893 25.2304C33.8261 25.2309 33.7629 25.2314 33.6977 25.2319C33.6392 25.2315 33.5807 25.2312 33.5204 25.2309C33.443 25.2309 33.443 25.2309 33.3641 25.231C33.2349 25.212 33.2349 25.212 33.141 25.1443C33.0828 25.06 33.0828 25.06 33.0828 24.9079C33.1497 24.8744 33.2166 24.841 33.2856 24.8065C33.2702 24.7702 33.2549 24.7339 33.239 24.6965C33.1699 24.5326 33.101 24.3686 33.0321 24.2046C32.9959 24.1188 32.9959 24.1188 32.9589 24.0313C32.936 23.9768 32.9131 23.9222 32.8896 23.866C32.8683 23.8156 32.8471 23.7651 32.8252 23.7132C32.7787 23.59 32.7787 23.59 32.7787 23.4886C31.6245 23.4886 30.4703 23.4886 29.2812 23.4886C29.231 23.6392 29.1808 23.7897 29.1291 23.9448C29.0994 24.0229 29.0688 24.1007 29.0366 24.1779C29.0211 24.2153 29.0056 24.2527 28.9896 24.2912C28.9661 24.3471 28.9661 24.3471 28.9422 24.4042C28.926 24.4432 28.9097 24.4823 28.893 24.5225C28.8536 24.6172 28.8139 24.7119 28.7743 24.8065C28.8579 24.84 28.9416 24.8734 29.0277 24.9079C28.9834 25.155 28.9834 25.155 28.9264 25.212C28.8442 25.217 28.7618 25.2185 28.6794 25.2186C28.6005 25.2188 28.6005 25.2188 28.52 25.2191C28.4342 25.2189 28.4342 25.2189 28.3466 25.2188C28.2591 25.2188 28.2591 25.2188 28.1699 25.2189C28.0463 25.2189 27.9228 25.2188 27.7992 25.2186C27.6093 25.2184 27.4194 25.2186 27.2295 25.219C27.1098 25.2189 26.99 25.2189 26.8703 25.2188C26.8131 25.2189 26.7558 25.219 26.6969 25.2191C26.618 25.2188 26.618 25.2188 26.5375 25.2186C26.4909 25.2185 26.4443 25.2185 26.3964 25.2185C26.2906 25.212 26.2906 25.212 26.2399 25.1613C26.2378 25.0769 26.2377 24.9923 26.2399 24.9079C26.2853 24.8923 26.2853 24.8923 26.3316 24.8765C26.4884 24.7777 26.5236 24.667 26.5977 24.4982C26.6183 24.4518 26.6183 24.4518 26.6393 24.4045C26.6831 24.3054 26.726 24.2059 26.7689 24.1064C26.7975 24.0416 26.8262 23.9768 26.855 23.912C27.0116 23.5568 27.1577 23.1987 27.2951 22.8356C27.3537 22.6812 27.414 22.5275 27.475 22.3741C27.8064 21.539 28.1242 20.6993 28.4384 19.8577C28.4542 19.8153 28.4701 19.7729 28.4864 19.7292C28.5021 19.6871 28.5178 19.6449 28.534 19.6016C28.6363 19.3279 28.7395 19.0545 28.8436 18.7815C28.8567 18.747 28.8699 18.7125 28.8834 18.677C28.9443 18.5173 29.0053 18.3577 29.0664 18.1982C29.0875 18.143 29.1086 18.0878 29.1303 18.0309C29.1577 17.9595 29.1577 17.9595 29.1856 17.8866C29.2245 17.7776 29.2557 17.6709 29.2812 17.5581C29.2143 17.5413 29.1474 17.5246 29.0784 17.5074C29.0951 17.4405 29.1119 17.3736 29.1291 17.3046C29.9798 17.263 30.8286 17.2458 31.6802 17.2473ZM31.0046 18.9267C30.638 19.7409 30.3116 20.5652 30.0012 21.402C29.928 21.5943 29.8491 21.784 29.7676 21.9729C29.7242 22.0723 29.7242 22.0723 29.7881 22.1707C30.6077 22.1707 31.4273 22.1707 32.2718 22.1707C32.2006 21.7824 32.2006 21.7824 32.0879 21.4189C32.0722 21.378 32.0566 21.337 32.0405 21.2948C32.0238 21.2525 32.0071 21.2101 31.9898 21.1664C31.9722 21.121 31.9546 21.0756 31.9365 21.0288C31.7549 20.5649 31.5578 20.1078 31.359 19.651C31.255 19.4107 31.155 19.1687 31.0553 18.9267C31.0385 18.9267 31.0218 18.9267 31.0046 18.9267Z" fill="black"/>
<path d="M33.4366 27.2836C33.5011 27.2835 33.5655 27.2833 33.632 27.2832C33.7026 27.2832 33.7733 27.2834 33.844 27.2835C33.9162 27.2834 33.9884 27.2834 34.0606 27.2833C34.2121 27.2832 34.3636 27.2834 34.5151 27.2836C34.7093 27.2839 34.9035 27.2837 35.0977 27.2834C35.2469 27.2832 35.3961 27.2833 35.5452 27.2834C35.6168 27.2835 35.6885 27.2834 35.7601 27.2833C35.8602 27.2832 35.9603 27.2834 36.0604 27.2836C36.1459 27.2837 36.1459 27.2837 36.2331 27.2838C36.3738 27.2902 36.3738 27.2902 36.5259 27.3409C36.5259 27.4245 36.5259 27.5082 36.5259 27.5943C36.4757 27.5943 36.4255 27.5943 36.3738 27.5943C36.3845 27.6205 36.3952 27.6467 36.4062 27.6737C36.5893 28.1236 36.7709 28.573 36.9282 29.0326C37.0936 29.5135 37.2888 29.9817 37.4841 30.451C37.5361 30.5765 37.5876 30.7021 37.6389 30.8279C37.6543 30.8657 37.6697 30.9035 37.6856 30.9424C37.7135 31.0109 37.7414 31.0794 37.7692 31.148C37.8877 31.4369 38.0178 31.7204 38.1479 32.0042C38.1945 32.1063 38.241 32.2084 38.2875 32.3105C38.335 32.4144 38.3824 32.5182 38.4299 32.622C38.4536 32.6741 38.4774 32.7262 38.5018 32.7799C38.6057 33.0068 38.7103 33.2325 38.8241 33.4546C38.9082 33.6263 38.9082 33.6263 38.9082 33.7276C38.9584 33.7444 39.0086 33.7611 39.0603 33.7783C39.0625 33.8628 39.0624 33.9473 39.0603 34.0318C38.9786 34.1135 38.8904 34.0889 38.7775 34.089C38.7034 34.0893 38.7034 34.0893 38.6278 34.0895C38.574 34.0894 38.5203 34.0893 38.4649 34.0892C38.3827 34.0893 38.3827 34.0893 38.2988 34.0893C38.1826 34.0894 38.0664 34.0893 37.9502 34.0891C37.7719 34.0888 37.5935 34.0891 37.4152 34.0894C37.3026 34.0894 37.19 34.0893 37.0773 34.0892C36.9969 34.0893 36.9969 34.0893 36.9148 34.0895C36.8652 34.0893 36.8156 34.0892 36.7646 34.089C36.7208 34.089 36.6771 34.0889 36.632 34.0889C36.5259 34.0825 36.5259 34.0825 36.4245 34.0318C36.4245 33.9481 36.4245 33.8645 36.4245 33.7783C36.4747 33.7783 36.5249 33.7783 36.5766 33.7783C36.5643 33.7484 36.552 33.7185 36.5394 33.6877C36.4839 33.5522 36.4289 33.4166 36.3738 33.2809C36.3545 33.2339 36.3351 33.1868 36.3152 33.1383C36.2969 33.093 36.2786 33.0478 36.2598 33.0012C36.2428 32.9595 36.2258 32.9178 36.2083 32.8749C36.1711 32.7646 36.1711 32.7646 36.1711 32.6125C35.1674 32.6125 34.1638 32.6125 33.1298 32.6125C33.113 32.7129 33.0963 32.8132 33.0791 32.9166C33.0407 33.0303 33.0407 33.0303 32.9965 33.1348C32.9807 33.1727 32.9648 33.2106 32.9485 33.2497C32.932 33.2882 32.9155 33.3268 32.8985 33.3665C32.8818 33.4062 32.8651 33.4459 32.8479 33.4869C32.807 33.5841 32.7657 33.6813 32.7243 33.7783C32.7912 33.7783 32.8581 33.7783 32.927 33.7783C32.9437 33.8285 32.9605 33.8787 32.9777 33.9304C32.8967 34.0275 32.8514 34.0777 32.7249 34.1011C32.6867 34.1009 32.6485 34.1007 32.6091 34.1005C32.5656 34.1007 32.5222 34.1008 32.4774 34.101C32.4307 34.1004 32.3839 34.0997 32.3358 34.0991C32.2877 34.099 32.2397 34.0989 32.1902 34.0988C32.0887 34.0985 31.9872 34.0978 31.8857 34.0967C31.7297 34.0951 31.5738 34.0946 31.4178 34.0943C31.3194 34.0939 31.2209 34.0933 31.1224 34.0928C31.0755 34.0925 31.0285 34.0923 30.9802 34.0921C30.937 34.0916 30.8939 34.0911 30.8494 34.0906C30.8113 34.0903 30.7731 34.0899 30.7338 34.0896C30.646 34.0825 30.646 34.0825 30.5953 34.0318C30.5933 33.9473 30.5932 33.8628 30.5953 33.7783C30.6706 33.7532 30.6706 33.7532 30.7474 33.7276C30.8126 33.6184 30.8661 33.5136 30.9185 33.3982C30.9354 33.3616 30.9523 33.325 30.9697 33.2873C31.2516 32.6629 31.4916 32.0195 31.7389 31.3809C31.7976 31.2299 31.8569 31.0792 31.917 30.9287C32.1111 30.4412 32.2835 29.9475 32.4532 29.451C32.5806 29.0797 32.7152 28.7124 32.8614 28.348C32.9607 28.0998 33.0475 27.8487 33.1298 27.5943C33.0796 27.5776 33.0294 27.5609 32.9777 27.5436C32.9967 27.4454 32.9967 27.4454 33.0284 27.3409C33.168 27.2711 33.2804 27.2838 33.4366 27.2836ZM34.5997 28.7602C34.3207 29.3947 34.0587 30.0317 33.8258 30.6846C33.7586 30.8713 33.688 31.0567 33.6178 31.2423C33.5785 31.3515 33.5785 31.3515 33.586 31.4973C34.2885 31.4973 34.991 31.4973 35.7149 31.4973C35.6386 31.1344 35.6386 31.1344 35.5238 30.7962C35.4988 30.7345 35.4988 30.7345 35.4733 30.6715C35.4558 30.6293 35.4383 30.5872 35.4202 30.5438C35.393 30.4771 35.393 30.4771 35.3652 30.409C35.3131 30.2817 35.2606 30.1545 35.208 30.0274C35.1841 29.9687 35.1603 29.91 35.1357 29.8496C34.985 29.4813 34.8195 29.1203 34.6504 28.7602C34.6337 28.7602 34.617 28.7602 34.5997 28.7602Z" fill="black"/>
<path d="M30.8503 27.1383C30.9485 27.1573 30.9485 27.1573 31.053 27.189C31.1357 27.3542 31.112 27.5364 31.1123 27.718C31.1124 27.7604 31.1126 27.8028 31.1128 27.8464C31.113 27.9361 31.1131 28.0257 31.1131 28.1154C31.1132 28.2529 31.1142 28.3904 31.1151 28.5279C31.1153 28.6148 31.1154 28.7018 31.1154 28.7888C31.1158 28.8301 31.1161 28.8714 31.1165 28.9139C31.1153 29.2049 31.1153 29.2049 31.0024 29.3179C30.9355 29.3179 30.8685 29.3179 30.7996 29.3179C30.7829 29.2342 30.7662 29.1506 30.7489 29.0644C29.2937 29.0477 27.8384 29.031 26.339 29.0137C26.339 29.3316 26.339 29.6494 26.339 29.9768C27.2925 29.9768 28.2459 29.9768 29.2283 29.9768C29.2617 29.8932 29.2952 29.8096 29.3296 29.7234C29.3965 29.7568 29.4635 29.7903 29.5324 29.8248C29.5324 30.4604 29.5324 31.096 29.5324 31.7509C29.4655 31.7677 29.3986 31.7844 29.3296 31.8016C29.314 31.753 29.314 31.753 29.298 31.7034C29.2371 31.5869 29.2371 31.5869 29.1083 31.568C28.8522 31.5404 28.5975 31.5362 28.34 31.5321C28.2563 31.5306 28.2563 31.5306 28.1709 31.5289C27.9932 31.5256 27.8156 31.5226 27.6379 31.5197C27.5172 31.5175 27.3965 31.5153 27.2758 31.513C26.9804 31.5076 26.6851 31.5025 26.3897 31.4975C26.373 32.2168 26.3563 32.936 26.339 33.6771C26.4394 33.6938 26.5397 33.7105 26.6432 33.7278C26.6432 33.7947 26.6432 33.8616 26.6432 33.9305C26.5169 33.9937 26.432 33.9877 26.2907 33.9878C26.2384 33.9879 26.1862 33.9881 26.1323 33.9883C26.0473 33.9881 26.0473 33.9881 25.9606 33.988C25.8736 33.988 25.8736 33.988 25.7849 33.9881C25.662 33.9881 25.5392 33.988 25.4163 33.9878C25.228 33.9876 25.0397 33.9878 24.8513 33.9882C24.7322 33.9881 24.613 33.9881 24.4938 33.988C24.4373 33.9881 24.3807 33.9882 24.3225 33.9883C24.2438 33.988 24.2438 33.988 24.1636 33.9878C24.1174 33.9877 24.0712 33.9877 24.0236 33.9877C23.906 33.9812 23.906 33.9812 23.7539 33.9305C23.779 33.8302 23.779 33.8302 23.8046 33.7278C23.8882 33.7111 23.9719 33.6943 24.058 33.6771C24.0953 32.4005 24.1178 31.1233 24.1254 29.8461C24.1265 29.6514 24.1281 29.4567 24.1307 29.2619C24.1332 29.0763 24.1345 28.8906 24.1348 28.7049C24.1352 28.603 24.137 28.501 24.1387 28.399C24.1485 28.0276 24.1485 28.0276 23.9803 27.7122C23.9391 27.6733 23.8978 27.6345 23.8553 27.5945C23.8553 27.5443 23.8553 27.4941 23.8553 27.4424C23.9827 27.3787 24.0704 27.3848 24.2131 27.384C24.2674 27.3836 24.3217 27.3832 24.3776 27.3828C24.4375 27.3825 24.4973 27.3823 24.5589 27.3821C24.6217 27.3817 24.6845 27.3813 24.7493 27.3808C24.8861 27.38 25.0229 27.3792 25.1597 27.3785C25.3761 27.3775 25.5925 27.3761 25.8089 27.3746C26.2686 27.3716 26.7283 27.369 27.1881 27.3664C27.6836 27.3636 28.1792 27.3607 28.6748 27.3574C28.8898 27.3559 29.1048 27.3547 29.3198 27.3537C29.4853 27.3529 29.6508 27.3517 29.8163 27.3506C29.8757 27.3504 29.9351 27.3502 29.9963 27.35C30.0786 27.3494 30.0786 27.3494 30.1626 27.3487C30.21 27.3484 30.2574 27.3482 30.3063 27.3479C30.4592 27.3403 30.6 27.3267 30.7489 27.2903C30.7824 27.2402 30.8158 27.19 30.8503 27.1383Z" fill="black"/>
<path d="M30.9731 50.4977C31.1719 50.5881 31.3379 50.714 31.5118 50.8451C31.5935 50.9055 31.6752 50.9657 31.757 51.0259C31.7994 51.0572 31.8417 51.0885 31.8854 51.1208C32.0985 51.2764 32.3153 51.4265 32.5319 51.577C32.9 51.8333 33.2639 52.0944 33.6243 52.3612C33.7962 52.4884 33.9702 52.6125 34.1445 52.7365C34.1168 53.0137 34.065 53.2635 33.9736 53.5273C33.9615 53.5631 33.9495 53.599 33.937 53.6359C33.8978 53.7523 33.858 53.8685 33.8182 53.9847C33.7908 54.0655 33.7634 54.1463 33.7361 54.2271C33.6803 54.3922 33.6243 54.5573 33.5682 54.7224C33.4891 54.9556 33.4114 55.1893 33.3342 55.4231C33.3225 55.4586 33.3108 55.4941 33.2987 55.5307C33.2539 55.6664 33.209 55.8021 33.1644 55.9378C33.1341 56.0299 33.1036 56.1219 33.0731 56.214C33.056 56.2658 33.0389 56.3176 33.0213 56.371C32.9786 56.4874 32.9786 56.4874 32.9279 56.5381C32.803 56.5429 32.6795 56.5445 32.5546 56.5438C32.5155 56.5439 32.4765 56.5439 32.4362 56.5439C32.3065 56.5438 32.1768 56.5434 32.047 56.543C31.9573 56.543 31.8676 56.5429 31.7779 56.5428C31.5413 56.5426 31.3048 56.5421 31.0682 56.5416C30.827 56.5411 30.5857 56.5408 30.3445 56.5406C29.8709 56.54 29.3972 56.5392 28.9236 56.5381C28.1768 54.4184 28.1768 54.4184 27.8876 53.5253C27.8688 53.4678 27.85 53.4104 27.8307 53.3512C27.814 53.2989 27.7973 53.2467 27.7801 53.1929C27.7658 53.1483 27.7515 53.1038 27.7368 53.0579C27.707 52.9392 27.707 52.9392 27.707 52.7365C27.7717 52.6681 27.7717 52.6681 27.8635 52.6068C27.8976 52.5834 27.9318 52.56 27.967 52.5359C28.0046 52.5111 28.0421 52.4864 28.0809 52.4608C28.1607 52.4065 28.2405 52.352 28.3202 52.2975C28.3822 52.2555 28.3822 52.2555 28.4454 52.2127C28.6382 52.0806 28.8267 51.9428 29.0154 51.8051C29.4683 51.4764 29.9257 51.1543 30.3863 50.8366C30.4569 50.7866 30.5263 50.7347 30.5942 50.681C30.8143 50.5086 30.8143 50.5086 30.9731 50.4977Z" fill="#ED1C23"/>
<path d="M29.4829 3.82187C29.6049 3.88068 29.7101 3.94031 29.8218 4.01829C29.991 4.12683 30.1544 4.19712 30.342 4.26678C30.4851 4.35212 30.5261 4.43153 30.598 4.5822C30.6117 4.71999 30.6173 4.84571 30.6153 4.98321C30.6153 5.04259 30.6153 5.04259 30.6153 5.10318C30.6152 5.23346 30.6141 5.36371 30.6129 5.49399C30.6126 5.58455 30.6124 5.6751 30.6122 5.76566C30.6116 6.00357 30.6101 6.24147 30.6085 6.47938C30.6066 6.76506 30.6059 7.05074 30.605 7.33642C30.6036 7.77005 30.6007 8.20365 30.598 8.63727C31.5682 8.63727 32.5384 8.63727 33.5379 8.63727C33.5379 8.48673 33.5379 8.33618 33.5379 8.18108C33.6595 7.74548 33.9747 7.42494 34.3606 7.20394C34.7034 7.04317 35.0716 6.94042 35.4419 6.86635C35.6527 6.82247 35.836 6.74396 36.0294 6.65052C36.1231 6.60974 36.1231 6.60974 36.2244 6.60974C36.2321 7.00934 36.2375 7.40892 36.2411 7.80857C36.2425 7.94454 36.2446 8.08046 36.2474 8.21641C36.2511 8.41182 36.2528 8.60717 36.2541 8.80261C36.2557 8.86339 36.2573 8.92417 36.2589 8.98679C36.2589 9.0436 36.2589 9.10042 36.259 9.15895C36.26 9.23374 36.26 9.23374 36.261 9.31005C36.2188 9.46954 36.1562 9.55492 36.0232 9.65335C35.8039 9.75645 35.5645 9.73624 35.3268 9.73372C35.2673 9.73409 35.2079 9.73445 35.1466 9.73482C34.9503 9.73568 34.7541 9.73469 34.5579 9.73361C34.4214 9.73353 34.2849 9.73378 34.1485 9.73398C33.8626 9.73421 33.5767 9.73341 33.2909 9.73199C32.9606 9.73036 32.6305 9.73037 32.3003 9.73124C31.9821 9.73205 31.664 9.7317 31.3459 9.73084C31.2107 9.73049 31.0756 9.7306 30.9404 9.73092C30.7515 9.73119 30.5628 9.73016 30.374 9.72877C30.318 9.7291 30.262 9.72943 30.2044 9.72977C29.8256 9.72503 29.8256 9.72503 29.6268 9.605C29.4929 9.4527 29.4765 9.37178 29.4768 9.17373C29.4767 9.10315 29.4767 9.10315 29.4766 9.03115C29.4767 8.97937 29.4769 8.9276 29.4771 8.87426C29.4771 8.81986 29.4771 8.76546 29.4771 8.70942C29.4771 8.52895 29.4775 8.34848 29.4779 8.16801C29.478 8.04315 29.4781 7.91828 29.4781 7.79342C29.4783 7.46426 29.4788 7.1351 29.4794 6.80594C29.4799 6.47027 29.4801 6.13459 29.4804 5.79892C29.4809 5.1399 29.4818 4.48089 29.4829 3.82187Z" fill="#FEFBFB"/>
<path d="M41.5961 3.82187C41.6295 3.82187 41.663 3.82187 41.6975 3.82187C41.6998 4.6335 41.7016 5.44513 41.7027 6.25676C41.7032 6.63365 41.7039 7.01054 41.7051 7.38742C41.7061 7.71607 41.7068 8.0447 41.707 8.37335C41.7071 8.54723 41.7074 8.7211 41.7082 8.89498C41.7089 9.08948 41.709 9.28397 41.709 9.47847C41.7093 9.53561 41.7097 9.59274 41.7101 9.6516C41.7088 10.1288 41.6757 10.5997 41.3426 10.9689C40.887 11.3078 40.3726 11.3132 39.822 11.2731C39.4598 11.1917 39.2099 10.9732 39.011 10.6648C38.7585 10.2644 38.7845 9.84937 38.7955 9.39443C38.7966 9.32081 38.7975 9.24719 38.7983 9.17356C38.8004 8.99474 38.8043 8.81611 38.8082 8.63727C39.1762 8.63727 39.5442 8.63727 39.9234 8.63727C39.9253 8.73796 39.9272 8.83865 39.9291 8.9424C39.9316 9.04003 39.934 9.13767 39.9367 9.2353C39.9392 9.33642 39.9409 9.43755 39.9427 9.53868C39.9454 9.63399 39.9454 9.63399 39.9481 9.73124C39.9494 9.7899 39.9508 9.84856 39.9521 9.909C39.9625 10.0556 39.9625 10.0556 40.042 10.1517C40.1733 10.2405 40.2767 10.2282 40.4302 10.2086C40.5363 10.0495 40.5443 10.0133 40.5447 9.83214C40.5451 9.78624 40.5454 9.74033 40.5458 9.69304C40.5456 9.64279 40.5455 9.59255 40.5454 9.54078C40.5458 9.46127 40.5458 9.46127 40.5462 9.38015C40.5467 9.2649 40.547 9.14964 40.5471 9.03439C40.5473 8.85204 40.5481 8.66971 40.5491 8.48736C40.552 7.96886 40.5535 7.45036 40.5548 6.93186C40.5556 6.61485 40.5571 6.29786 40.5591 5.98085C40.5596 5.85996 40.5599 5.73907 40.5599 5.61817C40.56 5.44913 40.5609 5.28012 40.562 5.11108C40.5618 5.06104 40.5615 5.01101 40.5613 4.95945C40.564 4.70812 40.5689 4.53186 40.7344 4.32875C40.9096 4.17075 41.1065 4.10679 41.3254 4.02779C41.4454 3.97329 41.5063 3.91569 41.5961 3.82187Z" fill="#FEFAFA"/>
<path d="M22.9424 6.86328C22.9488 7.22772 22.9532 7.59214 22.9563 7.95662C22.9575 8.08063 22.9593 8.20463 22.9615 8.32862C22.9645 8.50679 22.966 8.68491 22.9671 8.8631C22.9684 8.9186 22.9697 8.9741 22.9711 9.03128C22.9712 9.41564 22.9712 9.41564 22.8236 9.58318C22.5847 9.70374 22.3808 9.70964 22.1188 9.71C22.0762 9.71026 22.0335 9.71051 21.9896 9.71077C21.8485 9.71151 21.7074 9.71185 21.5662 9.71213C21.4682 9.71242 21.3701 9.71272 21.2721 9.71301C21.0665 9.71354 20.8608 9.71384 20.6552 9.71401C20.3917 9.71429 20.1283 9.71551 19.8648 9.71695C19.6623 9.7179 19.4597 9.71816 19.2572 9.71824C19.16 9.71839 19.0629 9.7188 18.9658 9.71946C18.8299 9.72033 18.694 9.72023 18.5581 9.7199C18.518 9.72037 18.4779 9.72084 18.4366 9.72132C18.2059 9.71957 18.0557 9.69472 17.8735 9.54977C17.7031 9.29411 17.7471 8.99797 17.7436 8.69757C17.7411 8.63311 17.7386 8.56865 17.736 8.50224C17.7309 8.03978 17.7309 8.03978 17.846 7.86847C18.0506 7.68713 18.2781 7.61365 18.5325 7.52223C18.6495 7.4386 18.7666 7.35496 18.8873 7.26879C18.8873 7.72042 18.8873 8.17206 18.8873 8.63738C19.8574 8.63738 20.8276 8.63738 21.8272 8.63738C21.8272 8.30283 21.8272 7.96829 21.8272 7.62361C21.9973 7.28333 21.9973 7.28333 22.1915 7.21493C22.3988 7.13465 22.5741 7.03524 22.7584 6.91159C22.841 6.86328 22.841 6.86328 22.9424 6.86328Z" fill="#FEF9F9"/>
<path d="M44.1303 3.77109C44.1637 3.77109 44.1972 3.77109 44.2316 3.77109C44.2316 5.72817 44.2316 7.68525 44.2316 9.70164C43.8469 9.70164 43.4622 9.70164 43.0658 9.70164C43.0624 9.03851 43.0596 8.37539 43.0579 7.71226C43.0571 7.40434 43.056 7.09644 43.0543 6.78853C43.0527 6.49142 43.0518 6.19432 43.0514 5.8972C43.0511 5.78381 43.0505 5.67041 43.0497 5.55702C43.0486 5.39828 43.0485 5.23957 43.0485 5.08083C43.048 5.03387 43.0474 4.98691 43.0469 4.93853C43.0481 4.69287 43.0579 4.52817 43.2179 4.32866C43.3581 4.20212 43.4971 4.14123 43.6741 4.07839C43.8699 4.00379 43.9919 3.93254 44.1303 3.77109Z" fill="#FEF7F7"/>
<path d="M25.4254 3.77109C25.4254 5.72817 25.4254 7.68525 25.4254 9.70164C25.0407 9.70164 24.656 9.70164 24.2596 9.70164C24.255 9.03939 24.2513 8.37715 24.2491 7.71488C24.248 7.40737 24.2466 7.09986 24.2443 6.79235C24.2421 6.49557 24.2409 6.1988 24.2404 5.90201C24.24 5.7888 24.2393 5.67559 24.2382 5.56238C24.2367 5.40377 24.2365 5.2452 24.2366 5.08659C24.2359 5.03981 24.2351 4.99303 24.2344 4.94484C24.2362 4.65654 24.2733 4.49911 24.4624 4.27797C24.5659 4.21461 24.5659 4.21461 24.6746 4.1766C24.9008 4.08805 25.0876 3.96968 25.286 3.83049C25.3747 3.77109 25.3747 3.77109 25.4254 3.77109Z" fill="#FEF7F8"/>
<path d="M28.0622 7.21796C28.0669 7.66211 28.0705 8.10625 28.0727 8.55043C28.0738 8.75669 28.0752 8.96294 28.0775 9.16919C28.0797 9.36836 28.0809 9.56751 28.0815 9.76669C28.0818 9.84256 28.0826 9.91842 28.0837 9.99428C28.0851 10.1008 28.0853 10.2073 28.0852 10.3138C28.0857 10.3744 28.0862 10.435 28.0866 10.4973C28.0484 10.7594 27.9203 10.9147 27.726 11.0877C27.4964 11.2006 27.3072 11.2015 27.0548 11.197C27.0112 11.1978 26.9676 11.1986 26.9227 11.1994C26.5678 11.1972 26.2879 11.1196 26.0317 10.8653C26.0087 10.8295 25.9856 10.7936 25.9618 10.7566C25.9378 10.7214 25.9139 10.6862 25.8892 10.6499C25.8319 10.5127 25.8319 10.5127 25.7812 10.0565C26.166 10.0565 26.5507 10.0565 26.9471 10.0565C26.9441 9.90636 26.9412 9.75621 26.9382 9.6015C26.9362 9.45555 26.9347 9.3096 26.9332 9.16365C26.9319 9.06246 26.9302 8.96128 26.928 8.86011C26.9249 8.71439 26.9235 8.56874 26.9223 8.423C26.921 8.378 26.9197 8.333 26.9184 8.28664C26.9183 8.06814 26.9275 7.92263 27.0674 7.74875C27.1984 7.62545 27.2848 7.5702 27.454 7.51575C27.6569 7.44389 27.8673 7.21796 28.0622 7.21796Z" fill="#FEFAFA"/>
<path d="M38.8086 3.77109C38.842 3.77109 38.8755 3.77109 38.91 3.77109C38.9413 3.80768 38.9727 3.84427 39.005 3.88197C39.1769 4.06472 39.402 4.13088 39.6327 4.21659C39.774 4.279 39.8349 4.30619 39.9237 4.43004C39.938 4.55792 39.943 4.67314 39.941 4.80093C39.941 4.85733 39.941 4.85733 39.9411 4.91486C39.941 5.03912 39.9398 5.16334 39.9386 5.28758C39.9383 5.37374 39.9381 5.45989 39.9379 5.54604C39.9374 5.77279 39.9359 5.99953 39.9342 6.22627C39.9326 6.45765 39.9319 6.68903 39.9312 6.92041C39.9295 7.3744 39.9269 7.82838 39.9237 8.28236C39.5557 8.28236 39.1877 8.28236 38.8086 8.28236C38.8086 6.79364 38.8086 5.30492 38.8086 3.77109Z" fill="#FEF7F7"/>
<path d="M19.9027 5.3933C20.1232 5.5078 20.2584 5.62054 20.3589 5.84949C20.3886 5.99067 20.3782 6.06768 20.309 6.19421C20.0991 6.50715 20.0991 6.50715 19.9027 6.55913C19.7345 6.58093 19.6084 6.5955 19.4592 6.50587C19.3137 6.38737 19.2057 6.29502 19.1792 6.10531C19.1696 5.88767 19.171 5.74326 19.3134 5.57071C19.514 5.37965 19.6264 5.37028 19.9027 5.3933Z" fill="#FEF4F4"/>
<path d="M21.3729 5.39305C21.5606 5.49578 21.6595 5.56947 21.7784 5.74787C21.8152 5.97611 21.8088 6.15301 21.6897 6.35296C21.5308 6.49864 21.4394 6.55181 21.224 6.57472C20.9928 6.55113 20.8708 6.47374 20.7235 6.29594C20.644 6.10767 20.6258 5.94929 20.6633 5.74787C20.8501 5.45149 21.0238 5.35755 21.3729 5.39305Z" fill="#FEF6F6"/>
<path d="M35.1556 7.97812C35.1556 8.19557 35.1556 8.41303 35.1556 8.63707C34.9716 8.63707 34.7876 8.63707 34.598 8.63707C34.5804 8.4891 34.571 8.37694 34.6509 8.24681C34.8208 8.04101 34.8868 7.97812 35.1556 7.97812Z" fill="#ED262E"/>
<path d="M28.5691 61.2016C28.6026 61.2183 28.636 61.235 28.6705 61.2523C28.6308 61.2913 28.5912 61.3304 28.5503 61.3707C28.4985 61.422 28.4467 61.4734 28.3949 61.5247C28.3556 61.5633 28.3556 61.5633 28.3156 61.6027C28.1708 61.7432 28.1708 61.7432 28.0622 61.9112C28.012 61.8945 27.9619 61.8778 27.9102 61.8605C28.1298 61.6409 28.3495 61.4212 28.5691 61.2016Z" fill="#FCB309"/>
</svg>
